<?xml version="1.0" encoding="UTF-8" standalone="no"?>
<!DOCTYPE svg PUBLIC "-//W3C//DTD SVG 1.1//EN"
 "http://www.w3.org/Graphics/SVG/1.1/DTD/svg11.dtd">
<!-- Generated by graphviz version 2.49.2 (20211016.1639)
 -->
<!-- Pages: 1 -->
<svg width="199pt" height="121pt"
 viewBox="0.00 0.00 198.88 121.40" xmlns="http://www.w3.org/2000/svg" xmlns:xlink="http://www.w3.org/1999/xlink">
<g id="graph0" class="graph" transform="scale(1 1) rotate(0) translate(4 117.4)">
<polygon fill="white" stroke="transparent" points="-4,4 -4,-117.4 194.88,-117.4 194.88,4 -4,4"/>
<!-- x -->
<g id="node1" class="node">
<title>x</title>
<polygon fill="lightgray" stroke="black" points="21,-113.4 0,-113.4 0,-95.4 21,-95.4 21,-113.4"/>
<text text-anchor="middle" x="10.5" y="-102.2" font-family="Times,serif" font-size="9.00">x</text>
</g>
<!-- dx -->
<g id="node2" class="node">
<title>dx</title>
<polygon fill="lightgray" stroke="black" points="181.5,-113.4 155.5,-113.4 155.5,-95.4 181.5,-95.4 181.5,-113.4"/>
<text text-anchor="middle" x="168.5" y="-102.2" font-family="Times,serif" font-size="9.00">dx</text>
</g>
<!-- control -->
<g id="node5" class="node">
<title>control</title>
<ellipse fill="lightblue" stroke="black" cx="106.5" cy="-29.7" rx="29.9" ry="29.9"/>
<text text-anchor="middle" x="106.5" y="-27.5" font-family="Times,serif" font-size="9.00">control</text>
</g>
<!-- dx&#45;&gt;control -->
<g id="edge4" class="edge">
<title>dx&#45;&gt;control</title>
<path fill="none" stroke="green" stroke-width="0.25" d="M161.63,-95.34C154.42,-86.89 142.66,-73.1 131.85,-60.43"/>
<polygon fill="green" stroke="green" stroke-width="0.25" points="134.45,-58.07 125.29,-52.74 129.12,-62.62 134.45,-58.07"/>
</g>
<!-- 33 -->
<g id="node6" class="node">
<title>33</title>
<ellipse fill="none" stroke="black" cx="172.5" cy="-29.7" rx="18.27" ry="18.27"/>
<text text-anchor="middle" x="172.5" y="-27.5" font-family="Times,serif" font-size="9.00">33</text>
</g>
<!-- dx&#45;&gt;33 -->
<g id="edge2" class="edge">
<title>dx&#45;&gt;33</title>
<path fill="none" stroke="red" stroke-width="0.13" d="M168.94,-95.34C169.43,-86.41 170.25,-71.53 170.98,-58.29"/>
<polygon fill="red" stroke="red" stroke-width="0.13" points="174.48,-58.35 171.54,-48.18 167.49,-57.97 174.48,-58.35"/>
</g>
<!-- theta -->
<g id="node3" class="node">
<title>theta</title>
<polygon fill="lightgray" stroke="black" points="73.5,-113.4 39.5,-113.4 39.5,-95.4 73.5,-95.4 73.5,-113.4"/>
<text text-anchor="middle" x="56.5" y="-102.2" font-family="Times,serif" font-size="9.00">theta</text>
</g>
<!-- theta&#45;&gt;control -->
<g id="edge1" class="edge">
<title>theta&#45;&gt;control</title>
<path fill="none" stroke="red" stroke-width="0.22" d="M62.04,-95.34C67.44,-87.49 76.02,-75.02 84.2,-63.12"/>
<polygon fill="red" stroke="red" stroke-width="0.22" points="87.25,-64.86 90.04,-54.63 81.49,-60.89 87.25,-64.86"/>
</g>
<!-- dtheta -->
<g id="node4" class="node">
<title>dtheta</title>
<polygon fill="lightgray" stroke="black" points="129.5,-113.4 91.5,-113.4 91.5,-95.4 129.5,-95.4 129.5,-113.4"/>
<text text-anchor="middle" x="110.5" y="-102.2" font-family="Times,serif" font-size="9.00">dtheta</text>
</g>
<!-- dtheta&#45;&gt;control -->
<g id="edge3" class="edge">
<title>dtheta&#45;&gt;control</title>
<path fill="none" stroke="green" stroke-width="0.47" d="M110.06,-95.34C109.7,-88.92 109.18,-79.42 108.64,-69.66"/>
<polygon fill="green" stroke="green" stroke-width="0.47" points="112.13,-69.32 108.09,-59.52 105.14,-69.7 112.13,-69.32"/>
</g>
</g>
</svg>
