<?xml version="1.0" encoding="UTF-8" standalone="no"?>
<!DOCTYPE svg PUBLIC "-//W3C//DTD SVG 1.1//EN"
 "http://www.w3.org/Graphics/SVG/1.1/DTD/svg11.dtd">
<!-- Generated by graphviz version 2.49.2 (20211016.1639)
 -->
<!-- Pages: 1 -->
<svg width="300pt" height="200pt"
 viewBox="0.00 0.00 299.50 199.82" xmlns="http://www.w3.org/2000/svg" xmlns:xlink="http://www.w3.org/1999/xlink">
<g id="graph0" class="graph" transform="scale(1 1) rotate(0) translate(4 195.82)">
<polygon fill="white" stroke="transparent" points="-4,4 -4,-195.82 295.5,-195.82 295.5,4 -4,4"/>
<!-- x -->
<g id="node1" class="node">
<title>x</title>
<polygon fill="lightgray" stroke="black" points="21,-125.61 0,-125.61 0,-107.61 21,-107.61 21,-125.61"/>
<text text-anchor="middle" x="10.5" y="-114.41" font-family="Times,serif" font-size="9.00">x</text>
</g>
<!-- control -->
<g id="node5" class="node">
<title>control</title>
<ellipse fill="lightblue" stroke="black" cx="137.5" cy="-29.7" rx="29.9" ry="29.9"/>
<text text-anchor="middle" x="137.5" y="-27.5" font-family="Times,serif" font-size="9.00">control</text>
</g>
<!-- x&#45;&gt;control -->
<g id="edge7" class="edge">
<title>x&#45;&gt;control</title>
<path fill="none" stroke="green" stroke-width="0.26" d="M20.03,-107.47C24.61,-103.68 30.24,-99.17 35.5,-95.4 57.51,-79.6 83.29,-63.26 103.42,-50.96"/>
<polygon fill="green" stroke="green" stroke-width="0.26" points="105.51,-53.79 112.24,-45.61 101.88,-47.8 105.51,-53.79"/>
</g>
<!-- dx -->
<g id="node2" class="node">
<title>dx</title>
<polygon fill="lightgray" stroke="black" points="111.5,-191.82 85.5,-191.82 85.5,-173.82 111.5,-173.82 111.5,-191.82"/>
<text text-anchor="middle" x="98.5" y="-180.62" font-family="Times,serif" font-size="9.00">dx</text>
</g>
<!-- dx&#45;&gt;control -->
<g id="edge2" class="edge">
<title>dx&#45;&gt;control</title>
<path fill="none" stroke="red" stroke-width="0.39" stroke-dasharray="1,5" d="M90.57,-173.55C83.22,-165.27 72.81,-151.78 68.5,-137.82 62.94,-119.8 61,-112.7 68.5,-95.4 75.98,-78.14 90.57,-63.38 104.42,-52.33"/>
<polygon fill="red" stroke="red" stroke-width="0.39" points="106.57,-55.09 112.43,-46.26 102.35,-49.51 106.57,-55.09"/>
</g>
<!-- 464 -->
<g id="node6" class="node">
<title>464</title>
<ellipse fill="white" stroke="black" cx="176.5" cy="-116.61" rx="21.43" ry="21.43"/>
<text text-anchor="middle" x="176.5" y="-114.41" font-family="Times,serif" font-size="9.00">464</text>
</g>
<!-- dx&#45;&gt;464 -->
<g id="edge8" class="edge">
<title>dx&#45;&gt;464</title>
<path fill="none" stroke="red" stroke-width="0.93" d="M108.38,-173.69C119.45,-164.58 137.79,-149.48 152.65,-137.25"/>
<polygon fill="red" stroke="red" stroke-width="0.93" points="154.98,-139.86 160.48,-130.8 150.54,-134.45 154.98,-139.86"/>
</g>
<!-- 200 -->
<g id="node7" class="node">
<title>200</title>
<ellipse fill="white" stroke="black" cx="98.5" cy="-116.61" rx="21.43" ry="21.43"/>
<text text-anchor="middle" x="98.5" y="-114.41" font-family="Times,serif" font-size="9.00">200</text>
</g>
<!-- dx&#45;&gt;200 -->
<g id="edge3" class="edge">
<title>dx&#45;&gt;200</title>
<path fill="none" stroke="red" stroke-width="0.19" d="M98.5,-173.69C98.5,-167.15 98.5,-157.52 98.5,-148.08"/>
<polygon fill="red" stroke="red" stroke-width="0.19" points="102,-148.07 98.5,-138.07 95,-148.07 102,-148.07"/>
</g>
<!-- theta -->
<g id="node3" class="node">
<title>theta</title>
<polygon fill="lightgray" stroke="black" points="217.5,-191.82 183.5,-191.82 183.5,-173.82 217.5,-173.82 217.5,-191.82"/>
<text text-anchor="middle" x="200.5" y="-180.62" font-family="Times,serif" font-size="9.00">theta</text>
</g>
<!-- theta&#45;&gt;control -->
<g id="edge4" class="edge">
<title>theta&#45;&gt;control</title>
<path fill="none" stroke="green" stroke-width="0.51" d="M203.43,-173.78C208.67,-158 218.1,-122.17 206.5,-95.4 199.02,-78.14 184.43,-63.38 170.58,-52.33"/>
<polygon fill="green" stroke="green" stroke-width="0.51" points="172.65,-49.51 162.57,-46.26 168.43,-55.09 172.65,-49.51"/>
</g>
<!-- theta&#45;&gt;464 -->
<g id="edge10" class="edge">
<title>theta&#45;&gt;464</title>
<path fill="none" stroke="red" stroke-width="0.21" d="M197.46,-173.69C194.84,-166.68 190.9,-156.14 187.14,-146.07"/>
<polygon fill="red" stroke="red" stroke-width="0.21" points="190.42,-144.85 183.64,-136.7 183.86,-147.3 190.42,-144.85"/>
</g>
<!-- dtheta -->
<g id="node4" class="node">
<title>dtheta</title>
<polygon fill="lightgray" stroke="black" points="291.5,-125.61 253.5,-125.61 253.5,-107.61 291.5,-107.61 291.5,-125.61"/>
<text text-anchor="middle" x="272.5" y="-114.41" font-family="Times,serif" font-size="9.00">dtheta</text>
</g>
<!-- dtheta&#45;&gt;control -->
<g id="edge5" class="edge">
<title>dtheta&#45;&gt;control</title>
<path fill="none" stroke="green" stroke-width="0.43" d="M259.56,-107.47C239.28,-94.72 199.39,-69.63 170.73,-51.6"/>
<polygon fill="green" stroke="green" stroke-width="0.43" points="172.55,-48.61 162.23,-46.25 168.83,-54.54 172.55,-48.61"/>
</g>
<!-- 464&#45;&gt;control -->
<g id="edge9" class="edge">
<title>464&#45;&gt;control</title>
<path fill="none" stroke="red" stroke-width="0.2" d="M167.84,-96.77C163.72,-87.79 158.65,-76.74 153.84,-66.27"/>
<polygon fill="red" stroke="red" stroke-width="0.2" points="156.89,-64.52 149.53,-56.9 150.53,-67.44 156.89,-64.52"/>
</g>
<!-- 200&#45;&gt;control -->
<g id="edge6" class="edge">
<title>200&#45;&gt;control</title>
<path fill="none" stroke="green" stroke-width="0.25" d="M107.16,-96.77C111.28,-87.79 116.35,-76.74 121.16,-66.27"/>
<polygon fill="green" stroke="green" stroke-width="0.25" points="124.47,-67.44 125.47,-56.9 118.11,-64.52 124.47,-67.44"/>
</g>
<!-- 200&#45;&gt;200 -->
<g id="edge1" class="edge">
<title>200&#45;&gt;200</title>
<path fill="none" stroke="green" stroke-width="0.45" d="M116.65,-128.21C127.5,-130.79 137.71,-126.92 137.71,-116.61 137.71,-109.68 133.1,-105.66 126.79,-104.55"/>
<polygon fill="green" stroke="green" stroke-width="0.45" points="126.48,-101.06 116.65,-105.01 126.8,-108.06 126.48,-101.06"/>
</g>
</g>
</svg>
