<?xml version="1.0" encoding="UTF-8" standalone="no"?>
<!DOCTYPE svg PUBLIC "-//W3C//DTD SVG 1.1//EN"
 "http://www.w3.org/Graphics/SVG/1.1/DTD/svg11.dtd">
<!-- Generated by graphviz version 2.49.2 (20211016.1639)
 -->
<!-- Pages: 1 -->
<svg width="262pt" height="200pt"
 viewBox="0.00 0.00 261.50 199.82" xmlns="http://www.w3.org/2000/svg" xmlns:xlink="http://www.w3.org/1999/xlink">
<g id="graph0" class="graph" transform="scale(1 1) rotate(0) translate(4 195.82)">
<polygon fill="white" stroke="transparent" points="-4,4 -4,-195.82 257.5,-195.82 257.5,4 -4,4"/>
<!-- x -->
<g id="node1" class="node">
<title>x</title>
<polygon fill="lightgray" stroke="black" points="21,-125.61 0,-125.61 0,-107.61 21,-107.61 21,-125.61"/>
<text text-anchor="middle" x="10.5" y="-114.41" font-family="Times,serif" font-size="9.00">x</text>
</g>
<!-- control -->
<g id="node5" class="node">
<title>control</title>
<ellipse fill="lightblue" stroke="black" cx="98.5" cy="-29.7" rx="29.9" ry="29.9"/>
<text text-anchor="middle" x="98.5" y="-27.5" font-family="Times,serif" font-size="9.00">control</text>
</g>
<!-- x&#45;&gt;control -->
<g id="edge6" class="edge">
<title>x&#45;&gt;control</title>
<path fill="none" stroke="green" stroke-width="0.26" d="M18.94,-107.47C30.61,-96.21 52.24,-75.33 70.01,-58.19"/>
<polygon fill="green" stroke="green" stroke-width="0.26" points="72.58,-60.57 77.35,-51.11 67.72,-55.53 72.58,-60.57"/>
</g>
<!-- dx -->
<g id="node2" class="node">
<title>dx</title>
<polygon fill="lightgray" stroke="black" points="135.5,-191.82 109.5,-191.82 109.5,-173.82 135.5,-173.82 135.5,-191.82"/>
<text text-anchor="middle" x="122.5" y="-180.62" font-family="Times,serif" font-size="9.00">dx</text>
</g>
<!-- 464 -->
<g id="node6" class="node">
<title>464</title>
<ellipse fill="white" stroke="black" cx="98.5" cy="-116.61" rx="21.43" ry="21.43"/>
<text text-anchor="middle" x="98.5" y="-114.41" font-family="Times,serif" font-size="9.00">464</text>
</g>
<!-- dx&#45;&gt;464 -->
<g id="edge7" class="edge">
<title>dx&#45;&gt;464</title>
<path fill="none" stroke="red" stroke-width="0.93" d="M119.46,-173.69C116.84,-166.68 112.9,-156.14 109.14,-146.07"/>
<polygon fill="red" stroke="red" stroke-width="0.93" points="112.42,-144.85 105.64,-136.7 105.86,-147.3 112.42,-144.85"/>
</g>
<!-- 200 -->
<g id="node7" class="node">
<title>200</title>
<ellipse fill="white" stroke="black" cx="158.5" cy="-116.61" rx="21.43" ry="21.43"/>
<text text-anchor="middle" x="158.5" y="-114.41" font-family="Times,serif" font-size="9.00">200</text>
</g>
<!-- dx&#45;&gt;200 -->
<g id="edge2" class="edge">
<title>dx&#45;&gt;200</title>
<path fill="none" stroke="red" stroke-width="0.19" d="M127.06,-173.69C131.22,-166.28 137.59,-154.9 143.52,-144.33"/>
<polygon fill="red" stroke="red" stroke-width="0.19" points="146.71,-145.8 148.55,-135.37 140.6,-142.38 146.71,-145.8"/>
</g>
<!-- theta -->
<g id="node3" class="node">
<title>theta</title>
<polygon fill="lightgray" stroke="black" points="91.5,-191.82 57.5,-191.82 57.5,-173.82 91.5,-173.82 91.5,-191.82"/>
<text text-anchor="middle" x="74.5" y="-180.62" font-family="Times,serif" font-size="9.00">theta</text>
</g>
<!-- theta&#45;&gt;control -->
<g id="edge3" class="edge">
<title>theta&#45;&gt;control</title>
<path fill="none" stroke="green" stroke-width="0.51" d="M72.4,-173.61C68.76,-158.11 62.28,-123.6 68.5,-95.4 70.78,-85.06 74.88,-74.41 79.34,-64.81"/>
<polygon fill="green" stroke="green" stroke-width="0.51" points="82.59,-66.13 83.85,-55.61 76.31,-63.05 82.59,-66.13"/>
</g>
<!-- theta&#45;&gt;464 -->
<g id="edge9" class="edge">
<title>theta&#45;&gt;464</title>
<path fill="none" stroke="red" stroke-width="0.21" d="M77.54,-173.69C80.16,-166.68 84.1,-156.14 87.86,-146.07"/>
<polygon fill="red" stroke="red" stroke-width="0.21" points="91.14,-147.3 91.36,-136.7 84.58,-144.85 91.14,-147.3"/>
</g>
<!-- dtheta -->
<g id="node4" class="node">
<title>dtheta</title>
<polygon fill="lightgray" stroke="black" points="253.5,-125.61 215.5,-125.61 215.5,-107.61 253.5,-107.61 253.5,-125.61"/>
<text text-anchor="middle" x="234.5" y="-114.41" font-family="Times,serif" font-size="9.00">dtheta</text>
</g>
<!-- dtheta&#45;&gt;control -->
<g id="edge4" class="edge">
<title>dtheta&#45;&gt;control</title>
<path fill="none" stroke="green" stroke-width="0.43" d="M223.75,-107.52C218.6,-103.73 212.31,-99.22 206.5,-95.4 182.38,-79.51 154.39,-62.79 132.95,-50.33"/>
<polygon fill="green" stroke="green" stroke-width="0.43" points="134.6,-47.24 124.19,-45.26 131.1,-53.3 134.6,-47.24"/>
</g>
<!-- 464&#45;&gt;control -->
<g id="edge8" class="edge">
<title>464&#45;&gt;control</title>
<path fill="none" stroke="red" stroke-width="0.2" d="M98.5,-95.06C98.5,-87.36 98.5,-78.35 98.5,-69.55"/>
<polygon fill="red" stroke="red" stroke-width="0.2" points="102,-69.4 98.5,-59.41 95,-69.41 102,-69.4"/>
</g>
<!-- 200&#45;&gt;control -->
<g id="edge5" class="edge">
<title>200&#45;&gt;control</title>
<path fill="none" stroke="green" stroke-width="0.25" d="M146.65,-98.83C139.38,-88.55 129.83,-75.03 121.15,-62.76"/>
<polygon fill="green" stroke="green" stroke-width="0.25" points="123.96,-60.66 115.33,-54.51 118.24,-64.7 123.96,-60.66"/>
</g>
<!-- 200&#45;&gt;200 -->
<g id="edge1" class="edge">
<title>200&#45;&gt;200</title>
<path fill="none" stroke="green" stroke-width="0.45" d="M176.65,-128.21C187.5,-130.79 197.71,-126.92 197.71,-116.61 197.71,-109.68 193.1,-105.66 186.79,-104.55"/>
<polygon fill="green" stroke="green" stroke-width="0.45" points="186.48,-101.06 176.65,-105.01 186.8,-108.06 186.48,-101.06"/>
</g>
</g>
</svg>
