<?xml version="1.0" encoding="UTF-8" standalone="no"?>
<!DOCTYPE svg PUBLIC "-//W3C//DTD SVG 1.1//EN"
 "http://www.w3.org/Graphics/SVG/1.1/DTD/svg11.dtd">
<!-- Generated by graphviz version 2.48.0 (20210717.1556)
 -->
<!-- Pages: 1 -->
<svg width="240pt" height="200pt"
 viewBox="0.00 0.00 239.60 199.82" xmlns="http://www.w3.org/2000/svg" xmlns:xlink="http://www.w3.org/1999/xlink">
<g id="graph0" class="graph" transform="scale(1 1) rotate(0) translate(4 195.82)">
<polygon fill="white" stroke="transparent" points="-4,4 -4,-195.82 235.6,-195.82 235.6,4 -4,4"/>
<!-- x -->
<g id="node1" class="node">
<title>x</title>
<polygon fill="lightgray" stroke="black" points="28.38,-191.82 8.38,-191.82 8.38,-173.82 28.38,-173.82 28.38,-191.82"/>
<text text-anchor="middle" x="18.38" y="-180.62" font-family="Times New Roman,serif" font-size="9.00">x</text>
</g>
<!-- 20 -->
<g id="node7" class="node">
<title>20</title>
<ellipse fill="white" stroke="black" cx="18.38" cy="-116.61" rx="18.27" ry="18.27"/>
<text text-anchor="middle" x="18.38" y="-114.41" font-family="Times New Roman,serif" font-size="9.00">20</text>
</g>
<!-- x&#45;&gt;20 -->
<g id="edge1" class="edge">
<title>x&#45;&gt;20</title>
<path fill="none" stroke="red" stroke-width="0.23" d="M18.38,-173.69C18.38,-166.53 18.38,-155.66 18.38,-145.4"/>
<polygon fill="red" stroke="red" stroke-width="0.23" points="21.88,-145.1 18.38,-135.1 14.88,-145.1 21.88,-145.1"/>
</g>
<!-- dx -->
<g id="node2" class="node">
<title>dx</title>
<polygon fill="lightgray" stroke="black" points="79.88,-125.61 54.88,-125.61 54.88,-107.61 79.88,-107.61 79.88,-125.61"/>
<text text-anchor="middle" x="67.38" y="-114.41" font-family="Times New Roman,serif" font-size="9.00">dx</text>
</g>
<!-- control -->
<g id="node5" class="node">
<title>control</title>
<ellipse fill="lightblue" stroke="black" cx="115.38" cy="-29.7" rx="29.9" ry="29.9"/>
<text text-anchor="middle" x="115.38" y="-27.5" font-family="Times New Roman,serif" font-size="9.00">control</text>
</g>
<!-- dx&#45;&gt;control -->
<g id="edge2" class="edge">
<title>dx&#45;&gt;control</title>
<path fill="none" stroke="green" stroke-width="0.14" d="M71.99,-107.47C77.56,-97.61 87.29,-80.39 96.13,-64.75"/>
<polygon fill="green" stroke="green" stroke-width="0.14" points="99.32,-66.23 101.2,-55.8 93.23,-62.78 99.32,-66.23"/>
</g>
<!-- theta -->
<g id="node3" class="node">
<title>theta</title>
<polygon fill="lightgray" stroke="black" points="132.88,-125.61 97.88,-125.61 97.88,-107.61 132.88,-107.61 132.88,-125.61"/>
<text text-anchor="middle" x="115.38" y="-114.41" font-family="Times New Roman,serif" font-size="9.00">theta</text>
</g>
<!-- theta&#45;&gt;control -->
<g id="edge6" class="edge">
<title>theta&#45;&gt;control</title>
<path fill="none" stroke="green" stroke-width="0.46" d="M115.38,-107.47C115.38,-98.65 115.38,-83.93 115.38,-69.73"/>
<polygon fill="green" stroke="green" stroke-width="0.46" points="118.88,-69.57 115.38,-59.57 111.88,-69.57 118.88,-69.57"/>
</g>
<!-- dtheta -->
<g id="node4" class="node">
<title>dtheta</title>
<polygon fill="lightgray" stroke="black" points="132.88,-191.82 93.88,-191.82 93.88,-173.82 132.88,-173.82 132.88,-191.82"/>
<text text-anchor="middle" x="113.38" y="-180.62" font-family="Times New Roman,serif" font-size="9.00">dtheta</text>
</g>
<!-- dtheta&#45;&gt;control -->
<g id="edge4" class="edge">
<title>dtheta&#45;&gt;control</title>
<path fill="none" stroke="green" stroke-width="0.28" d="M120.54,-173.77C127.41,-165.44 137.33,-151.73 141.38,-137.82 148.31,-114.03 141.58,-86.9 133.23,-65.89"/>
<polygon fill="green" stroke="green" stroke-width="0.28" points="136.33,-64.24 129.19,-56.41 129.89,-66.98 136.33,-64.24"/>
</g>
<!-- dtheta&#45;&gt;20 -->
<g id="edge3" class="edge">
<title>dtheta&#45;&gt;20</title>
<path fill="none" stroke="red" stroke-width="0.27" d="M100.43,-173.81C86.62,-165.18 64.19,-150.92 45.38,-137.82 43.93,-136.81 42.44,-135.76 40.95,-134.68"/>
<polygon fill="red" stroke="red" stroke-width="0.27" points="42.67,-131.6 32.54,-128.49 38.52,-137.24 42.67,-131.6"/>
</g>
<!-- 812 -->
<g id="node6" class="node">
<title>812</title>
<ellipse fill="white" stroke="black" cx="210.38" cy="-116.61" rx="21.43" ry="21.43"/>
<text text-anchor="middle" x="210.38" y="-114.41" font-family="Times New Roman,serif" font-size="9.00">812</text>
</g>
<!-- 812&#45;&gt;control -->
<g id="edge7" class="edge">
<title>812&#45;&gt;control</title>
<path fill="none" stroke="green" stroke-width="0.35" d="M194.7,-101.59C181.2,-89.53 161.36,-71.79 144.9,-57.08"/>
<polygon fill="green" stroke="green" stroke-width="0.35" points="146.93,-54.2 137.14,-50.14 142.26,-59.42 146.93,-54.2"/>
</g>
<!-- 20&#45;&gt;control -->
<g id="edge5" class="edge">
<title>20&#45;&gt;control</title>
<path fill="none" stroke="red" stroke-width="0.6" d="M31.87,-103.8C45.69,-91.71 67.61,-72.52 85.53,-56.83"/>
<polygon fill="red" stroke="red" stroke-width="0.6" points="88.22,-59.13 93.44,-49.91 83.61,-53.86 88.22,-59.13"/>
</g>
</g>
</svg>
