<?xml version="1.0" encoding="UTF-8" standalone="no"?>
<!DOCTYPE svg PUBLIC "-//W3C//DTD SVG 1.1//EN"
 "http://www.w3.org/Graphics/SVG/1.1/DTD/svg11.dtd">
<!-- Generated by graphviz version 2.48.0 (20210717.1556)
 -->
<!-- Pages: 1 -->
<svg width="256pt" height="200pt"
 viewBox="0.00 0.00 255.68 199.82" xmlns="http://www.w3.org/2000/svg" xmlns:xlink="http://www.w3.org/1999/xlink">
<g id="graph0" class="graph" transform="scale(1 1) rotate(0) translate(4 195.82)">
<polygon fill="white" stroke="transparent" points="-4,4 -4,-195.82 251.68,-195.82 251.68,4 -4,4"/>
<!-- x -->
<g id="node1" class="node">
<title>x</title>
<polygon fill="lightgray" stroke="black" points="21.47,-191.82 1.47,-191.82 1.47,-173.82 21.47,-173.82 21.47,-191.82"/>
<text text-anchor="middle" x="11.47" y="-180.62" font-family="Times New Roman,serif" font-size="9.00">x</text>
</g>
<!-- control -->
<g id="node5" class="node">
<title>control</title>
<ellipse fill="lightblue" stroke="black" cx="107.47" cy="-29.7" rx="29.9" ry="29.9"/>
<text text-anchor="middle" x="107.47" y="-27.5" font-family="Times New Roman,serif" font-size="9.00">control</text>
</g>
<!-- x&#45;&gt;control -->
<g id="edge3" class="edge">
<title>x&#45;&gt;control</title>
<path fill="none" stroke="red" stroke-width="0.54" stroke-dasharray="1,5" d="M8.43,-173.58C3.02,-157.43 -6.46,-120.99 7.47,-95.4 20.7,-71.08 47.44,-54.5 69.94,-44.22"/>
<polygon fill="red" stroke="red" stroke-width="0.54" points="71.48,-47.37 79.28,-40.19 68.71,-40.94 71.48,-47.37"/>
</g>
<!-- 20 -->
<g id="node6" class="node">
<title>20</title>
<ellipse fill="white" stroke="black" cx="34.47" cy="-116.61" rx="18.27" ry="18.27"/>
<text text-anchor="middle" x="34.47" y="-114.41" font-family="Times New Roman,serif" font-size="9.00">20</text>
</g>
<!-- x&#45;&gt;20 -->
<g id="edge1" class="edge">
<title>x&#45;&gt;20</title>
<path fill="none" stroke="red" stroke-width="0.23" d="M14.38,-173.69C17.1,-166.09 21.32,-154.34 25.18,-143.55"/>
<polygon fill="red" stroke="red" stroke-width="0.23" points="28.5,-144.65 28.58,-134.06 21.91,-142.29 28.5,-144.65"/>
</g>
<!-- dx -->
<g id="node2" class="node">
<title>dx</title>
<polygon fill="lightgray" stroke="black" points="95.97,-125.61 70.97,-125.61 70.97,-107.61 95.97,-107.61 95.97,-125.61"/>
<text text-anchor="middle" x="83.47" y="-114.41" font-family="Times New Roman,serif" font-size="9.00">dx</text>
</g>
<!-- dx&#45;&gt;control -->
<g id="edge2" class="edge">
<title>dx&#45;&gt;control</title>
<path fill="none" stroke="green" stroke-width="0.14" d="M85.77,-107.47C88.35,-98.36 92.7,-82.97 96.83,-68.34"/>
<polygon fill="green" stroke="green" stroke-width="0.14" points="100.28,-69 99.63,-58.43 93.55,-67.1 100.28,-69"/>
</g>
<!-- theta -->
<g id="node3" class="node">
<title>theta</title>
<polygon fill="lightgray" stroke="black" points="148.97,-125.61 113.97,-125.61 113.97,-107.61 148.97,-107.61 148.97,-125.61"/>
<text text-anchor="middle" x="131.47" y="-114.41" font-family="Times New Roman,serif" font-size="9.00">theta</text>
</g>
<!-- theta&#45;&gt;control -->
<g id="edge7" class="edge">
<title>theta&#45;&gt;control</title>
<path fill="none" stroke="green" stroke-width="0.46" d="M129.17,-107.47C126.6,-98.36 122.24,-82.97 118.11,-68.34"/>
<polygon fill="green" stroke="green" stroke-width="0.46" points="121.4,-67.1 115.31,-58.43 114.66,-69 121.4,-67.1"/>
</g>
<!-- dtheta -->
<g id="node4" class="node">
<title>dtheta</title>
<polygon fill="lightgray" stroke="black" points="137.97,-191.82 98.97,-191.82 98.97,-173.82 137.97,-173.82 137.97,-191.82"/>
<text text-anchor="middle" x="118.47" y="-180.62" font-family="Times New Roman,serif" font-size="9.00">dtheta</text>
</g>
<!-- dtheta&#45;&gt;control -->
<g id="edge5" class="edge">
<title>dtheta&#45;&gt;control</title>
<path fill="none" stroke="green" stroke-width="0.28" d="M129.35,-173.8C139.08,-165.9 152.66,-152.84 158.47,-137.82 165.27,-120.24 164.65,-113.21 158.47,-95.4 153.77,-81.83 144.91,-68.95 135.88,-58.31"/>
<polygon fill="green" stroke="green" stroke-width="0.28" points="138.28,-55.75 129,-50.63 133.07,-60.42 138.28,-55.75"/>
</g>
<!-- dtheta&#45;&gt;20 -->
<g id="edge4" class="edge">
<title>dtheta&#45;&gt;20</title>
<path fill="none" stroke="red" stroke-width="0.27" d="M107.83,-173.69C95.05,-163.92 73.27,-147.27 56.75,-134.64"/>
<polygon fill="red" stroke="red" stroke-width="0.27" points="58.73,-131.75 48.66,-128.46 54.48,-137.31 58.73,-131.75"/>
</g>
<!-- 20&#45;&gt;control -->
<g id="edge6" class="edge">
<title>20&#45;&gt;control</title>
<path fill="none" stroke="red" stroke-width="0.6" d="M46.2,-101.97C55.79,-90.81 69.7,-74.63 81.84,-60.51"/>
<polygon fill="red" stroke="red" stroke-width="0.6" points="84.5,-62.78 88.37,-52.92 79.19,-58.22 84.5,-62.78"/>
</g>
<!-- 812 -->
<g id="node7" class="node">
<title>812</title>
<ellipse fill="white" stroke="black" cx="226.47" cy="-116.61" rx="21.43" ry="21.43"/>
<text text-anchor="middle" x="226.47" y="-114.41" font-family="Times New Roman,serif" font-size="9.00">812</text>
</g>
<!-- 812&#45;&gt;control -->
<g id="edge8" class="edge">
<title>812&#45;&gt;control</title>
<path fill="none" stroke="green" stroke-width="0.35" d="M209.67,-103.62C191.61,-90.73 162.44,-69.92 139.88,-53.83"/>
<polygon fill="green" stroke="green" stroke-width="0.35" points="141.77,-50.87 131.6,-47.91 137.7,-56.57 141.77,-50.87"/>
</g>
</g>
</svg>
