<?xml version="1.0" encoding="utf-8" standalone="no"?>
<!DOCTYPE svg PUBLIC "-//W3C//DTD SVG 1.1//EN"
  "http://www.w3.org/Graphics/SVG/1.1/DTD/svg11.dtd">
<svg height="345.6pt" version="1.1" viewBox="0 0 460.8 345.6" width="460.8pt" xmlns="http://www.w3.org/2000/svg" xmlns:xlink="http://www.w3.org/1999/xlink">
 <metadata>
  <rdf:RDF xmlns:cc="http://creativecommons.org/ns#" xmlns:dc="http://purl.org/dc/elements/1.1/" xmlns:rdf="http://www.w3.org/1999/02/22-rdf-syntax-ns#">
   <cc:Work>
    <dc:type rdf:resource="http://purl.org/dc/dcmitype/StillImage"/>
    <dc:date>2021-10-24T20:27:19.616130</dc:date>
    <dc:format>image/svg+xml</dc:format>
    <dc:creator>
     <cc:Agent>
      <dc:title>Matplotlib v3.4.3, https://matplotlib.org/</dc:title>
     </cc:Agent>
    </dc:creator>
   </cc:Work>
  </rdf:RDF>
 </metadata>
 <defs>
  <style type="text/css">*{stroke-linecap:butt;stroke-linejoin:round;}</style>
 </defs>
 <g id="figure_1">
  <g id="patch_1">
   <path d="M 0 345.6 
L 460.8 345.6 
L 460.8 0 
L 0 0 
z
" style="fill:#ffffff;"/>
  </g>
  <g id="axes_1">
   <g id="patch_2">
    <path d="M 57.6 307.584 
L 414.72 307.584 
L 414.72 41.472 
L 57.6 41.472 
z
" style="fill:#ffffff;"/>
   </g>
   <g id="PolyCollection_1">
    <path clip-path="url(#pdb3e120ada)" d="M 73.832727 302.575304 
L 73.832727 307.584 
L 87.948142 307.584 
L 102.063557 307.584 
L 116.178972 307.584 
L 130.294387 307.584 
L 144.409802 307.584 
L 158.525217 307.584 
L 172.640632 307.584 
L 186.756047 307.584 
L 200.871462 307.584 
L 214.986877 307.584 
L 229.102292 307.584 
L 243.217708 307.584 
L 257.333123 307.584 
L 271.448538 307.584 
L 285.563953 307.584 
L 299.679368 307.584 
L 313.794783 307.584 
L 327.910198 307.584 
L 342.025613 307.584 
L 356.141028 307.584 
L 370.256443 307.584 
L 384.371858 307.584 
L 398.487273 307.584 
L 398.487273 304.578783 
L 398.487273 304.578783 
L 384.371858 303.577043 
L 370.256443 304.578783 
L 356.141028 305.580522 
L 342.025613 306.582261 
L 327.910198 301.573565 
L 313.794783 303.577043 
L 299.679368 304.578783 
L 285.563953 305.580522 
L 271.448538 305.580522 
L 257.333123 304.578783 
L 243.217708 305.580522 
L 229.102292 305.580522 
L 214.986877 305.580522 
L 200.871462 305.580522 
L 186.756047 304.578783 
L 172.640632 305.580522 
L 158.525217 304.578783 
L 144.409802 302.575304 
L 130.294387 299.570087 
L 116.178972 300.571826 
L 102.063557 299.570087 
L 87.948142 303.577043 
L 73.832727 302.575304 
z
" style="fill:#1f77b4;"/>
   </g>
   <g id="PolyCollection_2">
    <path clip-path="url(#pdb3e120ada)" d="M 73.832727 293.559652 
L 73.832727 302.575304 
L 87.948142 303.577043 
L 102.063557 299.570087 
L 116.178972 300.571826 
L 130.294387 299.570087 
L 144.409802 302.575304 
L 158.525217 304.578783 
L 172.640632 305.580522 
L 186.756047 304.578783 
L 200.871462 305.580522 
L 214.986877 305.580522 
L 229.102292 305.580522 
L 243.217708 305.580522 
L 257.333123 304.578783 
L 271.448538 305.580522 
L 285.563953 305.580522 
L 299.679368 304.578783 
L 313.794783 303.577043 
L 327.910198 301.573565 
L 342.025613 306.582261 
L 356.141028 305.580522 
L 370.256443 304.578783 
L 384.371858 303.577043 
L 398.487273 304.578783 
L 398.487273 281.538783 
L 398.487273 281.538783 
L 384.371858 299.570087 
L 370.256443 277.531826 
L 356.141028 266.512696 
L 342.025613 258.498783 
L 327.910198 274.526609 
L 313.794783 265.510957 
L 299.679368 269.517913 
L 285.563953 249.48313 
L 271.448538 258.498783 
L 257.333123 244.474435 
L 243.217708 249.48313 
L 229.102292 256.495304 
L 214.986877 271.521391 
L 200.871462 283.542261 
L 186.756047 272.52313 
L 172.640632 291.556174 
L 158.525217 295.56313 
L 144.409802 296.56487 
L 130.294387 294.561391 
L 116.178972 295.56313 
L 102.063557 294.561391 
L 87.948142 297.566609 
L 73.832727 293.559652 
z
" style="fill:#ff7f0e;"/>
   </g>
   <g id="PolyCollection_3">
    <path clip-path="url(#pdb3e120ada)" d="M 73.832727 242.470957 
L 73.832727 293.559652 
L 87.948142 297.566609 
L 102.063557 294.561391 
L 116.178972 295.56313 
L 130.294387 294.561391 
L 144.409802 296.56487 
L 158.525217 295.56313 
L 172.640632 291.556174 
L 186.756047 272.52313 
L 200.871462 283.542261 
L 214.986877 271.521391 
L 229.102292 256.495304 
L 243.217708 249.48313 
L 257.333123 244.474435 
L 271.448538 258.498783 
L 285.563953 249.48313 
L 299.679368 269.517913 
L 313.794783 265.510957 
L 327.910198 274.526609 
L 342.025613 258.498783 
L 356.141028 266.512696 
L 370.256443 277.531826 
L 384.371858 299.570087 
L 398.487273 281.538783 
L 398.487273 268.516174 
L 398.487273 268.516174 
L 384.371858 283.542261 
L 370.256443 265.510957 
L 356.141028 262.505739 
L 342.025613 241.469217 
L 327.910198 267.514435 
L 313.794783 254.491826 
L 299.679368 262.505739 
L 285.563953 246.477913 
L 271.448538 228.446609 
L 257.333123 234.457043 
L 243.217708 241.469217 
L 229.102292 249.48313 
L 214.986877 268.516174 
L 200.871462 276.530087 
L 186.756047 260.502261 
L 172.640632 270.519652 
L 158.525217 270.519652 
L 144.409802 277.531826 
L 130.294387 284.544 
L 116.178972 251.486609 
L 102.063557 269.517913 
L 87.948142 250.48487 
L 73.832727 242.470957 
z
" style="fill:#2ca02c;"/>
   </g>
   <g id="PolyCollection_4">
    <path clip-path="url(#pdb3e120ada)" d="M 73.832727 210.415304 
L 73.832727 242.470957 
L 87.948142 250.48487 
L 102.063557 269.517913 
L 116.178972 251.486609 
L 130.294387 284.544 
L 144.409802 277.531826 
L 158.525217 270.519652 
L 172.640632 270.519652 
L 186.756047 260.502261 
L 200.871462 276.530087 
L 214.986877 268.516174 
L 229.102292 249.48313 
L 243.217708 241.469217 
L 257.333123 234.457043 
L 271.448538 228.446609 
L 285.563953 246.477913 
L 299.679368 262.505739 
L 313.794783 254.491826 
L 327.910198 267.514435 
L 342.025613 241.469217 
L 356.141028 262.505739 
L 370.256443 265.510957 
L 384.371858 283.542261 
L 398.487273 268.516174 
L 398.487273 253.490087 
L 398.487273 253.490087 
L 384.371858 275.528348 
L 370.256443 254.491826 
L 356.141028 252.488348 
L 342.025613 230.450087 
L 327.910198 239.465739 
L 313.794783 239.465739 
L 299.679368 248.481391 
L 285.563953 240.467478 
L 271.448538 225.441391 
L 257.333123 228.446609 
L 243.217708 237.462261 
L 229.102292 240.467478 
L 214.986877 264.509217 
L 200.871462 272.52313 
L 186.756047 256.495304 
L 172.640632 265.510957 
L 158.525217 266.512696 
L 144.409802 271.521391 
L 130.294387 277.531826 
L 116.178972 242.470957 
L 102.063557 259.500522 
L 87.948142 239.465739 
L 73.832727 210.415304 
z
" style="fill:#d62728;"/>
   </g>
   <g id="PolyCollection_5">
    <path clip-path="url(#pdb3e120ada)" d="M 73.832727 166.338783 
L 73.832727 210.415304 
L 87.948142 239.465739 
L 102.063557 259.500522 
L 116.178972 242.470957 
L 130.294387 277.531826 
L 144.409802 271.521391 
L 158.525217 266.512696 
L 172.640632 265.510957 
L 186.756047 256.495304 
L 200.871462 272.52313 
L 214.986877 264.509217 
L 229.102292 240.467478 
L 243.217708 237.462261 
L 257.333123 228.446609 
L 271.448538 225.441391 
L 285.563953 240.467478 
L 299.679368 248.481391 
L 313.794783 239.465739 
L 327.910198 239.465739 
L 342.025613 230.450087 
L 356.141028 252.488348 
L 370.256443 254.491826 
L 384.371858 275.528348 
L 398.487273 253.490087 
L 398.487273 245.476174 
L 398.487273 245.476174 
L 384.371858 261.504 
L 370.256443 232.453565 
L 356.141028 226.44313 
L 342.025613 220.432696 
L 327.910198 230.450087 
L 313.794783 214.422261 
L 299.679368 231.451826 
L 285.563953 209.413565 
L 271.448538 215.424 
L 257.333123 213.420522 
L 243.217708 221.434435 
L 229.102292 234.457043 
L 214.986877 244.474435 
L 200.871462 229.448348 
L 186.756047 218.429217 
L 172.640632 224.439652 
L 158.525217 248.481391 
L 144.409802 247.479652 
L 130.294387 202.401391 
L 116.178972 226.44313 
L 102.063557 207.410087 
L 87.948142 198.394435 
L 73.832727 166.338783 
z
" style="fill:#9467bd;"/>
   </g>
   <g id="PolyCollection_6">
    <path clip-path="url(#pdb3e120ada)" d="M 73.832727 138.290087 
L 73.832727 166.338783 
L 87.948142 198.394435 
L 102.063557 207.410087 
L 116.178972 226.44313 
L 130.294387 202.401391 
L 144.409802 247.479652 
L 158.525217 248.481391 
L 172.640632 224.439652 
L 186.756047 218.429217 
L 200.871462 229.448348 
L 214.986877 244.474435 
L 229.102292 234.457043 
L 243.217708 221.434435 
L 257.333123 213.420522 
L 271.448538 215.424 
L 285.563953 209.413565 
L 299.679368 231.451826 
L 313.794783 214.422261 
L 327.910198 230.450087 
L 342.025613 220.432696 
L 356.141028 226.44313 
L 370.256443 232.453565 
L 384.371858 261.504 
L 398.487273 245.476174 
L 398.487273 224.439652 
L 398.487273 224.439652 
L 384.371858 229.448348 
L 370.256443 196.390957 
L 356.141028 202.401391 
L 342.025613 212.418783 
L 327.910198 220.432696 
L 313.794783 186.373565 
L 299.679368 185.371826 
L 285.563953 185.371826 
L 271.448538 200.397913 
L 257.333123 181.36487 
L 243.217708 173.350957 
L 229.102292 213.420522 
L 214.986877 209.413565 
L 200.871462 184.370087 
L 186.756047 195.389217 
L 172.640632 198.394435 
L 158.525217 234.457043 
L 144.409802 196.390957 
L 130.294387 153.316174 
L 116.178972 167.340522 
L 102.063557 171.347478 
L 87.948142 164.335304 
L 73.832727 138.290087 
z
" style="fill:#8c564b;"/>
   </g>
   <g id="PolyCollection_7">
    <path clip-path="url(#pdb3e120ada)" d="M 73.832727 108.237913 
L 73.832727 138.290087 
L 87.948142 164.335304 
L 102.063557 171.347478 
L 116.178972 167.340522 
L 130.294387 153.316174 
L 144.409802 196.390957 
L 158.525217 234.457043 
L 172.640632 198.394435 
L 186.756047 195.389217 
L 200.871462 184.370087 
L 214.986877 209.413565 
L 229.102292 213.420522 
L 243.217708 173.350957 
L 257.333123 181.36487 
L 271.448538 200.397913 
L 285.563953 185.371826 
L 299.679368 185.371826 
L 313.794783 186.373565 
L 327.910198 220.432696 
L 342.025613 212.418783 
L 356.141028 202.401391 
L 370.256443 196.390957 
L 384.371858 229.448348 
L 398.487273 224.439652 
L 398.487273 224.439652 
L 398.487273 224.439652 
L 384.371858 229.448348 
L 370.256443 196.390957 
L 356.141028 198.394435 
L 342.025613 209.413565 
L 327.910198 216.425739 
L 313.794783 183.368348 
L 299.679368 181.36487 
L 285.563953 183.368348 
L 271.448538 198.394435 
L 257.333123 178.359652 
L 243.217708 169.344 
L 229.102292 210.415304 
L 214.986877 205.406609 
L 200.871462 181.36487 
L 186.756047 191.382261 
L 172.640632 193.385739 
L 158.525217 230.450087 
L 144.409802 193.385739 
L 130.294387 148.307478 
L 116.178972 161.330087 
L 102.063557 164.335304 
L 87.948142 162.331826 
L 73.832727 108.237913 
z
" style="fill:#e377c2;"/>
   </g>
   <g id="PolyCollection_8">
    <path clip-path="url(#pdb3e120ada)" d="M 73.832727 98.220522 
L 73.832727 108.237913 
L 87.948142 162.331826 
L 102.063557 164.335304 
L 116.178972 161.330087 
L 130.294387 148.307478 
L 144.409802 193.385739 
L 158.525217 230.450087 
L 172.640632 193.385739 
L 186.756047 191.382261 
L 200.871462 181.36487 
L 214.986877 205.406609 
L 229.102292 210.415304 
L 243.217708 169.344 
L 257.333123 178.359652 
L 271.448538 198.394435 
L 285.563953 183.368348 
L 299.679368 181.36487 
L 313.794783 183.368348 
L 327.910198 216.425739 
L 342.025613 209.413565 
L 356.141028 198.394435 
L 370.256443 196.390957 
L 384.371858 229.448348 
L 398.487273 224.439652 
L 398.487273 211.417043 
L 398.487273 211.417043 
L 384.371858 212.418783 
L 370.256443 178.359652 
L 356.141028 186.373565 
L 342.025613 184.370087 
L 327.910198 206.408348 
L 313.794783 167.340522 
L 299.679368 167.340522 
L 285.563953 171.347478 
L 271.448538 184.370087 
L 257.333123 155.319652 
L 243.217708 162.331826 
L 229.102292 197.392696 
L 214.986877 190.380522 
L 200.871462 178.359652 
L 186.756047 186.373565 
L 172.640632 177.357913 
L 158.525217 215.424 
L 144.409802 184.370087 
L 130.294387 139.291826 
L 116.178972 147.305739 
L 102.063557 151.312696 
L 87.948142 146.304 
L 73.832727 98.220522 
z
" style="fill:#7f7f7f;"/>
   </g>
   <g id="PolyCollection_9">
    <path clip-path="url(#pdb3e120ada)" d="M 73.832727 73.177043 
L 73.832727 98.220522 
L 87.948142 146.304 
L 102.063557 151.312696 
L 116.178972 147.305739 
L 130.294387 139.291826 
L 144.409802 184.370087 
L 158.525217 215.424 
L 172.640632 177.357913 
L 186.756047 186.373565 
L 200.871462 178.359652 
L 214.986877 190.380522 
L 229.102292 197.392696 
L 243.217708 162.331826 
L 257.333123 155.319652 
L 271.448538 184.370087 
L 285.563953 171.347478 
L 299.679368 167.340522 
L 313.794783 167.340522 
L 327.910198 206.408348 
L 342.025613 184.370087 
L 356.141028 186.373565 
L 370.256443 178.359652 
L 384.371858 212.418783 
L 398.487273 211.417043 
L 398.487273 202.401391 
L 398.487273 202.401391 
L 384.371858 188.377043 
L 370.256443 140.293565 
L 356.141028 148.307478 
L 342.025613 154.317913 
L 327.910198 196.390957 
L 313.794783 158.32487 
L 299.679368 141.295304 
L 285.563953 157.32313 
L 271.448538 169.344 
L 257.333123 128.272696 
L 243.217708 151.312696 
L 229.102292 164.335304 
L 214.986877 153.316174 
L 200.871462 148.307478 
L 186.756047 152.314435 
L 172.640632 161.330087 
L 158.525217 196.390957 
L 144.409802 139.291826 
L 130.294387 127.270957 
L 116.178972 135.28487 
L 102.063557 133.281391 
L 87.948142 130.276174 
L 73.832727 73.177043 
z
" style="fill:#bcbd22;"/>
   </g>
   <g id="PolyCollection_10">
    <path clip-path="url(#pdb3e120ada)" d="M 73.832727 66.16487 
L 73.832727 73.177043 
L 87.948142 130.276174 
L 102.063557 133.281391 
L 116.178972 135.28487 
L 130.294387 127.270957 
L 144.409802 139.291826 
L 158.525217 196.390957 
L 172.640632 161.330087 
L 186.756047 152.314435 
L 200.871462 148.307478 
L 214.986877 153.316174 
L 229.102292 164.335304 
L 243.217708 151.312696 
L 257.333123 128.272696 
L 271.448538 169.344 
L 285.563953 157.32313 
L 299.679368 141.295304 
L 313.794783 158.32487 
L 327.910198 196.390957 
L 342.025613 154.317913 
L 356.141028 148.307478 
L 370.256443 140.293565 
L 384.371858 188.377043 
L 398.487273 202.401391 
L 398.487273 187.375304 
L 398.487273 187.375304 
L 384.371858 168.342261 
L 370.256443 120.258783 
L 356.141028 138.290087 
L 342.025613 143.298783 
L 327.910198 168.342261 
L 313.794783 132.279652 
L 299.679368 131.277913 
L 285.563953 141.295304 
L 271.448538 154.317913 
L 257.333123 117.253565 
L 243.217708 137.288348 
L 229.102292 150.310957 
L 214.986877 139.291826 
L 200.871462 141.295304 
L 186.756047 144.300522 
L 172.640632 147.305739 
L 158.525217 189.378783 
L 144.409802 118.255304 
L 130.294387 114.248348 
L 116.178972 114.248348 
L 102.063557 107.236174 
L 87.948142 99.222261 
L 73.832727 66.16487 
z
" style="fill:#17becf;"/>
   </g>
   <g id="PolyCollection_11">
    <path clip-path="url(#pdb3e120ada)" d="M 73.832727 65.16313 
L 73.832727 66.16487 
L 87.948142 99.222261 
L 102.063557 107.236174 
L 116.178972 114.248348 
L 130.294387 114.248348 
L 144.409802 118.255304 
L 158.525217 189.378783 
L 172.640632 147.305739 
L 186.756047 144.300522 
L 200.871462 141.295304 
L 214.986877 139.291826 
L 229.102292 150.310957 
L 243.217708 137.288348 
L 257.333123 117.253565 
L 271.448538 154.317913 
L 285.563953 141.295304 
L 299.679368 131.277913 
L 313.794783 132.279652 
L 327.910198 168.342261 
L 342.025613 143.298783 
L 356.141028 138.290087 
L 370.256443 120.258783 
L 384.371858 168.342261 
L 398.487273 187.375304 
L 398.487273 184.370087 
L 398.487273 184.370087 
L 384.371858 166.338783 
L 370.256443 118.255304 
L 356.141028 135.28487 
L 342.025613 141.295304 
L 327.910198 164.335304 
L 313.794783 130.276174 
L 299.679368 128.272696 
L 285.563953 137.288348 
L 271.448538 151.312696 
L 257.333123 115.250087 
L 243.217708 134.28313 
L 229.102292 148.307478 
L 214.986877 136.286609 
L 200.871462 139.291826 
L 186.756047 141.295304 
L 172.640632 145.302261 
L 158.525217 186.373565 
L 144.409802 114.248348 
L 130.294387 109.239652 
L 116.178972 107.236174 
L 102.063557 101.225739 
L 87.948142 93.211826 
L 73.832727 65.16313 
z
" style="fill:#1f77b4;"/>
   </g>
   <g id="PolyCollection_12">
    <path clip-path="url(#pdb3e120ada)" d="M 73.832727 64.161391 
L 73.832727 65.16313 
L 87.948142 93.211826 
L 102.063557 101.225739 
L 116.178972 107.236174 
L 130.294387 109.239652 
L 144.409802 114.248348 
L 158.525217 186.373565 
L 172.640632 145.302261 
L 186.756047 141.295304 
L 200.871462 139.291826 
L 214.986877 136.286609 
L 229.102292 148.307478 
L 243.217708 134.28313 
L 257.333123 115.250087 
L 271.448538 151.312696 
L 285.563953 137.288348 
L 299.679368 128.272696 
L 313.794783 130.276174 
L 327.910198 164.335304 
L 342.025613 141.295304 
L 356.141028 135.28487 
L 370.256443 118.255304 
L 384.371858 166.338783 
L 398.487273 184.370087 
L 398.487273 182.366609 
L 398.487273 182.366609 
L 384.371858 164.335304 
L 370.256443 116.251826 
L 356.141028 132.279652 
L 342.025613 138.290087 
L 327.910198 162.331826 
L 313.794783 127.270957 
L 299.679368 126.269217 
L 285.563953 134.28313 
L 271.448538 149.309217 
L 257.333123 113.246609 
L 243.217708 131.277913 
L 229.102292 146.304 
L 214.986877 133.281391 
L 200.871462 136.286609 
L 186.756047 137.288348 
L 172.640632 142.297043 
L 158.525217 182.366609 
L 144.409802 109.239652 
L 130.294387 104.230957 
L 116.178972 101.225739 
L 102.063557 98.220522 
L 87.948142 90.206609 
L 73.832727 64.161391 
z
" style="fill:#ff7f0e;"/>
   </g>
   <g id="PolyCollection_13">
    <path clip-path="url(#pdb3e120ada)" d="M 73.832727 63.159652 
L 73.832727 64.161391 
L 87.948142 90.206609 
L 102.063557 98.220522 
L 116.178972 101.225739 
L 130.294387 104.230957 
L 144.409802 109.239652 
L 158.525217 182.366609 
L 172.640632 142.297043 
L 186.756047 137.288348 
L 200.871462 136.286609 
L 214.986877 133.281391 
L 229.102292 146.304 
L 243.217708 131.277913 
L 257.333123 113.246609 
L 271.448538 149.309217 
L 285.563953 134.28313 
L 299.679368 126.269217 
L 313.794783 127.270957 
L 327.910198 162.331826 
L 342.025613 138.290087 
L 356.141028 132.279652 
L 370.256443 116.251826 
L 384.371858 164.335304 
L 398.487273 182.366609 
L 398.487273 157.32313 
L 398.487273 157.32313 
L 384.371858 137.288348 
L 370.256443 92.210087 
L 356.141028 106.234435 
L 342.025613 114.248348 
L 327.910198 118.255304 
L 313.794783 118.255304 
L 299.679368 115.250087 
L 285.563953 123.264 
L 271.448538 138.290087 
L 257.333123 101.225739 
L 243.217708 121.260522 
L 229.102292 133.281391 
L 214.986877 121.260522 
L 200.871462 126.269217 
L 186.756047 124.265739 
L 172.640632 132.279652 
L 158.525217 168.342261 
L 144.409802 94.213565 
L 130.294387 93.211826 
L 116.178972 91.208348 
L 102.063557 91.208348 
L 87.948142 85.197913 
L 73.832727 63.159652 
z
" style="fill:#2ca02c;"/>
   </g>
   <g id="PolyCollection_14">
    <path clip-path="url(#pdb3e120ada)" d="M 73.832727 62.157913 
L 73.832727 63.159652 
L 87.948142 85.197913 
L 102.063557 91.208348 
L 116.178972 91.208348 
L 130.294387 93.211826 
L 144.409802 94.213565 
L 158.525217 168.342261 
L 172.640632 132.279652 
L 186.756047 124.265739 
L 200.871462 126.269217 
L 214.986877 121.260522 
L 229.102292 133.281391 
L 243.217708 121.260522 
L 257.333123 101.225739 
L 271.448538 138.290087 
L 285.563953 123.264 
L 299.679368 115.250087 
L 313.794783 118.255304 
L 327.910198 118.255304 
L 342.025613 114.248348 
L 356.141028 106.234435 
L 370.256443 92.210087 
L 384.371858 137.288348 
L 398.487273 157.32313 
L 398.487273 145.302261 
L 398.487273 145.302261 
L 384.371858 107.236174 
L 370.256443 83.194435 
L 356.141028 87.201391 
L 342.025613 84.196174 
L 327.910198 105.232696 
L 313.794783 107.236174 
L 299.679368 103.229217 
L 285.563953 106.234435 
L 271.448538 114.248348 
L 257.333123 93.211826 
L 243.217708 91.208348 
L 229.102292 94.213565 
L 214.986877 92.210087 
L 200.871462 106.234435 
L 186.756047 110.241391 
L 172.640632 97.218783 
L 158.525217 123.264 
L 144.409802 89.20487 
L 130.294387 86.199652 
L 116.178972 85.197913 
L 102.063557 86.199652 
L 87.948142 81.190957 
L 73.832727 62.157913 
z
" style="fill:#d62728;"/>
   </g>
   <g id="PolyCollection_15">
    <path clip-path="url(#pdb3e120ada)" d="M 73.832727 61.156174 
L 73.832727 62.157913 
L 87.948142 81.190957 
L 102.063557 86.199652 
L 116.178972 85.197913 
L 130.294387 86.199652 
L 144.409802 89.20487 
L 158.525217 123.264 
L 172.640632 97.218783 
L 186.756047 110.241391 
L 200.871462 106.234435 
L 214.986877 92.210087 
L 229.102292 94.213565 
L 243.217708 91.208348 
L 257.333123 93.211826 
L 271.448538 114.248348 
L 285.563953 106.234435 
L 299.679368 103.229217 
L 313.794783 107.236174 
L 327.910198 105.232696 
L 342.025613 84.196174 
L 356.141028 87.201391 
L 370.256443 83.194435 
L 384.371858 107.236174 
L 398.487273 145.302261 
L 398.487273 72.175304 
L 398.487273 72.175304 
L 384.371858 73.177043 
L 370.256443 73.177043 
L 356.141028 80.189217 
L 342.025613 71.173565 
L 327.910198 72.175304 
L 313.794783 74.178783 
L 299.679368 70.171826 
L 285.563953 74.178783 
L 271.448538 74.178783 
L 257.333123 74.178783 
L 243.217708 75.180522 
L 229.102292 83.194435 
L 214.986877 78.185739 
L 200.871462 82.192696 
L 186.756047 74.178783 
L 172.640632 75.180522 
L 158.525217 76.182261 
L 144.409802 85.197913 
L 130.294387 80.189217 
L 116.178972 80.189217 
L 102.063557 80.189217 
L 87.948142 75.180522 
L 73.832727 61.156174 
z
" style="fill:#9467bd;"/>
   </g>
   <g id="PolyCollection_16">
    <path clip-path="url(#pdb3e120ada)" d="M 73.832727 59.152696 
L 73.832727 61.156174 
L 87.948142 75.180522 
L 102.063557 80.189217 
L 116.178972 80.189217 
L 130.294387 80.189217 
L 144.409802 85.197913 
L 158.525217 76.182261 
L 172.640632 75.180522 
L 186.756047 74.178783 
L 200.871462 82.192696 
L 214.986877 78.185739 
L 229.102292 83.194435 
L 243.217708 75.180522 
L 257.333123 74.178783 
L 271.448538 74.178783 
L 285.563953 74.178783 
L 299.679368 70.171826 
L 313.794783 74.178783 
L 327.910198 72.175304 
L 342.025613 71.173565 
L 356.141028 80.189217 
L 370.256443 73.177043 
L 384.371858 73.177043 
L 398.487273 72.175304 
L 398.487273 59.152696 
L 398.487273 59.152696 
L 384.371858 60.154435 
L 370.256443 62.157913 
L 356.141028 62.157913 
L 342.025613 61.156174 
L 327.910198 62.157913 
L 313.794783 61.156174 
L 299.679368 60.154435 
L 285.563953 62.157913 
L 271.448538 60.154435 
L 257.333123 61.156174 
L 243.217708 59.152696 
L 229.102292 65.16313 
L 214.986877 63.159652 
L 200.871462 65.16313 
L 186.756047 64.161391 
L 172.640632 64.161391 
L 158.525217 66.16487 
L 144.409802 69.170087 
L 130.294387 71.173565 
L 116.178972 71.173565 
L 102.063557 71.173565 
L 87.948142 72.175304 
L 73.832727 59.152696 
z
" style="fill:#8c564b;"/>
   </g>
   <g id="PolyCollection_17">
    <path clip-path="url(#pdb3e120ada)" d="M 73.832727 58.150957 
L 73.832727 59.152696 
L 87.948142 72.175304 
L 102.063557 71.173565 
L 116.178972 71.173565 
L 130.294387 71.173565 
L 144.409802 69.170087 
L 158.525217 66.16487 
L 172.640632 64.161391 
L 186.756047 64.161391 
L 200.871462 65.16313 
L 214.986877 63.159652 
L 229.102292 65.16313 
L 243.217708 59.152696 
L 257.333123 61.156174 
L 271.448538 60.154435 
L 285.563953 62.157913 
L 299.679368 60.154435 
L 313.794783 61.156174 
L 327.910198 62.157913 
L 342.025613 61.156174 
L 356.141028 62.157913 
L 370.256443 62.157913 
L 384.371858 60.154435 
L 398.487273 59.152696 
L 398.487273 59.152696 
L 398.487273 59.152696 
L 384.371858 57.149217 
L 370.256443 60.154435 
L 356.141028 59.152696 
L 342.025613 59.152696 
L 327.910198 60.154435 
L 313.794783 58.150957 
L 299.679368 58.150957 
L 285.563953 60.154435 
L 271.448538 58.150957 
L 257.333123 59.152696 
L 243.217708 56.147478 
L 229.102292 61.156174 
L 214.986877 60.154435 
L 200.871462 61.156174 
L 186.756047 59.152696 
L 172.640632 60.154435 
L 158.525217 63.159652 
L 144.409802 61.156174 
L 130.294387 63.159652 
L 116.178972 61.156174 
L 102.063557 63.159652 
L 87.948142 64.161391 
L 73.832727 58.150957 
z
" style="fill:#e377c2;"/>
   </g>
   <g id="PolyCollection_18">
    <path clip-path="url(#pdb3e120ada)" d="M 73.832727 57.149217 
L 73.832727 58.150957 
L 87.948142 64.161391 
L 102.063557 63.159652 
L 116.178972 61.156174 
L 130.294387 63.159652 
L 144.409802 61.156174 
L 158.525217 63.159652 
L 172.640632 60.154435 
L 186.756047 59.152696 
L 200.871462 61.156174 
L 214.986877 60.154435 
L 229.102292 61.156174 
L 243.217708 56.147478 
L 257.333123 59.152696 
L 271.448538 58.150957 
L 285.563953 60.154435 
L 299.679368 58.150957 
L 313.794783 58.150957 
L 327.910198 60.154435 
L 342.025613 59.152696 
L 356.141028 59.152696 
L 370.256443 60.154435 
L 384.371858 57.149217 
L 398.487273 59.152696 
L 398.487273 57.149217 
L 398.487273 57.149217 
L 384.371858 55.145739 
L 370.256443 57.149217 
L 356.141028 55.145739 
L 342.025613 56.147478 
L 327.910198 58.150957 
L 313.794783 55.145739 
L 299.679368 56.147478 
L 285.563953 57.149217 
L 271.448538 54.144 
L 257.333123 56.147478 
L 243.217708 54.144 
L 229.102292 58.150957 
L 214.986877 58.150957 
L 200.871462 58.150957 
L 186.756047 55.145739 
L 172.640632 55.145739 
L 158.525217 59.152696 
L 144.409802 55.145739 
L 130.294387 56.147478 
L 116.178972 56.147478 
L 102.063557 55.145739 
L 87.948142 56.147478 
L 73.832727 57.149217 
z
" style="fill:#7f7f7f;"/>
   </g>
   <g id="matplotlib.axis_1">
    <g id="xtick_1">
     <g id="line2d_1">
      <defs>
       <path d="M 0 0 
L 0 3.5 
" id="m9e79274d3e" style="stroke:#000000;stroke-width:0.8;"/>
      </defs>
      <g>
       <use style="stroke:#000000;stroke-width:0.8;" x="73.832727" xlink:href="#m9e79274d3e" y="307.584"/>
      </g>
     </g>
     <g id="text_1">
      <!-- 0 -->
      <g transform="translate(70.651477 322.182437)scale(0.1 -0.1)">
       <defs>
        <path d="M 2034 4250 
Q 1547 4250 1301 3770 
Q 1056 3291 1056 2328 
Q 1056 1369 1301 889 
Q 1547 409 2034 409 
Q 2525 409 2770 889 
Q 3016 1369 3016 2328 
Q 3016 3291 2770 3770 
Q 2525 4250 2034 4250 
z
M 2034 4750 
Q 2819 4750 3233 4129 
Q 3647 3509 3647 2328 
Q 3647 1150 3233 529 
Q 2819 -91 2034 -91 
Q 1250 -91 836 529 
Q 422 1150 422 2328 
Q 422 3509 836 4129 
Q 1250 4750 2034 4750 
z
" id="DejaVuSans-30" transform="scale(0.015625)"/>
       </defs>
       <use xlink:href="#DejaVuSans-30"/>
      </g>
     </g>
    </g>
    <g id="xtick_2">
     <g id="line2d_2">
      <g>
       <use style="stroke:#000000;stroke-width:0.8;" x="144.409802" xlink:href="#m9e79274d3e" y="307.584"/>
      </g>
     </g>
     <g id="text_2">
      <!-- 5 -->
      <g transform="translate(141.228552 322.182437)scale(0.1 -0.1)">
       <defs>
        <path d="M 691 4666 
L 3169 4666 
L 3169 4134 
L 1269 4134 
L 1269 2991 
Q 1406 3038 1543 3061 
Q 1681 3084 1819 3084 
Q 2600 3084 3056 2656 
Q 3513 2228 3513 1497 
Q 3513 744 3044 326 
Q 2575 -91 1722 -91 
Q 1428 -91 1123 -41 
Q 819 9 494 109 
L 494 744 
Q 775 591 1075 516 
Q 1375 441 1709 441 
Q 2250 441 2565 725 
Q 2881 1009 2881 1497 
Q 2881 1984 2565 2268 
Q 2250 2553 1709 2553 
Q 1456 2553 1204 2497 
Q 953 2441 691 2322 
L 691 4666 
z
" id="DejaVuSans-35" transform="scale(0.015625)"/>
       </defs>
       <use xlink:href="#DejaVuSans-35"/>
      </g>
     </g>
    </g>
    <g id="xtick_3">
     <g id="line2d_3">
      <g>
       <use style="stroke:#000000;stroke-width:0.8;" x="214.986877" xlink:href="#m9e79274d3e" y="307.584"/>
      </g>
     </g>
     <g id="text_3">
      <!-- 10 -->
      <g transform="translate(208.624377 322.182437)scale(0.1 -0.1)">
       <defs>
        <path d="M 794 531 
L 1825 531 
L 1825 4091 
L 703 3866 
L 703 4441 
L 1819 4666 
L 2450 4666 
L 2450 531 
L 3481 531 
L 3481 0 
L 794 0 
L 794 531 
z
" id="DejaVuSans-31" transform="scale(0.015625)"/>
       </defs>
       <use xlink:href="#DejaVuSans-31"/>
       <use x="63.623047" xlink:href="#DejaVuSans-30"/>
      </g>
     </g>
    </g>
    <g id="xtick_4">
     <g id="line2d_4">
      <g>
       <use style="stroke:#000000;stroke-width:0.8;" x="285.563953" xlink:href="#m9e79274d3e" y="307.584"/>
      </g>
     </g>
     <g id="text_4">
      <!-- 15 -->
      <g transform="translate(279.201453 322.182437)scale(0.1 -0.1)">
       <use xlink:href="#DejaVuSans-31"/>
       <use x="63.623047" xlink:href="#DejaVuSans-35"/>
      </g>
     </g>
    </g>
    <g id="xtick_5">
     <g id="line2d_5">
      <g>
       <use style="stroke:#000000;stroke-width:0.8;" x="356.141028" xlink:href="#m9e79274d3e" y="307.584"/>
      </g>
     </g>
     <g id="text_5">
      <!-- 20 -->
      <g transform="translate(349.778528 322.182437)scale(0.1 -0.1)">
       <defs>
        <path d="M 1228 531 
L 3431 531 
L 3431 0 
L 469 0 
L 469 531 
Q 828 903 1448 1529 
Q 2069 2156 2228 2338 
Q 2531 2678 2651 2914 
Q 2772 3150 2772 3378 
Q 2772 3750 2511 3984 
Q 2250 4219 1831 4219 
Q 1534 4219 1204 4116 
Q 875 4013 500 3803 
L 500 4441 
Q 881 4594 1212 4672 
Q 1544 4750 1819 4750 
Q 2544 4750 2975 4387 
Q 3406 4025 3406 3419 
Q 3406 3131 3298 2873 
Q 3191 2616 2906 2266 
Q 2828 2175 2409 1742 
Q 1991 1309 1228 531 
z
" id="DejaVuSans-32" transform="scale(0.015625)"/>
       </defs>
       <use xlink:href="#DejaVuSans-32"/>
       <use x="63.623047" xlink:href="#DejaVuSans-30"/>
      </g>
     </g>
    </g>
    <g id="text_6">
     <!-- Generations -->
     <g transform="translate(205.662344 335.860562)scale(0.1 -0.1)">
      <defs>
       <path d="M 3809 666 
L 3809 1919 
L 2778 1919 
L 2778 2438 
L 4434 2438 
L 4434 434 
Q 4069 175 3628 42 
Q 3188 -91 2688 -91 
Q 1594 -91 976 548 
Q 359 1188 359 2328 
Q 359 3472 976 4111 
Q 1594 4750 2688 4750 
Q 3144 4750 3555 4637 
Q 3966 4525 4313 4306 
L 4313 3634 
Q 3963 3931 3569 4081 
Q 3175 4231 2741 4231 
Q 1884 4231 1454 3753 
Q 1025 3275 1025 2328 
Q 1025 1384 1454 906 
Q 1884 428 2741 428 
Q 3075 428 3337 486 
Q 3600 544 3809 666 
z
" id="DejaVuSans-47" transform="scale(0.015625)"/>
       <path d="M 3597 1894 
L 3597 1613 
L 953 1613 
Q 991 1019 1311 708 
Q 1631 397 2203 397 
Q 2534 397 2845 478 
Q 3156 559 3463 722 
L 3463 178 
Q 3153 47 2828 -22 
Q 2503 -91 2169 -91 
Q 1331 -91 842 396 
Q 353 884 353 1716 
Q 353 2575 817 3079 
Q 1281 3584 2069 3584 
Q 2775 3584 3186 3129 
Q 3597 2675 3597 1894 
z
M 3022 2063 
Q 3016 2534 2758 2815 
Q 2500 3097 2075 3097 
Q 1594 3097 1305 2825 
Q 1016 2553 972 2059 
L 3022 2063 
z
" id="DejaVuSans-65" transform="scale(0.015625)"/>
       <path d="M 3513 2113 
L 3513 0 
L 2938 0 
L 2938 2094 
Q 2938 2591 2744 2837 
Q 2550 3084 2163 3084 
Q 1697 3084 1428 2787 
Q 1159 2491 1159 1978 
L 1159 0 
L 581 0 
L 581 3500 
L 1159 3500 
L 1159 2956 
Q 1366 3272 1645 3428 
Q 1925 3584 2291 3584 
Q 2894 3584 3203 3211 
Q 3513 2838 3513 2113 
z
" id="DejaVuSans-6e" transform="scale(0.015625)"/>
       <path d="M 2631 2963 
Q 2534 3019 2420 3045 
Q 2306 3072 2169 3072 
Q 1681 3072 1420 2755 
Q 1159 2438 1159 1844 
L 1159 0 
L 581 0 
L 581 3500 
L 1159 3500 
L 1159 2956 
Q 1341 3275 1631 3429 
Q 1922 3584 2338 3584 
Q 2397 3584 2469 3576 
Q 2541 3569 2628 3553 
L 2631 2963 
z
" id="DejaVuSans-72" transform="scale(0.015625)"/>
       <path d="M 2194 1759 
Q 1497 1759 1228 1600 
Q 959 1441 959 1056 
Q 959 750 1161 570 
Q 1363 391 1709 391 
Q 2188 391 2477 730 
Q 2766 1069 2766 1631 
L 2766 1759 
L 2194 1759 
z
M 3341 1997 
L 3341 0 
L 2766 0 
L 2766 531 
Q 2569 213 2275 61 
Q 1981 -91 1556 -91 
Q 1019 -91 701 211 
Q 384 513 384 1019 
Q 384 1609 779 1909 
Q 1175 2209 1959 2209 
L 2766 2209 
L 2766 2266 
Q 2766 2663 2505 2880 
Q 2244 3097 1772 3097 
Q 1472 3097 1187 3025 
Q 903 2953 641 2809 
L 641 3341 
Q 956 3463 1253 3523 
Q 1550 3584 1831 3584 
Q 2591 3584 2966 3190 
Q 3341 2797 3341 1997 
z
" id="DejaVuSans-61" transform="scale(0.015625)"/>
       <path d="M 1172 4494 
L 1172 3500 
L 2356 3500 
L 2356 3053 
L 1172 3053 
L 1172 1153 
Q 1172 725 1289 603 
Q 1406 481 1766 481 
L 2356 481 
L 2356 0 
L 1766 0 
Q 1100 0 847 248 
Q 594 497 594 1153 
L 594 3053 
L 172 3053 
L 172 3500 
L 594 3500 
L 594 4494 
L 1172 4494 
z
" id="DejaVuSans-74" transform="scale(0.015625)"/>
       <path d="M 603 3500 
L 1178 3500 
L 1178 0 
L 603 0 
L 603 3500 
z
M 603 4863 
L 1178 4863 
L 1178 4134 
L 603 4134 
L 603 4863 
z
" id="DejaVuSans-69" transform="scale(0.015625)"/>
       <path d="M 1959 3097 
Q 1497 3097 1228 2736 
Q 959 2375 959 1747 
Q 959 1119 1226 758 
Q 1494 397 1959 397 
Q 2419 397 2687 759 
Q 2956 1122 2956 1747 
Q 2956 2369 2687 2733 
Q 2419 3097 1959 3097 
z
M 1959 3584 
Q 2709 3584 3137 3096 
Q 3566 2609 3566 1747 
Q 3566 888 3137 398 
Q 2709 -91 1959 -91 
Q 1206 -91 779 398 
Q 353 888 353 1747 
Q 353 2609 779 3096 
Q 1206 3584 1959 3584 
z
" id="DejaVuSans-6f" transform="scale(0.015625)"/>
       <path d="M 2834 3397 
L 2834 2853 
Q 2591 2978 2328 3040 
Q 2066 3103 1784 3103 
Q 1356 3103 1142 2972 
Q 928 2841 928 2578 
Q 928 2378 1081 2264 
Q 1234 2150 1697 2047 
L 1894 2003 
Q 2506 1872 2764 1633 
Q 3022 1394 3022 966 
Q 3022 478 2636 193 
Q 2250 -91 1575 -91 
Q 1294 -91 989 -36 
Q 684 19 347 128 
L 347 722 
Q 666 556 975 473 
Q 1284 391 1588 391 
Q 1994 391 2212 530 
Q 2431 669 2431 922 
Q 2431 1156 2273 1281 
Q 2116 1406 1581 1522 
L 1381 1569 
Q 847 1681 609 1914 
Q 372 2147 372 2553 
Q 372 3047 722 3315 
Q 1072 3584 1716 3584 
Q 2034 3584 2315 3537 
Q 2597 3491 2834 3397 
z
" id="DejaVuSans-73" transform="scale(0.015625)"/>
      </defs>
      <use xlink:href="#DejaVuSans-47"/>
      <use x="77.490234" xlink:href="#DejaVuSans-65"/>
      <use x="139.013672" xlink:href="#DejaVuSans-6e"/>
      <use x="202.392578" xlink:href="#DejaVuSans-65"/>
      <use x="263.916016" xlink:href="#DejaVuSans-72"/>
      <use x="305.029297" xlink:href="#DejaVuSans-61"/>
      <use x="366.308594" xlink:href="#DejaVuSans-74"/>
      <use x="405.517578" xlink:href="#DejaVuSans-69"/>
      <use x="433.300781" xlink:href="#DejaVuSans-6f"/>
      <use x="494.482422" xlink:href="#DejaVuSans-6e"/>
      <use x="557.861328" xlink:href="#DejaVuSans-73"/>
     </g>
    </g>
   </g>
   <g id="matplotlib.axis_2">
    <g id="ytick_1">
     <g id="line2d_6">
      <defs>
       <path d="M 0 0 
L -3.5 0 
" id="m17a70ce3c6" style="stroke:#000000;stroke-width:0.8;"/>
      </defs>
      <g>
       <use style="stroke:#000000;stroke-width:0.8;" x="57.6" xlink:href="#m17a70ce3c6" y="307.584"/>
      </g>
     </g>
     <g id="text_7">
      <!-- 0 -->
      <g transform="translate(44.2375 311.383219)scale(0.1 -0.1)">
       <use xlink:href="#DejaVuSans-30"/>
      </g>
     </g>
    </g>
    <g id="ytick_2">
     <g id="line2d_7">
      <g>
       <use style="stroke:#000000;stroke-width:0.8;" x="57.6" xlink:href="#m17a70ce3c6" y="257.497043"/>
      </g>
     </g>
     <g id="text_8">
      <!-- 50 -->
      <g transform="translate(37.875 261.296262)scale(0.1 -0.1)">
       <use xlink:href="#DejaVuSans-35"/>
       <use x="63.623047" xlink:href="#DejaVuSans-30"/>
      </g>
     </g>
    </g>
    <g id="ytick_3">
     <g id="line2d_8">
      <g>
       <use style="stroke:#000000;stroke-width:0.8;" x="57.6" xlink:href="#m17a70ce3c6" y="207.410087"/>
      </g>
     </g>
     <g id="text_9">
      <!-- 100 -->
      <g transform="translate(31.5125 211.209306)scale(0.1 -0.1)">
       <use xlink:href="#DejaVuSans-31"/>
       <use x="63.623047" xlink:href="#DejaVuSans-30"/>
       <use x="127.246094" xlink:href="#DejaVuSans-30"/>
      </g>
     </g>
    </g>
    <g id="ytick_4">
     <g id="line2d_9">
      <g>
       <use style="stroke:#000000;stroke-width:0.8;" x="57.6" xlink:href="#m17a70ce3c6" y="157.32313"/>
      </g>
     </g>
     <g id="text_10">
      <!-- 150 -->
      <g transform="translate(31.5125 161.122349)scale(0.1 -0.1)">
       <use xlink:href="#DejaVuSans-31"/>
       <use x="63.623047" xlink:href="#DejaVuSans-35"/>
       <use x="127.246094" xlink:href="#DejaVuSans-30"/>
      </g>
     </g>
    </g>
    <g id="ytick_5">
     <g id="line2d_10">
      <g>
       <use style="stroke:#000000;stroke-width:0.8;" x="57.6" xlink:href="#m17a70ce3c6" y="107.236174"/>
      </g>
     </g>
     <g id="text_11">
      <!-- 200 -->
      <g transform="translate(31.5125 111.035393)scale(0.1 -0.1)">
       <use xlink:href="#DejaVuSans-32"/>
       <use x="63.623047" xlink:href="#DejaVuSans-30"/>
       <use x="127.246094" xlink:href="#DejaVuSans-30"/>
      </g>
     </g>
    </g>
    <g id="ytick_6">
     <g id="line2d_11">
      <g>
       <use style="stroke:#000000;stroke-width:0.8;" x="57.6" xlink:href="#m17a70ce3c6" y="57.149217"/>
      </g>
     </g>
     <g id="text_12">
      <!-- 250 -->
      <g transform="translate(31.5125 60.948436)scale(0.1 -0.1)">
       <use xlink:href="#DejaVuSans-32"/>
       <use x="63.623047" xlink:href="#DejaVuSans-35"/>
       <use x="127.246094" xlink:href="#DejaVuSans-30"/>
      </g>
     </g>
    </g>
    <g id="text_13">
     <!-- Size per Species -->
     <g transform="translate(25.432812 215.520969)rotate(-90)scale(0.1 -0.1)">
      <defs>
       <path d="M 3425 4513 
L 3425 3897 
Q 3066 4069 2747 4153 
Q 2428 4238 2131 4238 
Q 1616 4238 1336 4038 
Q 1056 3838 1056 3469 
Q 1056 3159 1242 3001 
Q 1428 2844 1947 2747 
L 2328 2669 
Q 3034 2534 3370 2195 
Q 3706 1856 3706 1288 
Q 3706 609 3251 259 
Q 2797 -91 1919 -91 
Q 1588 -91 1214 -16 
Q 841 59 441 206 
L 441 856 
Q 825 641 1194 531 
Q 1563 422 1919 422 
Q 2459 422 2753 634 
Q 3047 847 3047 1241 
Q 3047 1584 2836 1778 
Q 2625 1972 2144 2069 
L 1759 2144 
Q 1053 2284 737 2584 
Q 422 2884 422 3419 
Q 422 4038 858 4394 
Q 1294 4750 2059 4750 
Q 2388 4750 2728 4690 
Q 3069 4631 3425 4513 
z
" id="DejaVuSans-53" transform="scale(0.015625)"/>
       <path d="M 353 3500 
L 3084 3500 
L 3084 2975 
L 922 459 
L 3084 459 
L 3084 0 
L 275 0 
L 275 525 
L 2438 3041 
L 353 3041 
L 353 3500 
z
" id="DejaVuSans-7a" transform="scale(0.015625)"/>
       <path id="DejaVuSans-20" transform="scale(0.015625)"/>
       <path d="M 1159 525 
L 1159 -1331 
L 581 -1331 
L 581 3500 
L 1159 3500 
L 1159 2969 
Q 1341 3281 1617 3432 
Q 1894 3584 2278 3584 
Q 2916 3584 3314 3078 
Q 3713 2572 3713 1747 
Q 3713 922 3314 415 
Q 2916 -91 2278 -91 
Q 1894 -91 1617 61 
Q 1341 213 1159 525 
z
M 3116 1747 
Q 3116 2381 2855 2742 
Q 2594 3103 2138 3103 
Q 1681 3103 1420 2742 
Q 1159 2381 1159 1747 
Q 1159 1113 1420 752 
Q 1681 391 2138 391 
Q 2594 391 2855 752 
Q 3116 1113 3116 1747 
z
" id="DejaVuSans-70" transform="scale(0.015625)"/>
       <path d="M 3122 3366 
L 3122 2828 
Q 2878 2963 2633 3030 
Q 2388 3097 2138 3097 
Q 1578 3097 1268 2742 
Q 959 2388 959 1747 
Q 959 1106 1268 751 
Q 1578 397 2138 397 
Q 2388 397 2633 464 
Q 2878 531 3122 666 
L 3122 134 
Q 2881 22 2623 -34 
Q 2366 -91 2075 -91 
Q 1284 -91 818 406 
Q 353 903 353 1747 
Q 353 2603 823 3093 
Q 1294 3584 2113 3584 
Q 2378 3584 2631 3529 
Q 2884 3475 3122 3366 
z
" id="DejaVuSans-63" transform="scale(0.015625)"/>
      </defs>
      <use xlink:href="#DejaVuSans-53"/>
      <use x="63.476562" xlink:href="#DejaVuSans-69"/>
      <use x="91.259766" xlink:href="#DejaVuSans-7a"/>
      <use x="143.75" xlink:href="#DejaVuSans-65"/>
      <use x="205.273438" xlink:href="#DejaVuSans-20"/>
      <use x="237.060547" xlink:href="#DejaVuSans-70"/>
      <use x="300.537109" xlink:href="#DejaVuSans-65"/>
      <use x="362.060547" xlink:href="#DejaVuSans-72"/>
      <use x="403.173828" xlink:href="#DejaVuSans-20"/>
      <use x="434.960938" xlink:href="#DejaVuSans-53"/>
      <use x="498.4375" xlink:href="#DejaVuSans-70"/>
      <use x="561.914062" xlink:href="#DejaVuSans-65"/>
      <use x="623.4375" xlink:href="#DejaVuSans-63"/>
      <use x="678.417969" xlink:href="#DejaVuSans-69"/>
      <use x="706.201172" xlink:href="#DejaVuSans-65"/>
      <use x="767.724609" xlink:href="#DejaVuSans-73"/>
     </g>
    </g>
   </g>
   <g id="patch_3">
    <path d="M 57.6 307.584 
L 57.6 41.472 
" style="fill:none;stroke:#000000;stroke-linecap:square;stroke-linejoin:miter;stroke-width:0.8;"/>
   </g>
   <g id="patch_4">
    <path d="M 414.72 307.584 
L 414.72 41.472 
" style="fill:none;stroke:#000000;stroke-linecap:square;stroke-linejoin:miter;stroke-width:0.8;"/>
   </g>
   <g id="patch_5">
    <path d="M 57.6 307.584 
L 414.72 307.584 
" style="fill:none;stroke:#000000;stroke-linecap:square;stroke-linejoin:miter;stroke-width:0.8;"/>
   </g>
   <g id="patch_6">
    <path d="M 57.6 41.472 
L 414.72 41.472 
" style="fill:none;stroke:#000000;stroke-linecap:square;stroke-linejoin:miter;stroke-width:0.8;"/>
   </g>
   <g id="text_14">
    <!-- Speciation -->
    <g transform="translate(204.714375 35.472)scale(0.12 -0.12)">
     <use xlink:href="#DejaVuSans-53"/>
     <use x="63.476562" xlink:href="#DejaVuSans-70"/>
     <use x="126.953125" xlink:href="#DejaVuSans-65"/>
     <use x="188.476562" xlink:href="#DejaVuSans-63"/>
     <use x="243.457031" xlink:href="#DejaVuSans-69"/>
     <use x="271.240234" xlink:href="#DejaVuSans-61"/>
     <use x="332.519531" xlink:href="#DejaVuSans-74"/>
     <use x="371.728516" xlink:href="#DejaVuSans-69"/>
     <use x="399.511719" xlink:href="#DejaVuSans-6f"/>
     <use x="460.693359" xlink:href="#DejaVuSans-6e"/>
    </g>
   </g>
  </g>
 </g>
 <defs>
  <clipPath id="pdb3e120ada">
   <rect height="266.112" width="357.12" x="57.6" y="41.472"/>
  </clipPath>
 </defs>
</svg>
