<?xml version="1.0" encoding="UTF-8" standalone="no"?>
<!DOCTYPE svg PUBLIC "-//W3C//DTD SVG 1.1//EN"
 "http://www.w3.org/Graphics/SVG/1.1/DTD/svg11.dtd">
<!-- Generated by graphviz version 2.48.0 (20210717.1556)
 -->
<!-- Pages: 1 -->
<svg width="182pt" height="121pt"
 viewBox="0.00 0.00 181.50 121.40" xmlns="http://www.w3.org/2000/svg" xmlns:xlink="http://www.w3.org/1999/xlink">
<g id="graph0" class="graph" transform="scale(1 1) rotate(0) translate(4 117.4)">
<polygon fill="white" stroke="transparent" points="-4,4 -4,-117.4 177.5,-117.4 177.5,4 -4,4"/>
<!-- x -->
<g id="node1" class="node">
<title>x</title>
<polygon fill="lightgray" stroke="black" points="20,-113.4 0,-113.4 0,-95.4 20,-95.4 20,-113.4"/>
<text text-anchor="middle" x="10" y="-102.2" font-family="Times New Roman,serif" font-size="9.00">x</text>
</g>
<!-- control -->
<g id="node5" class="node">
<title>control</title>
<ellipse fill="lightblue" stroke="black" cx="75" cy="-29.7" rx="29.9" ry="29.9"/>
<text text-anchor="middle" x="75" y="-27.5" font-family="Times New Roman,serif" font-size="9.00">control</text>
</g>
<!-- x&#45;&gt;control -->
<g id="edge4" class="edge">
<title>x&#45;&gt;control</title>
<path fill="none" stroke="green" stroke-width="0.18" d="M17.2,-95.34C24.81,-86.83 37.27,-72.9 48.67,-60.15"/>
<polygon fill="green" stroke="green" stroke-width="0.18" points="51.52,-62.21 55.58,-52.42 46.3,-57.54 51.52,-62.21"/>
</g>
<!-- dx -->
<g id="node2" class="node">
<title>dx</title>
<polygon fill="lightgray" stroke="black" points="63.5,-113.4 38.5,-113.4 38.5,-95.4 63.5,-95.4 63.5,-113.4"/>
<text text-anchor="middle" x="51" y="-102.2" font-family="Times New Roman,serif" font-size="9.00">dx</text>
</g>
<!-- dx&#45;&gt;control -->
<g id="edge1" class="edge">
<title>dx&#45;&gt;control</title>
<path fill="none" stroke="green" stroke-width="0.27" d="M53.66,-95.34C55.92,-88.49 59.34,-78.13 62.78,-67.7"/>
<polygon fill="green" stroke="green" stroke-width="0.27" points="66.11,-68.8 65.92,-58.2 59.46,-66.6 66.11,-68.8"/>
</g>
<!-- theta -->
<g id="node3" class="node">
<title>theta</title>
<polygon fill="lightgray" stroke="black" points="116.5,-113.4 81.5,-113.4 81.5,-95.4 116.5,-95.4 116.5,-113.4"/>
<text text-anchor="middle" x="99" y="-102.2" font-family="Times New Roman,serif" font-size="9.00">theta</text>
</g>
<!-- theta&#45;&gt;control -->
<g id="edge2" class="edge">
<title>theta&#45;&gt;control</title>
<path fill="none" stroke="green" stroke-width="0.5" d="M96.34,-95.34C94.08,-88.49 90.66,-78.13 87.22,-67.7"/>
<polygon fill="green" stroke="green" stroke-width="0.5" points="90.54,-66.6 84.08,-58.2 83.89,-68.8 90.54,-66.6"/>
</g>
<!-- dtheta -->
<g id="node4" class="node">
<title>dtheta</title>
<polygon fill="lightgray" stroke="black" points="173.5,-113.4 134.5,-113.4 134.5,-95.4 173.5,-95.4 173.5,-113.4"/>
<text text-anchor="middle" x="154" y="-102.2" font-family="Times New Roman,serif" font-size="9.00">dtheta</text>
</g>
<!-- dtheta&#45;&gt;control -->
<g id="edge3" class="edge">
<title>dtheta&#45;&gt;control</title>
<path fill="none" stroke="green" stroke-width="0.46" d="M145.24,-95.34C135.32,-86.21 118.63,-70.85 104.01,-57.39"/>
<polygon fill="green" stroke="green" stroke-width="0.46" points="106.32,-54.77 96.6,-50.57 101.58,-59.92 106.32,-54.77"/>
</g>
</g>
</svg>
