<?xml version="1.0" encoding="UTF-8" standalone="no"?>
<!DOCTYPE svg PUBLIC "-//W3C//DTD SVG 1.1//EN"
 "http://www.w3.org/Graphics/SVG/1.1/DTD/svg11.dtd">
<!-- Generated by graphviz version 2.49.2 (20211016.1639)
 -->
<!-- Pages: 1 -->
<svg width="182pt" height="121pt"
 viewBox="0.00 0.00 181.50 121.40" xmlns="http://www.w3.org/2000/svg" xmlns:xlink="http://www.w3.org/1999/xlink">
<g id="graph0" class="graph" transform="scale(1 1) rotate(0) translate(4 117.4)">
<polygon fill="white" stroke="transparent" points="-4,4 -4,-117.4 177.5,-117.4 177.5,4 -4,4"/>
<!-- x -->
<g id="node1" class="node">
<title>x</title>
<polygon fill="lightgray" stroke="black" points="21,-113.4 0,-113.4 0,-95.4 21,-95.4 21,-113.4"/>
<text text-anchor="middle" x="10.5" y="-102.2" font-family="Times,serif" font-size="9.00">x</text>
</g>
<!-- dx -->
<g id="node2" class="node">
<title>dx</title>
<polygon fill="lightgray" stroke="black" points="65.5,-113.4 39.5,-113.4 39.5,-95.4 65.5,-95.4 65.5,-113.4"/>
<text text-anchor="middle" x="52.5" y="-102.2" font-family="Times,serif" font-size="9.00">dx</text>
</g>
<!-- control -->
<g id="node5" class="node">
<title>control</title>
<ellipse fill="lightblue" stroke="black" cx="100.5" cy="-29.7" rx="29.9" ry="29.9"/>
<text text-anchor="middle" x="100.5" y="-27.5" font-family="Times,serif" font-size="9.00">control</text>
</g>
<!-- dx&#45;&gt;control -->
<g id="edge3" class="edge">
<title>dx&#45;&gt;control</title>
<path fill="none" stroke="green" stroke-width="0.37" d="M57.82,-95.34C62.97,-87.55 71.11,-75.21 78.91,-63.39"/>
<polygon fill="green" stroke="green" stroke-width="0.37" points="81.9,-65.23 84.48,-54.95 76.05,-61.37 81.9,-65.23"/>
</g>
<!-- theta -->
<g id="node3" class="node">
<title>theta</title>
<polygon fill="lightgray" stroke="black" points="117.5,-113.4 83.5,-113.4 83.5,-95.4 117.5,-95.4 117.5,-113.4"/>
<text text-anchor="middle" x="100.5" y="-102.2" font-family="Times,serif" font-size="9.00">theta</text>
</g>
<!-- theta&#45;&gt;control -->
<g id="edge1" class="edge">
<title>theta&#45;&gt;control</title>
<path fill="none" stroke="green" stroke-width="0.4" d="M100.5,-95.34C100.5,-88.92 100.5,-79.42 100.5,-69.66"/>
<polygon fill="green" stroke="green" stroke-width="0.4" points="104,-69.52 100.5,-59.52 97,-69.52 104,-69.52"/>
</g>
<!-- dtheta -->
<g id="node4" class="node">
<title>dtheta</title>
<polygon fill="lightgray" stroke="black" points="173.5,-113.4 135.5,-113.4 135.5,-95.4 173.5,-95.4 173.5,-113.4"/>
<text text-anchor="middle" x="154.5" y="-102.2" font-family="Times,serif" font-size="9.00">dtheta</text>
</g>
<!-- dtheta&#45;&gt;control -->
<g id="edge2" class="edge">
<title>dtheta&#45;&gt;control</title>
<path fill="none" stroke="green" stroke-width="0.62" d="M148.51,-95.34C142.54,-87.29 132.96,-74.39 123.92,-62.23"/>
<polygon fill="green" stroke="green" stroke-width="0.62" points="126.58,-59.94 117.81,-54 120.96,-64.11 126.58,-59.94"/>
</g>
</g>
</svg>
