<?xml version="1.0" encoding="UTF-8" standalone="no"?>
<!DOCTYPE svg PUBLIC "-//W3C//DTD SVG 1.1//EN"
 "http://www.w3.org/Graphics/SVG/1.1/DTD/svg11.dtd">
<!-- Generated by graphviz version 2.48.0 (20210717.1556)
 -->
<!-- Pages: 1 -->
<svg width="349pt" height="371pt"
 viewBox="0.00 0.00 349.49 370.82" xmlns="http://www.w3.org/2000/svg" xmlns:xlink="http://www.w3.org/1999/xlink">
<g id="graph0" class="graph" transform="scale(1 1) rotate(0) translate(4 366.82)">
<polygon fill="white" stroke="transparent" points="-4,4 -4,-366.82 345.49,-366.82 345.49,4 -4,4"/>
<!-- x -->
<g id="node1" class="node">
<title>x</title>
<polygon fill="lightgray" stroke="black" points="70.99,-362.82 50.99,-362.82 50.99,-344.82 70.99,-344.82 70.99,-362.82"/>
<text text-anchor="middle" x="60.99" y="-351.62" font-family="Times New Roman,serif" font-size="9.00">x</text>
</g>
<!-- control -->
<g id="node5" class="node">
<title>control</title>
<ellipse fill="lightblue" stroke="black" cx="167.99" cy="-29.7" rx="29.9" ry="29.9"/>
<text text-anchor="middle" x="167.99" y="-27.5" font-family="Times New Roman,serif" font-size="9.00">control</text>
</g>
<!-- x&#45;&gt;control -->
<g id="edge5" class="edge">
<title>x&#45;&gt;control</title>
<path fill="none" stroke="green" stroke-width="0.59" d="M50.73,-345.8C40.48,-338.1 25.35,-324.7 18.99,-308.82 -16.94,-219.16 -0.28,-170.88 59.99,-95.4 78.44,-72.28 107.57,-55.52 130.93,-44.86"/>
<polygon fill="green" stroke="green" stroke-width="0.59" points="132.45,-48.01 140.21,-40.8 129.65,-41.6 132.45,-48.01"/>
</g>
<!-- 514 -->
<g id="node7" class="node">
<title>514</title>
<ellipse fill="white" stroke="black" cx="61.99" cy="-202.11" rx="21.43" ry="21.43"/>
<text text-anchor="middle" x="61.99" y="-199.91" font-family="Times New Roman,serif" font-size="9.00">514</text>
</g>
<!-- x&#45;&gt;514 -->
<g id="edge6" class="edge">
<title>x&#45;&gt;514</title>
<path fill="none" stroke="green" stroke-width="0.25" stroke-dasharray="1,5" d="M52.02,-344.76C43.71,-336.63 31.91,-323.25 26.99,-308.82 19.88,-288 20.94,-280.47 26.99,-259.32 30.19,-248.1 36.36,-236.93 42.64,-227.55"/>
<polygon fill="green" stroke="green" stroke-width="0.25" points="45.67,-229.33 48.6,-219.15 39.96,-225.28 45.67,-229.33"/>
</g>
<!-- 1556 -->
<g id="node9" class="node">
<title>1556</title>
<ellipse fill="white" stroke="black" cx="180.99" cy="-284.07" rx="25" ry="25"/>
<text text-anchor="middle" x="180.99" y="-281.87" font-family="Times New Roman,serif" font-size="9.00">1556</text>
</g>
<!-- x&#45;&gt;1556 -->
<g id="edge13" class="edge">
<title>x&#45;&gt;1556</title>
<path fill="none" stroke="red" stroke-width="0.21" d="M71.17,-348.29C87.71,-340.82 121.23,-325.08 147.99,-308.82 149.66,-307.8 151.36,-306.73 153.06,-305.62"/>
<polygon fill="red" stroke="red" stroke-width="0.21" points="155.15,-308.43 161.43,-299.9 151.2,-302.65 155.15,-308.43"/>
</g>
<!-- 1881 -->
<g id="node10" class="node">
<title>1881</title>
<ellipse fill="white" stroke="black" cx="60.99" cy="-284.07" rx="25" ry="25"/>
<text text-anchor="middle" x="60.99" y="-281.87" font-family="Times New Roman,serif" font-size="9.00">1881</text>
</g>
<!-- x&#45;&gt;1881 -->
<g id="edge16" class="edge">
<title>x&#45;&gt;1881</title>
<path fill="none" stroke="red" stroke-width="0.3" d="M60.99,-344.78C60.99,-338.35 60.99,-328.85 60.99,-319.31"/>
<polygon fill="red" stroke="red" stroke-width="0.3" points="64.49,-319.09 60.99,-309.09 57.49,-319.09 64.49,-319.09"/>
</g>
<!-- 190 -->
<g id="node11" class="node">
<title>190</title>
<ellipse fill="white" stroke="black" cx="220.99" cy="-202.11" rx="21.43" ry="21.43"/>
<text text-anchor="middle" x="220.99" y="-199.91" font-family="Times New Roman,serif" font-size="9.00">190</text>
</g>
<!-- x&#45;&gt;190 -->
<g id="edge1" class="edge">
<title>x&#45;&gt;190</title>
<path fill="none" stroke="green" stroke-width="0.2" stroke-dasharray="1,5" d="M70.99,-351.47C102.16,-347.05 196.49,-331.95 214.99,-308.82 231.81,-287.78 231.34,-256.18 227.86,-233.01"/>
<polygon fill="green" stroke="green" stroke-width="0.2" points="231.28,-232.27 226.1,-223.03 224.39,-233.49 231.28,-232.27"/>
</g>
<!-- dx -->
<g id="node2" class="node">
<title>dx</title>
<polygon fill="lightgray" stroke="black" points="287.49,-293.07 262.49,-293.07 262.49,-275.07 287.49,-275.07 287.49,-293.07"/>
<text text-anchor="middle" x="274.99" y="-281.87" font-family="Times New Roman,serif" font-size="9.00">dx</text>
</g>
<!-- dx&#45;&gt;control -->
<g id="edge8" class="edge">
<title>dx&#45;&gt;control</title>
<path fill="none" stroke="green" stroke-width="0.39" d="M276.3,-274.88C280.28,-247.37 289.91,-156.58 254.99,-95.4 243.28,-74.89 222.15,-58.94 203.64,-48.01"/>
<polygon fill="green" stroke="green" stroke-width="0.39" points="205.25,-44.9 194.82,-43.05 201.82,-51 205.25,-44.9"/>
</g>
<!-- dx&#45;&gt;190 -->
<g id="edge4" class="edge">
<title>dx&#45;&gt;190</title>
<path fill="none" stroke="red" stroke-width="0.16" d="M269.41,-274.81C262.09,-263.97 248.9,-244.45 238.14,-228.5"/>
<polygon fill="red" stroke="red" stroke-width="0.16" points="240.95,-226.42 232.46,-220.09 235.15,-230.34 240.95,-226.42"/>
</g>
<!-- theta -->
<g id="node3" class="node">
<title>theta</title>
<polygon fill="lightgray" stroke="black" points="138.49,-293.07 103.49,-293.07 103.49,-275.07 138.49,-275.07 138.49,-293.07"/>
<text text-anchor="middle" x="120.99" y="-281.87" font-family="Times New Roman,serif" font-size="9.00">theta</text>
</g>
<!-- theta&#45;&gt;514 -->
<g id="edge15" class="edge">
<title>theta&#45;&gt;514</title>
<path fill="none" stroke="red" stroke-width="0.48" d="M114.89,-274.81C106.84,-263.91 92.31,-244.2 80.51,-228.21"/>
<polygon fill="red" stroke="red" stroke-width="0.48" points="83.04,-225.75 74.29,-219.78 77.41,-229.91 83.04,-225.75"/>
</g>
<!-- dtheta -->
<g id="node4" class="node">
<title>dtheta</title>
<polygon fill="lightgray" stroke="black" points="341.49,-129.15 302.49,-129.15 302.49,-111.15 341.49,-111.15 341.49,-129.15"/>
<text text-anchor="middle" x="321.99" y="-117.95" font-family="Times New Roman,serif" font-size="9.00">dtheta</text>
</g>
<!-- dtheta&#45;&gt;control -->
<g id="edge3" class="edge">
<title>dtheta&#45;&gt;control</title>
<path fill="none" stroke="green" stroke-width="0.74" d="M311.18,-111.12C304.6,-106.35 295.95,-100.31 287.99,-95.4 260.23,-78.3 227.61,-60.88 203.39,-48.42"/>
<polygon fill="green" stroke="green" stroke-width="0.74" points="204.72,-45.17 194.22,-43.74 201.53,-51.4 204.72,-45.17"/>
</g>
<!-- 1249 -->
<g id="node6" class="node">
<title>1249</title>
<ellipse fill="white" stroke="black" cx="220.99" cy="-120.15" rx="25" ry="25"/>
<text text-anchor="middle" x="220.99" y="-117.95" font-family="Times New Roman,serif" font-size="9.00">1249</text>
</g>
<!-- 1249&#45;&gt;control -->
<g id="edge11" class="edge">
<title>1249&#45;&gt;control</title>
<path fill="none" stroke="green" stroke-width="0.3" d="M208.69,-98.63C202.55,-88.38 194.97,-75.72 188.01,-64.12"/>
<polygon fill="green" stroke="green" stroke-width="0.3" points="191,-62.29 182.85,-55.51 184.99,-65.89 191,-62.29"/>
</g>
<!-- 514&#45;&gt;control -->
<g id="edge7" class="edge">
<title>514&#45;&gt;control</title>
<path fill="none" stroke="red" stroke-width="0.58" d="M61.34,-180.85C61.54,-158.35 64.69,-121.71 80.99,-95.4 93.34,-75.46 114.28,-59.6 132.52,-48.58"/>
<polygon fill="red" stroke="red" stroke-width="0.58" points="134.3,-51.59 141.21,-43.55 130.8,-45.53 134.3,-51.59"/>
</g>
<!-- 1040 -->
<g id="node8" class="node">
<title>1040</title>
<ellipse fill="white" stroke="black" cx="114.99" cy="-120.15" rx="25" ry="25"/>
<text text-anchor="middle" x="114.99" y="-117.95" font-family="Times New Roman,serif" font-size="9.00">1040</text>
</g>
<!-- 514&#45;&gt;1040 -->
<g id="edge12" class="edge">
<title>514&#45;&gt;1040</title>
<path fill="none" stroke="red" stroke-width="0.29" d="M73.49,-183.76C80.08,-173.8 88.53,-161.05 96.08,-149.66"/>
<polygon fill="red" stroke="red" stroke-width="0.29" points="99.03,-151.55 101.64,-141.28 93.19,-147.69 99.03,-151.55"/>
</g>
<!-- 1040&#45;&gt;control -->
<g id="edge9" class="edge">
<title>1040&#45;&gt;control</title>
<path fill="none" stroke="red" stroke-width="0.6" d="M127.28,-98.63C133.42,-88.38 141,-75.72 147.96,-64.12"/>
<polygon fill="red" stroke="red" stroke-width="0.6" points="150.98,-65.89 153.12,-55.51 144.97,-62.29 150.98,-65.89"/>
</g>
<!-- 1556&#45;&gt;190 -->
<g id="edge14" class="edge">
<title>1556&#45;&gt;190</title>
<path fill="none" stroke="green" stroke-width="0.14" d="M191.7,-261.64C196.52,-252.01 202.27,-240.53 207.38,-230.3"/>
<polygon fill="green" stroke="green" stroke-width="0.14" points="210.52,-231.85 211.87,-221.34 204.26,-228.72 210.52,-231.85"/>
</g>
<!-- 1881&#45;&gt;514 -->
<g id="edge17" class="edge">
<title>1881&#45;&gt;514</title>
<path fill="none" stroke="red" stroke-width="0.13" d="M61.29,-259.08C61.38,-251.12 61.5,-242.15 61.6,-233.76"/>
<polygon fill="red" stroke="red" stroke-width="0.13" points="65.1,-233.61 61.73,-223.57 58.1,-233.52 65.1,-233.61"/>
</g>
<!-- 190&#45;&gt;control -->
<g id="edge2" class="edge">
<title>190&#45;&gt;control</title>
<path fill="none" stroke="green" stroke-width="0.15" stroke-dasharray="1,5" d="M208.79,-184.74C201.36,-173.96 192.29,-159.23 186.99,-144.89 178.07,-120.81 173.32,-92.32 170.8,-69.83"/>
<polygon fill="green" stroke="green" stroke-width="0.15" points="174.26,-69.22 169.77,-59.63 167.3,-69.93 174.26,-69.22"/>
</g>
<!-- 190&#45;&gt;1249 -->
<g id="edge10" class="edge">
<title>190&#45;&gt;1249</title>
<path fill="none" stroke="green" stroke-width="0.55" d="M220.99,-180.52C220.99,-172.82 220.99,-163.85 220.99,-155.26"/>
<polygon fill="green" stroke="green" stroke-width="0.55" points="224.49,-155.07 220.99,-145.07 217.49,-155.07 224.49,-155.07"/>
</g>
</g>
</svg>
