<?xml version="1.0" encoding="UTF-8" standalone="no"?>
<!DOCTYPE svg PUBLIC "-//W3C//DTD SVG 1.1//EN"
 "http://www.w3.org/Graphics/SVG/1.1/DTD/svg11.dtd">
<!-- Generated by graphviz version 2.48.0 (20210717.1556)
 -->
<!-- Pages: 1 -->
<svg width="296pt" height="371pt"
 viewBox="0.00 0.00 296.39 370.82" xmlns="http://www.w3.org/2000/svg" xmlns:xlink="http://www.w3.org/1999/xlink">
<g id="graph0" class="graph" transform="scale(1 1) rotate(0) translate(4 366.82)">
<polygon fill="white" stroke="transparent" points="-4,4 -4,-366.82 292.39,-366.82 292.39,4 -4,4"/>
<!-- x -->
<g id="node1" class="node">
<title>x</title>
<polygon fill="lightgray" stroke="black" points="56.89,-362.82 36.89,-362.82 36.89,-344.82 56.89,-344.82 56.89,-362.82"/>
<text text-anchor="middle" x="46.89" y="-351.62" font-family="Times New Roman,serif" font-size="9.00">x</text>
</g>
<!-- control -->
<g id="node5" class="node">
<title>control</title>
<ellipse fill="lightblue" stroke="black" cx="140.89" cy="-29.7" rx="29.9" ry="29.9"/>
<text text-anchor="middle" x="140.89" y="-27.5" font-family="Times New Roman,serif" font-size="9.00">control</text>
</g>
<!-- x&#45;&gt;control -->
<g id="edge3" class="edge">
<title>x&#45;&gt;control</title>
<path fill="none" stroke="green" stroke-width="0.59" d="M37.93,-344.76C29.62,-336.63 17.82,-323.25 12.89,-308.82 -4.3,-258.44 -7.29,-150.16 27.89,-95.4 45.01,-68.75 77.24,-51.89 102.91,-42.09"/>
<polygon fill="green" stroke="green" stroke-width="0.59" points="104.16,-45.36 112.38,-38.67 101.79,-38.77 104.16,-45.36"/>
</g>
<!-- 1556 -->
<g id="node10" class="node">
<title>1556</title>
<ellipse fill="white" stroke="black" cx="166.89" cy="-284.07" rx="25" ry="25"/>
<text text-anchor="middle" x="166.89" y="-281.87" font-family="Times New Roman,serif" font-size="9.00">1556</text>
</g>
<!-- x&#45;&gt;1556 -->
<g id="edge10" class="edge">
<title>x&#45;&gt;1556</title>
<path fill="none" stroke="red" stroke-width="0.21" d="M57.08,-348.29C73.62,-340.82 107.13,-325.08 133.89,-308.82 135.57,-307.8 137.27,-306.73 138.96,-305.62"/>
<polygon fill="red" stroke="red" stroke-width="0.21" points="141.05,-308.43 147.34,-299.9 137.11,-302.65 141.05,-308.43"/>
</g>
<!-- 1881 -->
<g id="node11" class="node">
<title>1881</title>
<ellipse fill="white" stroke="black" cx="46.89" cy="-284.07" rx="25" ry="25"/>
<text text-anchor="middle" x="46.89" y="-281.87" font-family="Times New Roman,serif" font-size="9.00">1881</text>
</g>
<!-- x&#45;&gt;1881 -->
<g id="edge13" class="edge">
<title>x&#45;&gt;1881</title>
<path fill="none" stroke="red" stroke-width="0.3" d="M46.89,-344.78C46.89,-338.35 46.89,-328.85 46.89,-319.31"/>
<polygon fill="red" stroke="red" stroke-width="0.3" points="50.39,-319.09 46.89,-309.09 43.39,-319.09 50.39,-319.09"/>
</g>
<!-- dx -->
<g id="node2" class="node">
<title>dx</title>
<polygon fill="lightgray" stroke="black" points="234.39,-293.07 209.39,-293.07 209.39,-275.07 234.39,-275.07 234.39,-293.07"/>
<text text-anchor="middle" x="221.89" y="-281.87" font-family="Times New Roman,serif" font-size="9.00">dx</text>
</g>
<!-- dx&#45;&gt;control -->
<g id="edge5" class="edge">
<title>dx&#45;&gt;control</title>
<path fill="none" stroke="green" stroke-width="0.39" d="M222.82,-274.72C225.48,-247.44 231.19,-159.1 201.89,-95.4 194.91,-80.21 182.92,-66.3 171.41,-55.29"/>
<polygon fill="green" stroke="green" stroke-width="0.39" points="173.72,-52.66 163.97,-48.5 168.99,-57.83 173.72,-52.66"/>
</g>
<!-- 190 -->
<g id="node8" class="node">
<title>190</title>
<ellipse fill="white" stroke="black" cx="167.89" cy="-202.11" rx="21.43" ry="21.43"/>
<text text-anchor="middle" x="167.89" y="-199.91" font-family="Times New Roman,serif" font-size="9.00">190</text>
</g>
<!-- dx&#45;&gt;190 -->
<g id="edge2" class="edge">
<title>dx&#45;&gt;190</title>
<path fill="none" stroke="red" stroke-width="0.16" d="M216.32,-274.81C209,-263.97 195.81,-244.45 185.04,-228.5"/>
<polygon fill="red" stroke="red" stroke-width="0.16" points="187.86,-226.42 179.36,-220.09 182.06,-230.34 187.86,-226.42"/>
</g>
<!-- theta -->
<g id="node3" class="node">
<title>theta</title>
<polygon fill="lightgray" stroke="black" points="124.39,-293.07 89.39,-293.07 89.39,-275.07 124.39,-275.07 124.39,-293.07"/>
<text text-anchor="middle" x="106.89" y="-281.87" font-family="Times New Roman,serif" font-size="9.00">theta</text>
</g>
<!-- 514 -->
<g id="node7" class="node">
<title>514</title>
<ellipse fill="white" stroke="black" cx="83.89" cy="-202.11" rx="21.43" ry="21.43"/>
<text text-anchor="middle" x="83.89" y="-199.91" font-family="Times New Roman,serif" font-size="9.00">514</text>
</g>
<!-- theta&#45;&gt;514 -->
<g id="edge12" class="edge">
<title>theta&#45;&gt;514</title>
<path fill="none" stroke="red" stroke-width="0.48" d="M104.52,-274.81C101.66,-264.89 96.72,-247.7 92.39,-232.63"/>
<polygon fill="red" stroke="red" stroke-width="0.48" points="95.65,-231.3 89.52,-222.66 88.92,-233.24 95.65,-231.3"/>
</g>
<!-- dtheta -->
<g id="node4" class="node">
<title>dtheta</title>
<polygon fill="lightgray" stroke="black" points="288.39,-129.15 249.39,-129.15 249.39,-111.15 288.39,-111.15 288.39,-129.15"/>
<text text-anchor="middle" x="268.89" y="-117.95" font-family="Times New Roman,serif" font-size="9.00">dtheta</text>
</g>
<!-- dtheta&#45;&gt;control -->
<g id="edge1" class="edge">
<title>dtheta&#45;&gt;control</title>
<path fill="none" stroke="green" stroke-width="0.74" d="M257.26,-110.99C250.7,-106.4 242.35,-100.57 234.89,-95.4 214.61,-81.33 191.8,-65.63 173.73,-53.22"/>
<polygon fill="green" stroke="green" stroke-width="0.74" points="175.5,-50.18 165.27,-47.41 171.53,-55.95 175.5,-50.18"/>
</g>
<!-- 1249 -->
<g id="node6" class="node">
<title>1249</title>
<ellipse fill="white" stroke="black" cx="167.89" cy="-120.15" rx="25" ry="25"/>
<text text-anchor="middle" x="167.89" y="-117.95" font-family="Times New Roman,serif" font-size="9.00">1249</text>
</g>
<!-- 1249&#45;&gt;control -->
<g id="edge8" class="edge">
<title>1249&#45;&gt;control</title>
<path fill="none" stroke="green" stroke-width="0.3" d="M160.94,-96.37C158.32,-87.78 155.26,-77.77 152.34,-68.2"/>
<polygon fill="green" stroke="green" stroke-width="0.3" points="155.63,-66.99 149.37,-58.45 148.94,-69.04 155.63,-66.99"/>
</g>
<!-- 514&#45;&gt;control -->
<g id="edge4" class="edge">
<title>514&#45;&gt;control</title>
<path fill="none" stroke="red" stroke-width="0.58" d="M90.32,-181.89C99.54,-154.32 116.71,-103 128.46,-67.87"/>
<polygon fill="red" stroke="red" stroke-width="0.58" points="131.92,-68.57 131.77,-57.97 125.28,-66.35 131.92,-68.57"/>
</g>
<!-- 1040 -->
<g id="node9" class="node">
<title>1040</title>
<ellipse fill="white" stroke="black" cx="61.89" cy="-120.15" rx="25" ry="25"/>
<text text-anchor="middle" x="61.89" y="-117.95" font-family="Times New Roman,serif" font-size="9.00">1040</text>
</g>
<!-- 514&#45;&gt;1040 -->
<g id="edge9" class="edge">
<title>514&#45;&gt;1040</title>
<path fill="none" stroke="red" stroke-width="0.29" d="M78.46,-181.34C76.18,-173.05 73.46,-163.2 70.9,-153.88"/>
<polygon fill="red" stroke="red" stroke-width="0.29" points="74.23,-152.8 68.2,-144.08 67.48,-154.65 74.23,-152.8"/>
</g>
<!-- 190&#45;&gt;1249 -->
<g id="edge7" class="edge">
<title>190&#45;&gt;1249</title>
<path fill="none" stroke="green" stroke-width="0.55" d="M167.89,-180.52C167.89,-172.82 167.89,-163.85 167.89,-155.26"/>
<polygon fill="green" stroke="green" stroke-width="0.55" points="171.39,-155.07 167.89,-145.07 164.39,-155.07 171.39,-155.07"/>
</g>
<!-- 1040&#45;&gt;control -->
<g id="edge6" class="edge">
<title>1040&#45;&gt;control</title>
<path fill="none" stroke="red" stroke-width="0.6" d="M77.88,-101.25C88.43,-89.43 102.51,-73.68 114.68,-60.05"/>
<polygon fill="red" stroke="red" stroke-width="0.6" points="117.53,-62.11 121.58,-52.32 112.31,-57.45 117.53,-62.11"/>
</g>
<!-- 1556&#45;&gt;190 -->
<g id="edge11" class="edge">
<title>1556&#45;&gt;190</title>
<path fill="none" stroke="green" stroke-width="0.14" d="M167.19,-259.08C167.29,-251.12 167.4,-242.15 167.51,-233.76"/>
<polygon fill="green" stroke="green" stroke-width="0.14" points="171.01,-233.61 167.64,-223.57 164.01,-233.52 171.01,-233.61"/>
</g>
<!-- 1881&#45;&gt;514 -->
<g id="edge14" class="edge">
<title>1881&#45;&gt;514</title>
<path fill="none" stroke="red" stroke-width="0.13" d="M57,-261.22C61.35,-251.83 66.48,-240.74 71.09,-230.79"/>
<polygon fill="red" stroke="red" stroke-width="0.13" points="74.28,-232.22 75.3,-221.68 67.92,-229.28 74.28,-232.22"/>
</g>
</g>
</svg>
