<?xml version="1.0" encoding="utf-8" standalone="no"?>
<!DOCTYPE svg PUBLIC "-//W3C//DTD SVG 1.1//EN"
  "http://www.w3.org/Graphics/SVG/1.1/DTD/svg11.dtd">
<svg height="345.6pt" version="1.1" viewBox="0 0 460.8 345.6" width="460.8pt" xmlns="http://www.w3.org/2000/svg" xmlns:xlink="http://www.w3.org/1999/xlink">
 <metadata>
  <rdf:RDF xmlns:cc="http://creativecommons.org/ns#" xmlns:dc="http://purl.org/dc/elements/1.1/" xmlns:rdf="http://www.w3.org/1999/02/22-rdf-syntax-ns#">
   <cc:Work>
    <dc:type rdf:resource="http://purl.org/dc/dcmitype/StillImage"/>
    <dc:date>2021-10-24T22:17:57.735119</dc:date>
    <dc:format>image/svg+xml</dc:format>
    <dc:creator>
     <cc:Agent>
      <dc:title>Matplotlib v3.4.3, https://matplotlib.org/</dc:title>
     </cc:Agent>
    </dc:creator>
   </cc:Work>
  </rdf:RDF>
 </metadata>
 <defs>
  <style type="text/css">*{stroke-linecap:butt;stroke-linejoin:round;}</style>
 </defs>
 <g id="figure_1">
  <g id="patch_1">
   <path d="M 0 345.6 
L 460.8 345.6 
L 460.8 0 
L 0 0 
z
" style="fill:#ffffff;"/>
  </g>
  <g id="axes_1">
   <g id="patch_2">
    <path d="M 57.6 307.584 
L 414.72 307.584 
L 414.72 41.472 
L 57.6 41.472 
z
" style="fill:#ffffff;"/>
   </g>
   <g id="PolyCollection_1">
    <path clip-path="url(#pd11f125476)" d="M 73.832727 245.476174 
L 73.832727 307.584 
L 92.930053 307.584 
L 112.02738 307.584 
L 131.124706 307.584 
L 150.222032 307.584 
L 169.319358 307.584 
L 188.416684 307.584 
L 207.514011 307.584 
L 226.611337 307.584 
L 245.708663 307.584 
L 264.805989 307.584 
L 283.903316 307.584 
L 303.000642 307.584 
L 322.097968 307.584 
L 341.195294 307.584 
L 360.29262 307.584 
L 379.389947 307.584 
L 398.487273 307.584 
L 398.487273 290.554435 
L 398.487273 290.554435 
L 379.389947 298.568348 
L 360.29262 293.559652 
L 341.195294 296.56487 
L 322.097968 294.561391 
L 303.000642 296.56487 
L 283.903316 302.575304 
L 264.805989 295.56313 
L 245.708663 304.578783 
L 226.611337 296.56487 
L 207.514011 289.552696 
L 188.416684 297.566609 
L 169.319358 298.568348 
L 150.222032 288.550957 
L 131.124706 279.535304 
L 112.02738 293.559652 
L 92.930053 292.557913 
L 73.832727 245.476174 
z
" style="fill:#1f77b4;"/>
   </g>
   <g id="PolyCollection_2">
    <path clip-path="url(#pd11f125476)" d="M 73.832727 185.371826 
L 73.832727 245.476174 
L 92.930053 292.557913 
L 112.02738 293.559652 
L 131.124706 279.535304 
L 150.222032 288.550957 
L 169.319358 298.568348 
L 188.416684 297.566609 
L 207.514011 289.552696 
L 226.611337 296.56487 
L 245.708663 304.578783 
L 264.805989 295.56313 
L 283.903316 302.575304 
L 303.000642 296.56487 
L 322.097968 294.561391 
L 341.195294 296.56487 
L 360.29262 293.559652 
L 379.389947 298.568348 
L 398.487273 290.554435 
L 398.487273 274.526609 
L 398.487273 274.526609 
L 379.389947 283.542261 
L 360.29262 287.549217 
L 341.195294 284.544 
L 322.097968 281.538783 
L 303.000642 283.542261 
L 283.903316 286.547478 
L 264.805989 273.52487 
L 245.708663 286.547478 
L 226.611337 279.535304 
L 207.514011 272.52313 
L 188.416684 274.526609 
L 169.319358 258.498783 
L 150.222032 247.479652 
L 131.124706 265.510957 
L 112.02738 267.514435 
L 92.930053 268.516174 
L 73.832727 185.371826 
z
" style="fill:#ff7f0e;"/>
   </g>
   <g id="PolyCollection_3">
    <path clip-path="url(#pd11f125476)" d="M 73.832727 176.356174 
L 73.832727 185.371826 
L 92.930053 268.516174 
L 112.02738 267.514435 
L 131.124706 265.510957 
L 150.222032 247.479652 
L 169.319358 258.498783 
L 188.416684 274.526609 
L 207.514011 272.52313 
L 226.611337 279.535304 
L 245.708663 286.547478 
L 264.805989 273.52487 
L 283.903316 286.547478 
L 303.000642 283.542261 
L 322.097968 281.538783 
L 341.195294 284.544 
L 360.29262 287.549217 
L 379.389947 283.542261 
L 398.487273 274.526609 
L 398.487273 258.498783 
L 398.487273 258.498783 
L 379.389947 260.502261 
L 360.29262 268.516174 
L 341.195294 269.517913 
L 322.097968 257.497043 
L 303.000642 266.512696 
L 283.903316 267.514435 
L 264.805989 251.486609 
L 245.708663 269.517913 
L 226.611337 260.502261 
L 207.514011 254.491826 
L 188.416684 257.497043 
L 169.319358 239.465739 
L 150.222032 227.44487 
L 131.124706 246.477913 
L 112.02738 252.488348 
L 92.930053 261.504 
L 73.832727 176.356174 
z
" style="fill:#2ca02c;"/>
   </g>
   <g id="PolyCollection_4">
    <path clip-path="url(#pd11f125476)" d="M 73.832727 166.338783 
L 73.832727 176.356174 
L 92.930053 261.504 
L 112.02738 252.488348 
L 131.124706 246.477913 
L 150.222032 227.44487 
L 169.319358 239.465739 
L 188.416684 257.497043 
L 207.514011 254.491826 
L 226.611337 260.502261 
L 245.708663 269.517913 
L 264.805989 251.486609 
L 283.903316 267.514435 
L 303.000642 266.512696 
L 322.097968 257.497043 
L 341.195294 269.517913 
L 360.29262 268.516174 
L 379.389947 260.502261 
L 398.487273 258.498783 
L 398.487273 249.48313 
L 398.487273 249.48313 
L 379.389947 255.493565 
L 360.29262 251.486609 
L 341.195294 234.457043 
L 322.097968 213.420522 
L 303.000642 234.457043 
L 283.903316 240.467478 
L 264.805989 215.424 
L 245.708663 249.48313 
L 226.611337 238.464 
L 207.514011 245.476174 
L 188.416684 249.48313 
L 169.319358 229.448348 
L 150.222032 214.422261 
L 131.124706 211.417043 
L 112.02738 226.44313 
L 92.930053 228.446609 
L 73.832727 166.338783 
z
" style="fill:#d62728;"/>
   </g>
   <g id="PolyCollection_5">
    <path clip-path="url(#pd11f125476)" d="M 73.832727 160.328348 
L 73.832727 166.338783 
L 92.930053 228.446609 
L 112.02738 226.44313 
L 131.124706 211.417043 
L 150.222032 214.422261 
L 169.319358 229.448348 
L 188.416684 249.48313 
L 207.514011 245.476174 
L 226.611337 238.464 
L 245.708663 249.48313 
L 264.805989 215.424 
L 283.903316 240.467478 
L 303.000642 234.457043 
L 322.097968 213.420522 
L 341.195294 234.457043 
L 360.29262 251.486609 
L 379.389947 255.493565 
L 398.487273 249.48313 
L 398.487273 231.451826 
L 398.487273 231.451826 
L 379.389947 212.418783 
L 360.29262 213.420522 
L 341.195294 203.40313 
L 322.097968 176.356174 
L 303.000642 192.384 
L 283.903316 212.418783 
L 264.805989 203.40313 
L 245.708663 224.439652 
L 226.611337 212.418783 
L 207.514011 237.462261 
L 188.416684 203.40313 
L 169.319358 174.352696 
L 150.222032 167.340522 
L 131.124706 179.361391 
L 112.02738 180.36313 
L 92.930053 180.36313 
L 73.832727 160.328348 
z
" style="fill:#9467bd;"/>
   </g>
   <g id="PolyCollection_6">
    <path clip-path="url(#pd11f125476)" d="M 73.832727 136.286609 
L 73.832727 160.328348 
L 92.930053 180.36313 
L 112.02738 180.36313 
L 131.124706 179.361391 
L 150.222032 167.340522 
L 169.319358 174.352696 
L 188.416684 203.40313 
L 207.514011 237.462261 
L 226.611337 212.418783 
L 245.708663 224.439652 
L 264.805989 203.40313 
L 283.903316 212.418783 
L 303.000642 192.384 
L 322.097968 176.356174 
L 341.195294 203.40313 
L 360.29262 213.420522 
L 379.389947 212.418783 
L 398.487273 231.451826 
L 398.487273 229.448348 
L 398.487273 229.448348 
L 379.389947 209.413565 
L 360.29262 209.413565 
L 341.195294 200.397913 
L 322.097968 174.352696 
L 303.000642 189.378783 
L 283.903316 210.415304 
L 264.805989 201.399652 
L 245.708663 222.436174 
L 226.611337 210.415304 
L 207.514011 234.457043 
L 188.416684 200.397913 
L 169.319358 172.349217 
L 150.222032 165.337043 
L 131.124706 176.356174 
L 112.02738 178.359652 
L 92.930053 178.359652 
L 73.832727 136.286609 
z
" style="fill:#8c564b;"/>
   </g>
   <g id="PolyCollection_7">
    <path clip-path="url(#pd11f125476)" d="M 73.832727 127.270957 
L 73.832727 136.286609 
L 92.930053 178.359652 
L 112.02738 178.359652 
L 131.124706 176.356174 
L 150.222032 165.337043 
L 169.319358 172.349217 
L 188.416684 200.397913 
L 207.514011 234.457043 
L 226.611337 210.415304 
L 245.708663 222.436174 
L 264.805989 201.399652 
L 283.903316 210.415304 
L 303.000642 189.378783 
L 322.097968 174.352696 
L 341.195294 200.397913 
L 360.29262 209.413565 
L 379.389947 209.413565 
L 398.487273 229.448348 
L 398.487273 220.432696 
L 398.487273 220.432696 
L 379.389947 195.389217 
L 360.29262 192.384 
L 341.195294 184.370087 
L 322.097968 159.326609 
L 303.000642 181.36487 
L 283.903316 202.401391 
L 264.805989 183.368348 
L 245.708663 211.417043 
L 226.611337 206.408348 
L 207.514011 226.44313 
L 188.416684 194.387478 
L 169.319358 171.347478 
L 150.222032 162.331826 
L 131.124706 163.333565 
L 112.02738 167.340522 
L 92.930053 163.333565 
L 73.832727 127.270957 
z
" style="fill:#e377c2;"/>
   </g>
   <g id="PolyCollection_8">
    <path clip-path="url(#pd11f125476)" d="M 73.832727 118.255304 
L 73.832727 127.270957 
L 92.930053 163.333565 
L 112.02738 167.340522 
L 131.124706 163.333565 
L 150.222032 162.331826 
L 169.319358 171.347478 
L 188.416684 194.387478 
L 207.514011 226.44313 
L 226.611337 206.408348 
L 245.708663 211.417043 
L 264.805989 183.368348 
L 283.903316 202.401391 
L 303.000642 181.36487 
L 322.097968 159.326609 
L 341.195294 184.370087 
L 360.29262 192.384 
L 379.389947 195.389217 
L 398.487273 220.432696 
L 398.487273 214.422261 
L 398.487273 214.422261 
L 379.389947 172.349217 
L 360.29262 177.357913 
L 341.195294 166.338783 
L 322.097968 155.319652 
L 303.000642 171.347478 
L 283.903316 196.390957 
L 264.805989 173.350957 
L 245.708663 203.40313 
L 226.611337 195.389217 
L 207.514011 215.424 
L 188.416684 173.350957 
L 169.319358 159.326609 
L 150.222032 151.312696 
L 131.124706 143.298783 
L 112.02738 147.305739 
L 92.930053 154.317913 
L 73.832727 118.255304 
z
" style="fill:#7f7f7f;"/>
   </g>
   <g id="PolyCollection_9">
    <path clip-path="url(#pd11f125476)" d="M 73.832727 90.206609 
L 73.832727 118.255304 
L 92.930053 154.317913 
L 112.02738 147.305739 
L 131.124706 143.298783 
L 150.222032 151.312696 
L 169.319358 159.326609 
L 188.416684 173.350957 
L 207.514011 215.424 
L 226.611337 195.389217 
L 245.708663 203.40313 
L 264.805989 173.350957 
L 283.903316 196.390957 
L 303.000642 171.347478 
L 322.097968 155.319652 
L 341.195294 166.338783 
L 360.29262 177.357913 
L 379.389947 172.349217 
L 398.487273 214.422261 
L 398.487273 147.305739 
L 398.487273 147.305739 
L 379.389947 159.326609 
L 360.29262 163.333565 
L 341.195294 152.314435 
L 322.097968 149.309217 
L 303.000642 141.295304 
L 283.903316 161.330087 
L 264.805989 138.290087 
L 245.708663 159.326609 
L 226.611337 155.319652 
L 207.514011 148.307478 
L 188.416684 128.272696 
L 169.319358 120.258783 
L 150.222032 138.290087 
L 131.124706 132.279652 
L 112.02738 122.262261 
L 92.930053 124.265739 
L 73.832727 90.206609 
z
" style="fill:#bcbd22;"/>
   </g>
   <g id="PolyCollection_10">
    <path clip-path="url(#pd11f125476)" d="M 73.832727 77.184 
L 73.832727 90.206609 
L 92.930053 124.265739 
L 112.02738 122.262261 
L 131.124706 132.279652 
L 150.222032 138.290087 
L 169.319358 120.258783 
L 188.416684 128.272696 
L 207.514011 148.307478 
L 226.611337 155.319652 
L 245.708663 159.326609 
L 264.805989 138.290087 
L 283.903316 161.330087 
L 303.000642 141.295304 
L 322.097968 149.309217 
L 341.195294 152.314435 
L 360.29262 163.333565 
L 379.389947 159.326609 
L 398.487273 147.305739 
L 398.487273 135.28487 
L 398.487273 135.28487 
L 379.389947 137.288348 
L 360.29262 148.307478 
L 341.195294 140.293565 
L 322.097968 127.270957 
L 303.000642 128.272696 
L 283.903316 153.316174 
L 264.805989 127.270957 
L 245.708663 137.288348 
L 226.611337 140.293565 
L 207.514011 137.288348 
L 188.416684 118.255304 
L 169.319358 111.24313 
L 150.222032 127.270957 
L 131.124706 121.260522 
L 112.02738 114.248348 
L 92.930053 101.225739 
L 73.832727 77.184 
z
" style="fill:#17becf;"/>
   </g>
   <g id="PolyCollection_11">
    <path clip-path="url(#pd11f125476)" d="M 73.832727 76.182261 
L 73.832727 77.184 
L 92.930053 101.225739 
L 112.02738 114.248348 
L 131.124706 121.260522 
L 150.222032 127.270957 
L 169.319358 111.24313 
L 188.416684 118.255304 
L 207.514011 137.288348 
L 226.611337 140.293565 
L 245.708663 137.288348 
L 264.805989 127.270957 
L 283.903316 153.316174 
L 303.000642 128.272696 
L 322.097968 127.270957 
L 341.195294 140.293565 
L 360.29262 148.307478 
L 379.389947 137.288348 
L 398.487273 135.28487 
L 398.487273 124.265739 
L 398.487273 124.265739 
L 379.389947 126.269217 
L 360.29262 139.291826 
L 341.195294 134.28313 
L 322.097968 120.258783 
L 303.000642 122.262261 
L 283.903316 140.293565 
L 264.805989 115.250087 
L 245.708663 124.265739 
L 226.611337 128.272696 
L 207.514011 129.274435 
L 188.416684 111.24313 
L 169.319358 99.222261 
L 150.222032 120.258783 
L 131.124706 115.250087 
L 112.02738 105.232696 
L 92.930053 96.217043 
L 73.832727 76.182261 
z
" style="fill:#1f77b4;"/>
   </g>
   <g id="PolyCollection_12">
    <path clip-path="url(#pd11f125476)" d="M 73.832727 68.168348 
L 73.832727 76.182261 
L 92.930053 96.217043 
L 112.02738 105.232696 
L 131.124706 115.250087 
L 150.222032 120.258783 
L 169.319358 99.222261 
L 188.416684 111.24313 
L 207.514011 129.274435 
L 226.611337 128.272696 
L 245.708663 124.265739 
L 264.805989 115.250087 
L 283.903316 140.293565 
L 303.000642 122.262261 
L 322.097968 120.258783 
L 341.195294 134.28313 
L 360.29262 139.291826 
L 379.389947 126.269217 
L 398.487273 124.265739 
L 398.487273 88.20313 
L 398.487273 88.20313 
L 379.389947 101.225739 
L 360.29262 104.230957 
L 341.195294 108.237913 
L 322.097968 102.227478 
L 303.000642 89.20487 
L 283.903316 108.237913 
L 264.805989 111.24313 
L 245.708663 109.239652 
L 226.611337 109.239652 
L 207.514011 106.234435 
L 188.416684 107.236174 
L 169.319358 88.20313 
L 150.222032 114.248348 
L 131.124706 110.241391 
L 112.02738 101.225739 
L 92.930053 94.213565 
L 73.832727 68.168348 
z
" style="fill:#ff7f0e;"/>
   </g>
   <g id="PolyCollection_13">
    <path clip-path="url(#pd11f125476)" d="M 73.832727 67.166609 
L 73.832727 68.168348 
L 92.930053 94.213565 
L 112.02738 101.225739 
L 131.124706 110.241391 
L 150.222032 114.248348 
L 169.319358 88.20313 
L 188.416684 107.236174 
L 207.514011 106.234435 
L 226.611337 109.239652 
L 245.708663 109.239652 
L 264.805989 111.24313 
L 283.903316 108.237913 
L 303.000642 89.20487 
L 322.097968 102.227478 
L 341.195294 108.237913 
L 360.29262 104.230957 
L 379.389947 101.225739 
L 398.487273 88.20313 
L 398.487273 87.201391 
L 398.487273 87.201391 
L 379.389947 98.220522 
L 360.29262 102.227478 
L 341.195294 106.234435 
L 322.097968 100.224 
L 303.000642 86.199652 
L 283.903316 104.230957 
L 264.805989 109.239652 
L 245.708663 106.234435 
L 226.611337 105.232696 
L 207.514011 103.229217 
L 188.416684 103.229217 
L 169.319358 85.197913 
L 150.222032 112.24487 
L 131.124706 106.234435 
L 112.02738 94.213565 
L 92.930053 85.197913 
L 73.832727 67.166609 
z
" style="fill:#2ca02c;"/>
   </g>
   <g id="PolyCollection_14">
    <path clip-path="url(#pd11f125476)" d="M 73.832727 66.16487 
L 73.832727 67.166609 
L 92.930053 85.197913 
L 112.02738 94.213565 
L 131.124706 106.234435 
L 150.222032 112.24487 
L 169.319358 85.197913 
L 188.416684 103.229217 
L 207.514011 103.229217 
L 226.611337 105.232696 
L 245.708663 106.234435 
L 264.805989 109.239652 
L 283.903316 104.230957 
L 303.000642 86.199652 
L 322.097968 100.224 
L 341.195294 106.234435 
L 360.29262 102.227478 
L 379.389947 98.220522 
L 398.487273 87.201391 
L 398.487273 77.184 
L 398.487273 77.184 
L 379.389947 85.197913 
L 360.29262 96.217043 
L 341.195294 97.218783 
L 322.097968 91.208348 
L 303.000642 80.189217 
L 283.903316 97.218783 
L 264.805989 103.229217 
L 245.708663 101.225739 
L 226.611337 101.225739 
L 207.514011 100.224 
L 188.416684 101.225739 
L 169.319358 81.190957 
L 150.222032 107.236174 
L 131.124706 102.227478 
L 112.02738 91.208348 
L 92.930053 83.194435 
L 73.832727 66.16487 
z
" style="fill:#d62728;"/>
   </g>
   <g id="PolyCollection_15">
    <path clip-path="url(#pd11f125476)" d="M 73.832727 65.16313 
L 73.832727 66.16487 
L 92.930053 83.194435 
L 112.02738 91.208348 
L 131.124706 102.227478 
L 150.222032 107.236174 
L 169.319358 81.190957 
L 188.416684 101.225739 
L 207.514011 100.224 
L 226.611337 101.225739 
L 245.708663 101.225739 
L 264.805989 103.229217 
L 283.903316 97.218783 
L 303.000642 80.189217 
L 322.097968 91.208348 
L 341.195294 97.218783 
L 360.29262 96.217043 
L 379.389947 85.197913 
L 398.487273 77.184 
L 398.487273 74.178783 
L 398.487273 74.178783 
L 379.389947 83.194435 
L 360.29262 92.210087 
L 341.195294 94.213565 
L 322.097968 89.20487 
L 303.000642 73.177043 
L 283.903316 92.210087 
L 264.805989 99.222261 
L 245.708663 95.215304 
L 226.611337 96.217043 
L 207.514011 94.213565 
L 188.416684 96.217043 
L 169.319358 77.184 
L 150.222032 101.225739 
L 131.124706 94.213565 
L 112.02738 78.185739 
L 92.930053 77.184 
L 73.832727 65.16313 
z
" style="fill:#9467bd;"/>
   </g>
   <g id="PolyCollection_16">
    <path clip-path="url(#pd11f125476)" d="M 73.832727 64.161391 
L 73.832727 65.16313 
L 92.930053 77.184 
L 112.02738 78.185739 
L 131.124706 94.213565 
L 150.222032 101.225739 
L 169.319358 77.184 
L 188.416684 96.217043 
L 207.514011 94.213565 
L 226.611337 96.217043 
L 245.708663 95.215304 
L 264.805989 99.222261 
L 283.903316 92.210087 
L 303.000642 73.177043 
L 322.097968 89.20487 
L 341.195294 94.213565 
L 360.29262 92.210087 
L 379.389947 83.194435 
L 398.487273 74.178783 
L 398.487273 71.173565 
L 398.487273 71.173565 
L 379.389947 79.187478 
L 360.29262 89.20487 
L 341.195294 92.210087 
L 322.097968 86.199652 
L 303.000642 71.173565 
L 283.903316 89.20487 
L 264.805989 95.215304 
L 245.708663 92.210087 
L 226.611337 92.210087 
L 207.514011 89.20487 
L 188.416684 92.210087 
L 169.319358 74.178783 
L 150.222032 96.217043 
L 131.124706 90.206609 
L 112.02738 75.180522 
L 92.930053 72.175304 
L 73.832727 64.161391 
z
" style="fill:#8c564b;"/>
   </g>
   <g id="PolyCollection_17">
    <path clip-path="url(#pd11f125476)" d="M 73.832727 58.150957 
L 73.832727 64.161391 
L 92.930053 72.175304 
L 112.02738 75.180522 
L 131.124706 90.206609 
L 150.222032 96.217043 
L 169.319358 74.178783 
L 188.416684 92.210087 
L 207.514011 89.20487 
L 226.611337 92.210087 
L 245.708663 92.210087 
L 264.805989 95.215304 
L 283.903316 89.20487 
L 303.000642 71.173565 
L 322.097968 86.199652 
L 341.195294 92.210087 
L 360.29262 89.20487 
L 379.389947 79.187478 
L 398.487273 71.173565 
L 398.487273 59.152696 
L 398.487273 59.152696 
L 379.389947 58.150957 
L 360.29262 57.149217 
L 341.195294 60.154435 
L 322.097968 61.156174 
L 303.000642 60.154435 
L 283.903316 59.152696 
L 264.805989 57.149217 
L 245.708663 59.152696 
L 226.611337 60.154435 
L 207.514011 59.152696 
L 188.416684 60.154435 
L 169.319358 63.159652 
L 150.222032 62.157913 
L 131.124706 62.157913 
L 112.02738 64.161391 
L 92.930053 62.157913 
L 73.832727 58.150957 
z
" style="fill:#e377c2;"/>
   </g>
   <g id="PolyCollection_18">
    <path clip-path="url(#pd11f125476)" d="M 73.832727 57.149217 
L 73.832727 58.150957 
L 92.930053 62.157913 
L 112.02738 64.161391 
L 131.124706 62.157913 
L 150.222032 62.157913 
L 169.319358 63.159652 
L 188.416684 60.154435 
L 207.514011 59.152696 
L 226.611337 60.154435 
L 245.708663 59.152696 
L 264.805989 57.149217 
L 283.903316 59.152696 
L 303.000642 60.154435 
L 322.097968 61.156174 
L 341.195294 60.154435 
L 360.29262 57.149217 
L 379.389947 58.150957 
L 398.487273 59.152696 
L 398.487273 57.149217 
L 398.487273 57.149217 
L 379.389947 56.147478 
L 360.29262 54.144 
L 341.195294 58.150957 
L 322.097968 59.152696 
L 303.000642 58.150957 
L 283.903316 54.144 
L 264.805989 54.144 
L 245.708663 57.149217 
L 226.611337 57.149217 
L 207.514011 57.149217 
L 188.416684 57.149217 
L 169.319358 59.152696 
L 150.222032 59.152696 
L 131.124706 58.150957 
L 112.02738 60.154435 
L 92.930053 57.149217 
L 73.832727 57.149217 
z
" style="fill:#7f7f7f;"/>
   </g>
   <g id="matplotlib.axis_1">
    <g id="xtick_1">
     <g id="line2d_1">
      <defs>
       <path d="M 0 0 
L 0 3.5 
" id="me7f94ae584" style="stroke:#000000;stroke-width:0.8;"/>
      </defs>
      <g>
       <use style="stroke:#000000;stroke-width:0.8;" x="73.832727" xlink:href="#me7f94ae584" y="307.584"/>
      </g>
     </g>
     <g id="text_1">
      <!-- 0.0 -->
      <g transform="translate(65.881165 322.182437)scale(0.1 -0.1)">
       <defs>
        <path d="M 2034 4250 
Q 1547 4250 1301 3770 
Q 1056 3291 1056 2328 
Q 1056 1369 1301 889 
Q 1547 409 2034 409 
Q 2525 409 2770 889 
Q 3016 1369 3016 2328 
Q 3016 3291 2770 3770 
Q 2525 4250 2034 4250 
z
M 2034 4750 
Q 2819 4750 3233 4129 
Q 3647 3509 3647 2328 
Q 3647 1150 3233 529 
Q 2819 -91 2034 -91 
Q 1250 -91 836 529 
Q 422 1150 422 2328 
Q 422 3509 836 4129 
Q 1250 4750 2034 4750 
z
" id="DejaVuSans-30" transform="scale(0.015625)"/>
        <path d="M 684 794 
L 1344 794 
L 1344 0 
L 684 0 
L 684 794 
z
" id="DejaVuSans-2e" transform="scale(0.015625)"/>
       </defs>
       <use xlink:href="#DejaVuSans-30"/>
       <use x="63.623047" xlink:href="#DejaVuSans-2e"/>
       <use x="95.410156" xlink:href="#DejaVuSans-30"/>
      </g>
     </g>
    </g>
    <g id="xtick_2">
     <g id="line2d_2">
      <g>
       <use style="stroke:#000000;stroke-width:0.8;" x="121.576043" xlink:href="#me7f94ae584" y="307.584"/>
      </g>
     </g>
     <g id="text_2">
      <!-- 2.5 -->
      <g transform="translate(113.62448 322.182437)scale(0.1 -0.1)">
       <defs>
        <path d="M 1228 531 
L 3431 531 
L 3431 0 
L 469 0 
L 469 531 
Q 828 903 1448 1529 
Q 2069 2156 2228 2338 
Q 2531 2678 2651 2914 
Q 2772 3150 2772 3378 
Q 2772 3750 2511 3984 
Q 2250 4219 1831 4219 
Q 1534 4219 1204 4116 
Q 875 4013 500 3803 
L 500 4441 
Q 881 4594 1212 4672 
Q 1544 4750 1819 4750 
Q 2544 4750 2975 4387 
Q 3406 4025 3406 3419 
Q 3406 3131 3298 2873 
Q 3191 2616 2906 2266 
Q 2828 2175 2409 1742 
Q 1991 1309 1228 531 
z
" id="DejaVuSans-32" transform="scale(0.015625)"/>
        <path d="M 691 4666 
L 3169 4666 
L 3169 4134 
L 1269 4134 
L 1269 2991 
Q 1406 3038 1543 3061 
Q 1681 3084 1819 3084 
Q 2600 3084 3056 2656 
Q 3513 2228 3513 1497 
Q 3513 744 3044 326 
Q 2575 -91 1722 -91 
Q 1428 -91 1123 -41 
Q 819 9 494 109 
L 494 744 
Q 775 591 1075 516 
Q 1375 441 1709 441 
Q 2250 441 2565 725 
Q 2881 1009 2881 1497 
Q 2881 1984 2565 2268 
Q 2250 2553 1709 2553 
Q 1456 2553 1204 2497 
Q 953 2441 691 2322 
L 691 4666 
z
" id="DejaVuSans-35" transform="scale(0.015625)"/>
       </defs>
       <use xlink:href="#DejaVuSans-32"/>
       <use x="63.623047" xlink:href="#DejaVuSans-2e"/>
       <use x="95.410156" xlink:href="#DejaVuSans-35"/>
      </g>
     </g>
    </g>
    <g id="xtick_3">
     <g id="line2d_3">
      <g>
       <use style="stroke:#000000;stroke-width:0.8;" x="169.319358" xlink:href="#me7f94ae584" y="307.584"/>
      </g>
     </g>
     <g id="text_3">
      <!-- 5.0 -->
      <g transform="translate(161.367796 322.182437)scale(0.1 -0.1)">
       <use xlink:href="#DejaVuSans-35"/>
       <use x="63.623047" xlink:href="#DejaVuSans-2e"/>
       <use x="95.410156" xlink:href="#DejaVuSans-30"/>
      </g>
     </g>
    </g>
    <g id="xtick_4">
     <g id="line2d_4">
      <g>
       <use style="stroke:#000000;stroke-width:0.8;" x="217.062674" xlink:href="#me7f94ae584" y="307.584"/>
      </g>
     </g>
     <g id="text_4">
      <!-- 7.5 -->
      <g transform="translate(209.111111 322.182437)scale(0.1 -0.1)">
       <defs>
        <path d="M 525 4666 
L 3525 4666 
L 3525 4397 
L 1831 0 
L 1172 0 
L 2766 4134 
L 525 4134 
L 525 4666 
z
" id="DejaVuSans-37" transform="scale(0.015625)"/>
       </defs>
       <use xlink:href="#DejaVuSans-37"/>
       <use x="63.623047" xlink:href="#DejaVuSans-2e"/>
       <use x="95.410156" xlink:href="#DejaVuSans-35"/>
      </g>
     </g>
    </g>
    <g id="xtick_5">
     <g id="line2d_5">
      <g>
       <use style="stroke:#000000;stroke-width:0.8;" x="264.805989" xlink:href="#me7f94ae584" y="307.584"/>
      </g>
     </g>
     <g id="text_5">
      <!-- 10.0 -->
      <g transform="translate(253.673177 322.182437)scale(0.1 -0.1)">
       <defs>
        <path d="M 794 531 
L 1825 531 
L 1825 4091 
L 703 3866 
L 703 4441 
L 1819 4666 
L 2450 4666 
L 2450 531 
L 3481 531 
L 3481 0 
L 794 0 
L 794 531 
z
" id="DejaVuSans-31" transform="scale(0.015625)"/>
       </defs>
       <use xlink:href="#DejaVuSans-31"/>
       <use x="63.623047" xlink:href="#DejaVuSans-30"/>
       <use x="127.246094" xlink:href="#DejaVuSans-2e"/>
       <use x="159.033203" xlink:href="#DejaVuSans-30"/>
      </g>
     </g>
    </g>
    <g id="xtick_6">
     <g id="line2d_6">
      <g>
       <use style="stroke:#000000;stroke-width:0.8;" x="312.549305" xlink:href="#me7f94ae584" y="307.584"/>
      </g>
     </g>
     <g id="text_6">
      <!-- 12.5 -->
      <g transform="translate(301.416492 322.182437)scale(0.1 -0.1)">
       <use xlink:href="#DejaVuSans-31"/>
       <use x="63.623047" xlink:href="#DejaVuSans-32"/>
       <use x="127.246094" xlink:href="#DejaVuSans-2e"/>
       <use x="159.033203" xlink:href="#DejaVuSans-35"/>
      </g>
     </g>
    </g>
    <g id="xtick_7">
     <g id="line2d_7">
      <g>
       <use style="stroke:#000000;stroke-width:0.8;" x="360.29262" xlink:href="#me7f94ae584" y="307.584"/>
      </g>
     </g>
     <g id="text_7">
      <!-- 15.0 -->
      <g transform="translate(349.159808 322.182437)scale(0.1 -0.1)">
       <use xlink:href="#DejaVuSans-31"/>
       <use x="63.623047" xlink:href="#DejaVuSans-35"/>
       <use x="127.246094" xlink:href="#DejaVuSans-2e"/>
       <use x="159.033203" xlink:href="#DejaVuSans-30"/>
      </g>
     </g>
    </g>
    <g id="xtick_8">
     <g id="line2d_8">
      <g>
       <use style="stroke:#000000;stroke-width:0.8;" x="408.035936" xlink:href="#me7f94ae584" y="307.584"/>
      </g>
     </g>
     <g id="text_8">
      <!-- 17.5 -->
      <g transform="translate(396.903123 322.182437)scale(0.1 -0.1)">
       <use xlink:href="#DejaVuSans-31"/>
       <use x="63.623047" xlink:href="#DejaVuSans-37"/>
       <use x="127.246094" xlink:href="#DejaVuSans-2e"/>
       <use x="159.033203" xlink:href="#DejaVuSans-35"/>
      </g>
     </g>
    </g>
    <g id="text_9">
     <!-- Generations -->
     <g transform="translate(205.662344 335.860562)scale(0.1 -0.1)">
      <defs>
       <path d="M 3809 666 
L 3809 1919 
L 2778 1919 
L 2778 2438 
L 4434 2438 
L 4434 434 
Q 4069 175 3628 42 
Q 3188 -91 2688 -91 
Q 1594 -91 976 548 
Q 359 1188 359 2328 
Q 359 3472 976 4111 
Q 1594 4750 2688 4750 
Q 3144 4750 3555 4637 
Q 3966 4525 4313 4306 
L 4313 3634 
Q 3963 3931 3569 4081 
Q 3175 4231 2741 4231 
Q 1884 4231 1454 3753 
Q 1025 3275 1025 2328 
Q 1025 1384 1454 906 
Q 1884 428 2741 428 
Q 3075 428 3337 486 
Q 3600 544 3809 666 
z
" id="DejaVuSans-47" transform="scale(0.015625)"/>
       <path d="M 3597 1894 
L 3597 1613 
L 953 1613 
Q 991 1019 1311 708 
Q 1631 397 2203 397 
Q 2534 397 2845 478 
Q 3156 559 3463 722 
L 3463 178 
Q 3153 47 2828 -22 
Q 2503 -91 2169 -91 
Q 1331 -91 842 396 
Q 353 884 353 1716 
Q 353 2575 817 3079 
Q 1281 3584 2069 3584 
Q 2775 3584 3186 3129 
Q 3597 2675 3597 1894 
z
M 3022 2063 
Q 3016 2534 2758 2815 
Q 2500 3097 2075 3097 
Q 1594 3097 1305 2825 
Q 1016 2553 972 2059 
L 3022 2063 
z
" id="DejaVuSans-65" transform="scale(0.015625)"/>
       <path d="M 3513 2113 
L 3513 0 
L 2938 0 
L 2938 2094 
Q 2938 2591 2744 2837 
Q 2550 3084 2163 3084 
Q 1697 3084 1428 2787 
Q 1159 2491 1159 1978 
L 1159 0 
L 581 0 
L 581 3500 
L 1159 3500 
L 1159 2956 
Q 1366 3272 1645 3428 
Q 1925 3584 2291 3584 
Q 2894 3584 3203 3211 
Q 3513 2838 3513 2113 
z
" id="DejaVuSans-6e" transform="scale(0.015625)"/>
       <path d="M 2631 2963 
Q 2534 3019 2420 3045 
Q 2306 3072 2169 3072 
Q 1681 3072 1420 2755 
Q 1159 2438 1159 1844 
L 1159 0 
L 581 0 
L 581 3500 
L 1159 3500 
L 1159 2956 
Q 1341 3275 1631 3429 
Q 1922 3584 2338 3584 
Q 2397 3584 2469 3576 
Q 2541 3569 2628 3553 
L 2631 2963 
z
" id="DejaVuSans-72" transform="scale(0.015625)"/>
       <path d="M 2194 1759 
Q 1497 1759 1228 1600 
Q 959 1441 959 1056 
Q 959 750 1161 570 
Q 1363 391 1709 391 
Q 2188 391 2477 730 
Q 2766 1069 2766 1631 
L 2766 1759 
L 2194 1759 
z
M 3341 1997 
L 3341 0 
L 2766 0 
L 2766 531 
Q 2569 213 2275 61 
Q 1981 -91 1556 -91 
Q 1019 -91 701 211 
Q 384 513 384 1019 
Q 384 1609 779 1909 
Q 1175 2209 1959 2209 
L 2766 2209 
L 2766 2266 
Q 2766 2663 2505 2880 
Q 2244 3097 1772 3097 
Q 1472 3097 1187 3025 
Q 903 2953 641 2809 
L 641 3341 
Q 956 3463 1253 3523 
Q 1550 3584 1831 3584 
Q 2591 3584 2966 3190 
Q 3341 2797 3341 1997 
z
" id="DejaVuSans-61" transform="scale(0.015625)"/>
       <path d="M 1172 4494 
L 1172 3500 
L 2356 3500 
L 2356 3053 
L 1172 3053 
L 1172 1153 
Q 1172 725 1289 603 
Q 1406 481 1766 481 
L 2356 481 
L 2356 0 
L 1766 0 
Q 1100 0 847 248 
Q 594 497 594 1153 
L 594 3053 
L 172 3053 
L 172 3500 
L 594 3500 
L 594 4494 
L 1172 4494 
z
" id="DejaVuSans-74" transform="scale(0.015625)"/>
       <path d="M 603 3500 
L 1178 3500 
L 1178 0 
L 603 0 
L 603 3500 
z
M 603 4863 
L 1178 4863 
L 1178 4134 
L 603 4134 
L 603 4863 
z
" id="DejaVuSans-69" transform="scale(0.015625)"/>
       <path d="M 1959 3097 
Q 1497 3097 1228 2736 
Q 959 2375 959 1747 
Q 959 1119 1226 758 
Q 1494 397 1959 397 
Q 2419 397 2687 759 
Q 2956 1122 2956 1747 
Q 2956 2369 2687 2733 
Q 2419 3097 1959 3097 
z
M 1959 3584 
Q 2709 3584 3137 3096 
Q 3566 2609 3566 1747 
Q 3566 888 3137 398 
Q 2709 -91 1959 -91 
Q 1206 -91 779 398 
Q 353 888 353 1747 
Q 353 2609 779 3096 
Q 1206 3584 1959 3584 
z
" id="DejaVuSans-6f" transform="scale(0.015625)"/>
       <path d="M 2834 3397 
L 2834 2853 
Q 2591 2978 2328 3040 
Q 2066 3103 1784 3103 
Q 1356 3103 1142 2972 
Q 928 2841 928 2578 
Q 928 2378 1081 2264 
Q 1234 2150 1697 2047 
L 1894 2003 
Q 2506 1872 2764 1633 
Q 3022 1394 3022 966 
Q 3022 478 2636 193 
Q 2250 -91 1575 -91 
Q 1294 -91 989 -36 
Q 684 19 347 128 
L 347 722 
Q 666 556 975 473 
Q 1284 391 1588 391 
Q 1994 391 2212 530 
Q 2431 669 2431 922 
Q 2431 1156 2273 1281 
Q 2116 1406 1581 1522 
L 1381 1569 
Q 847 1681 609 1914 
Q 372 2147 372 2553 
Q 372 3047 722 3315 
Q 1072 3584 1716 3584 
Q 2034 3584 2315 3537 
Q 2597 3491 2834 3397 
z
" id="DejaVuSans-73" transform="scale(0.015625)"/>
      </defs>
      <use xlink:href="#DejaVuSans-47"/>
      <use x="77.490234" xlink:href="#DejaVuSans-65"/>
      <use x="139.013672" xlink:href="#DejaVuSans-6e"/>
      <use x="202.392578" xlink:href="#DejaVuSans-65"/>
      <use x="263.916016" xlink:href="#DejaVuSans-72"/>
      <use x="305.029297" xlink:href="#DejaVuSans-61"/>
      <use x="366.308594" xlink:href="#DejaVuSans-74"/>
      <use x="405.517578" xlink:href="#DejaVuSans-69"/>
      <use x="433.300781" xlink:href="#DejaVuSans-6f"/>
      <use x="494.482422" xlink:href="#DejaVuSans-6e"/>
      <use x="557.861328" xlink:href="#DejaVuSans-73"/>
     </g>
    </g>
   </g>
   <g id="matplotlib.axis_2">
    <g id="ytick_1">
     <g id="line2d_9">
      <defs>
       <path d="M 0 0 
L -3.5 0 
" id="m4c57b539bf" style="stroke:#000000;stroke-width:0.8;"/>
      </defs>
      <g>
       <use style="stroke:#000000;stroke-width:0.8;" x="57.6" xlink:href="#m4c57b539bf" y="307.584"/>
      </g>
     </g>
     <g id="text_10">
      <!-- 0 -->
      <g transform="translate(44.2375 311.383219)scale(0.1 -0.1)">
       <use xlink:href="#DejaVuSans-30"/>
      </g>
     </g>
    </g>
    <g id="ytick_2">
     <g id="line2d_10">
      <g>
       <use style="stroke:#000000;stroke-width:0.8;" x="57.6" xlink:href="#m4c57b539bf" y="257.497043"/>
      </g>
     </g>
     <g id="text_11">
      <!-- 50 -->
      <g transform="translate(37.875 261.296262)scale(0.1 -0.1)">
       <use xlink:href="#DejaVuSans-35"/>
       <use x="63.623047" xlink:href="#DejaVuSans-30"/>
      </g>
     </g>
    </g>
    <g id="ytick_3">
     <g id="line2d_11">
      <g>
       <use style="stroke:#000000;stroke-width:0.8;" x="57.6" xlink:href="#m4c57b539bf" y="207.410087"/>
      </g>
     </g>
     <g id="text_12">
      <!-- 100 -->
      <g transform="translate(31.5125 211.209306)scale(0.1 -0.1)">
       <use xlink:href="#DejaVuSans-31"/>
       <use x="63.623047" xlink:href="#DejaVuSans-30"/>
       <use x="127.246094" xlink:href="#DejaVuSans-30"/>
      </g>
     </g>
    </g>
    <g id="ytick_4">
     <g id="line2d_12">
      <g>
       <use style="stroke:#000000;stroke-width:0.8;" x="57.6" xlink:href="#m4c57b539bf" y="157.32313"/>
      </g>
     </g>
     <g id="text_13">
      <!-- 150 -->
      <g transform="translate(31.5125 161.122349)scale(0.1 -0.1)">
       <use xlink:href="#DejaVuSans-31"/>
       <use x="63.623047" xlink:href="#DejaVuSans-35"/>
       <use x="127.246094" xlink:href="#DejaVuSans-30"/>
      </g>
     </g>
    </g>
    <g id="ytick_5">
     <g id="line2d_13">
      <g>
       <use style="stroke:#000000;stroke-width:0.8;" x="57.6" xlink:href="#m4c57b539bf" y="107.236174"/>
      </g>
     </g>
     <g id="text_14">
      <!-- 200 -->
      <g transform="translate(31.5125 111.035393)scale(0.1 -0.1)">
       <use xlink:href="#DejaVuSans-32"/>
       <use x="63.623047" xlink:href="#DejaVuSans-30"/>
       <use x="127.246094" xlink:href="#DejaVuSans-30"/>
      </g>
     </g>
    </g>
    <g id="ytick_6">
     <g id="line2d_14">
      <g>
       <use style="stroke:#000000;stroke-width:0.8;" x="57.6" xlink:href="#m4c57b539bf" y="57.149217"/>
      </g>
     </g>
     <g id="text_15">
      <!-- 250 -->
      <g transform="translate(31.5125 60.948436)scale(0.1 -0.1)">
       <use xlink:href="#DejaVuSans-32"/>
       <use x="63.623047" xlink:href="#DejaVuSans-35"/>
       <use x="127.246094" xlink:href="#DejaVuSans-30"/>
      </g>
     </g>
    </g>
    <g id="text_16">
     <!-- Size per Species -->
     <g transform="translate(25.432812 215.520969)rotate(-90)scale(0.1 -0.1)">
      <defs>
       <path d="M 3425 4513 
L 3425 3897 
Q 3066 4069 2747 4153 
Q 2428 4238 2131 4238 
Q 1616 4238 1336 4038 
Q 1056 3838 1056 3469 
Q 1056 3159 1242 3001 
Q 1428 2844 1947 2747 
L 2328 2669 
Q 3034 2534 3370 2195 
Q 3706 1856 3706 1288 
Q 3706 609 3251 259 
Q 2797 -91 1919 -91 
Q 1588 -91 1214 -16 
Q 841 59 441 206 
L 441 856 
Q 825 641 1194 531 
Q 1563 422 1919 422 
Q 2459 422 2753 634 
Q 3047 847 3047 1241 
Q 3047 1584 2836 1778 
Q 2625 1972 2144 2069 
L 1759 2144 
Q 1053 2284 737 2584 
Q 422 2884 422 3419 
Q 422 4038 858 4394 
Q 1294 4750 2059 4750 
Q 2388 4750 2728 4690 
Q 3069 4631 3425 4513 
z
" id="DejaVuSans-53" transform="scale(0.015625)"/>
       <path d="M 353 3500 
L 3084 3500 
L 3084 2975 
L 922 459 
L 3084 459 
L 3084 0 
L 275 0 
L 275 525 
L 2438 3041 
L 353 3041 
L 353 3500 
z
" id="DejaVuSans-7a" transform="scale(0.015625)"/>
       <path id="DejaVuSans-20" transform="scale(0.015625)"/>
       <path d="M 1159 525 
L 1159 -1331 
L 581 -1331 
L 581 3500 
L 1159 3500 
L 1159 2969 
Q 1341 3281 1617 3432 
Q 1894 3584 2278 3584 
Q 2916 3584 3314 3078 
Q 3713 2572 3713 1747 
Q 3713 922 3314 415 
Q 2916 -91 2278 -91 
Q 1894 -91 1617 61 
Q 1341 213 1159 525 
z
M 3116 1747 
Q 3116 2381 2855 2742 
Q 2594 3103 2138 3103 
Q 1681 3103 1420 2742 
Q 1159 2381 1159 1747 
Q 1159 1113 1420 752 
Q 1681 391 2138 391 
Q 2594 391 2855 752 
Q 3116 1113 3116 1747 
z
" id="DejaVuSans-70" transform="scale(0.015625)"/>
       <path d="M 3122 3366 
L 3122 2828 
Q 2878 2963 2633 3030 
Q 2388 3097 2138 3097 
Q 1578 3097 1268 2742 
Q 959 2388 959 1747 
Q 959 1106 1268 751 
Q 1578 397 2138 397 
Q 2388 397 2633 464 
Q 2878 531 3122 666 
L 3122 134 
Q 2881 22 2623 -34 
Q 2366 -91 2075 -91 
Q 1284 -91 818 406 
Q 353 903 353 1747 
Q 353 2603 823 3093 
Q 1294 3584 2113 3584 
Q 2378 3584 2631 3529 
Q 2884 3475 3122 3366 
z
" id="DejaVuSans-63" transform="scale(0.015625)"/>
      </defs>
      <use xlink:href="#DejaVuSans-53"/>
      <use x="63.476562" xlink:href="#DejaVuSans-69"/>
      <use x="91.259766" xlink:href="#DejaVuSans-7a"/>
      <use x="143.75" xlink:href="#DejaVuSans-65"/>
      <use x="205.273438" xlink:href="#DejaVuSans-20"/>
      <use x="237.060547" xlink:href="#DejaVuSans-70"/>
      <use x="300.537109" xlink:href="#DejaVuSans-65"/>
      <use x="362.060547" xlink:href="#DejaVuSans-72"/>
      <use x="403.173828" xlink:href="#DejaVuSans-20"/>
      <use x="434.960938" xlink:href="#DejaVuSans-53"/>
      <use x="498.4375" xlink:href="#DejaVuSans-70"/>
      <use x="561.914062" xlink:href="#DejaVuSans-65"/>
      <use x="623.4375" xlink:href="#DejaVuSans-63"/>
      <use x="678.417969" xlink:href="#DejaVuSans-69"/>
      <use x="706.201172" xlink:href="#DejaVuSans-65"/>
      <use x="767.724609" xlink:href="#DejaVuSans-73"/>
     </g>
    </g>
   </g>
   <g id="patch_3">
    <path d="M 57.6 307.584 
L 57.6 41.472 
" style="fill:none;stroke:#000000;stroke-linecap:square;stroke-linejoin:miter;stroke-width:0.8;"/>
   </g>
   <g id="patch_4">
    <path d="M 414.72 307.584 
L 414.72 41.472 
" style="fill:none;stroke:#000000;stroke-linecap:square;stroke-linejoin:miter;stroke-width:0.8;"/>
   </g>
   <g id="patch_5">
    <path d="M 57.6 307.584 
L 414.72 307.584 
" style="fill:none;stroke:#000000;stroke-linecap:square;stroke-linejoin:miter;stroke-width:0.8;"/>
   </g>
   <g id="patch_6">
    <path d="M 57.6 41.472 
L 414.72 41.472 
" style="fill:none;stroke:#000000;stroke-linecap:square;stroke-linejoin:miter;stroke-width:0.8;"/>
   </g>
   <g id="text_17">
    <!-- Speciation -->
    <g transform="translate(204.714375 35.472)scale(0.12 -0.12)">
     <use xlink:href="#DejaVuSans-53"/>
     <use x="63.476562" xlink:href="#DejaVuSans-70"/>
     <use x="126.953125" xlink:href="#DejaVuSans-65"/>
     <use x="188.476562" xlink:href="#DejaVuSans-63"/>
     <use x="243.457031" xlink:href="#DejaVuSans-69"/>
     <use x="271.240234" xlink:href="#DejaVuSans-61"/>
     <use x="332.519531" xlink:href="#DejaVuSans-74"/>
     <use x="371.728516" xlink:href="#DejaVuSans-69"/>
     <use x="399.511719" xlink:href="#DejaVuSans-6f"/>
     <use x="460.693359" xlink:href="#DejaVuSans-6e"/>
    </g>
   </g>
  </g>
 </g>
 <defs>
  <clipPath id="pd11f125476">
   <rect height="266.112" width="357.12" x="57.6" y="41.472"/>
  </clipPath>
 </defs>
</svg>
