<?xml version="1.0" encoding="UTF-8" standalone="no"?>
<!DOCTYPE svg PUBLIC "-//W3C//DTD SVG 1.1//EN"
 "http://www.w3.org/Graphics/SVG/1.1/DTD/svg11.dtd">
<!-- Generated by graphviz version 2.49.2 (20211016.1639)
 -->
<!-- Pages: 1 -->
<svg width="182pt" height="121pt"
 viewBox="0.00 0.00 181.50 121.40" xmlns="http://www.w3.org/2000/svg" xmlns:xlink="http://www.w3.org/1999/xlink">
<g id="graph0" class="graph" transform="scale(1 1) rotate(0) translate(4 117.4)">
<polygon fill="white" stroke="transparent" points="-4,4 -4,-117.4 177.5,-117.4 177.5,4 -4,4"/>
<!-- x -->
<g id="node1" class="node">
<title>x</title>
<polygon fill="lightgray" stroke="black" points="21,-113.4 0,-113.4 0,-95.4 21,-95.4 21,-113.4"/>
<text text-anchor="middle" x="10.5" y="-102.2" font-family="Times,serif" font-size="9.00">x</text>
</g>
<!-- control -->
<g id="node5" class="node">
<title>control</title>
<ellipse fill="lightblue" stroke="black" cx="56.5" cy="-29.7" rx="29.9" ry="29.9"/>
<text text-anchor="middle" x="56.5" y="-27.5" font-family="Times,serif" font-size="9.00">control</text>
</g>
<!-- x&#45;&gt;control -->
<g id="edge3" class="edge">
<title>x&#45;&gt;control</title>
<path fill="none" stroke="green" stroke-width="0.13" d="M15.6,-95.34C20.45,-87.68 28.07,-75.63 35.42,-64.01"/>
<polygon fill="green" stroke="green" stroke-width="0.13" points="38.56,-65.6 40.95,-55.28 32.64,-61.85 38.56,-65.6"/>
</g>
<!-- dx -->
<g id="node2" class="node">
<title>dx</title>
<polygon fill="lightgray" stroke="black" points="173.5,-113.4 147.5,-113.4 147.5,-95.4 173.5,-95.4 173.5,-113.4"/>
<text text-anchor="middle" x="160.5" y="-102.2" font-family="Times,serif" font-size="9.00">dx</text>
</g>
<!-- theta -->
<g id="node3" class="node">
<title>theta</title>
<polygon fill="lightgray" stroke="black" points="73.5,-113.4 39.5,-113.4 39.5,-95.4 73.5,-95.4 73.5,-113.4"/>
<text text-anchor="middle" x="56.5" y="-102.2" font-family="Times,serif" font-size="9.00">theta</text>
</g>
<!-- theta&#45;&gt;control -->
<g id="edge1" class="edge">
<title>theta&#45;&gt;control</title>
<path fill="none" stroke="green" stroke-width="0.38" d="M56.5,-95.34C56.5,-88.92 56.5,-79.42 56.5,-69.66"/>
<polygon fill="green" stroke="green" stroke-width="0.38" points="60,-69.52 56.5,-59.52 53,-69.52 60,-69.52"/>
</g>
<!-- dtheta -->
<g id="node4" class="node">
<title>dtheta</title>
<polygon fill="lightgray" stroke="black" points="129.5,-113.4 91.5,-113.4 91.5,-95.4 129.5,-95.4 129.5,-113.4"/>
<text text-anchor="middle" x="110.5" y="-102.2" font-family="Times,serif" font-size="9.00">dtheta</text>
</g>
<!-- dtheta&#45;&gt;control -->
<g id="edge2" class="edge">
<title>dtheta&#45;&gt;control</title>
<path fill="none" stroke="green" stroke-width="0.11" d="M104.51,-95.34C98.54,-87.29 88.96,-74.39 79.92,-62.23"/>
<polygon fill="green" stroke="green" stroke-width="0.11" points="82.58,-59.94 73.81,-54 76.96,-64.11 82.58,-59.94"/>
</g>
</g>
</svg>
