<?xml version="1.0" encoding="UTF-8" standalone="no"?>
<!DOCTYPE svg PUBLIC "-//W3C//DTD SVG 1.1//EN"
 "http://www.w3.org/Graphics/SVG/1.1/DTD/svg11.dtd">
<!-- Generated by graphviz version 2.48.0 (20210717.1556)
 -->
<!-- Pages: 1 -->
<svg width="182pt" height="121pt"
 viewBox="0.00 0.00 181.50 121.40" xmlns="http://www.w3.org/2000/svg" xmlns:xlink="http://www.w3.org/1999/xlink">
<g id="graph0" class="graph" transform="scale(1 1) rotate(0) translate(4 117.4)">
<polygon fill="white" stroke="transparent" points="-4,4 -4,-117.4 177.5,-117.4 177.5,4 -4,4"/>
<!-- x -->
<g id="node1" class="node">
<title>x</title>
<polygon fill="lightgray" stroke="black" points="20,-113.4 0,-113.4 0,-95.4 20,-95.4 20,-113.4"/>
<text text-anchor="middle" x="10" y="-102.2" font-family="Times New Roman,serif" font-size="9.00">x</text>
</g>
<!-- dx -->
<g id="node2" class="node">
<title>dx</title>
<polygon fill="lightgray" stroke="black" points="63.5,-113.4 38.5,-113.4 38.5,-95.4 63.5,-95.4 63.5,-113.4"/>
<text text-anchor="middle" x="51" y="-102.2" font-family="Times New Roman,serif" font-size="9.00">dx</text>
</g>
<!-- control -->
<g id="node5" class="node">
<title>control</title>
<ellipse fill="lightblue" stroke="black" cx="99" cy="-29.7" rx="29.9" ry="29.9"/>
<text text-anchor="middle" x="99" y="-27.5" font-family="Times New Roman,serif" font-size="9.00">control</text>
</g>
<!-- dx&#45;&gt;control -->
<g id="edge2" class="edge">
<title>dx&#45;&gt;control</title>
<path fill="none" stroke="green" stroke-width="0.63" d="M56.32,-95.34C61.47,-87.55 69.61,-75.21 77.41,-63.39"/>
<polygon fill="green" stroke="green" stroke-width="0.63" points="80.4,-65.23 82.98,-54.95 74.55,-61.37 80.4,-65.23"/>
</g>
<!-- theta -->
<g id="node3" class="node">
<title>theta</title>
<polygon fill="lightgray" stroke="black" points="116.5,-113.4 81.5,-113.4 81.5,-95.4 116.5,-95.4 116.5,-113.4"/>
<text text-anchor="middle" x="99" y="-102.2" font-family="Times New Roman,serif" font-size="9.00">theta</text>
</g>
<!-- theta&#45;&gt;control -->
<g id="edge3" class="edge">
<title>theta&#45;&gt;control</title>
<path fill="none" stroke="green" stroke-width="0.72" d="M99,-95.34C99,-88.92 99,-79.42 99,-69.66"/>
<polygon fill="green" stroke="green" stroke-width="0.72" points="102.5,-69.52 99,-59.52 95.5,-69.52 102.5,-69.52"/>
</g>
<!-- dtheta -->
<g id="node4" class="node">
<title>dtheta</title>
<polygon fill="lightgray" stroke="black" points="173.5,-113.4 134.5,-113.4 134.5,-95.4 173.5,-95.4 173.5,-113.4"/>
<text text-anchor="middle" x="154" y="-102.2" font-family="Times New Roman,serif" font-size="9.00">dtheta</text>
</g>
<!-- dtheta&#45;&gt;control -->
<g id="edge1" class="edge">
<title>dtheta&#45;&gt;control</title>
<path fill="none" stroke="green" stroke-width="1.21" d="M147.9,-95.34C141.81,-87.29 132.06,-74.39 122.86,-62.23"/>
<polygon fill="green" stroke="green" stroke-width="1.21" points="125.45,-59.86 116.63,-54 119.87,-64.08 125.45,-59.86"/>
</g>
</g>
</svg>
