<?xml version="1.0" encoding="utf-8" standalone="no"?>
<!DOCTYPE svg PUBLIC "-//W3C//DTD SVG 1.1//EN"
  "http://www.w3.org/Graphics/SVG/1.1/DTD/svg11.dtd">
<svg height="345.6pt" version="1.1" viewBox="0 0 460.8 345.6" width="460.8pt" xmlns="http://www.w3.org/2000/svg" xmlns:xlink="http://www.w3.org/1999/xlink">
 <metadata>
  <rdf:RDF xmlns:cc="http://creativecommons.org/ns#" xmlns:dc="http://purl.org/dc/elements/1.1/" xmlns:rdf="http://www.w3.org/1999/02/22-rdf-syntax-ns#">
   <cc:Work>
    <dc:type rdf:resource="http://purl.org/dc/dcmitype/StillImage"/>
    <dc:date>2021-10-24T20:30:10.079614</dc:date>
    <dc:format>image/svg+xml</dc:format>
    <dc:creator>
     <cc:Agent>
      <dc:title>Matplotlib v3.4.3, https://matplotlib.org/</dc:title>
     </cc:Agent>
    </dc:creator>
   </cc:Work>
  </rdf:RDF>
 </metadata>
 <defs>
  <style type="text/css">*{stroke-linecap:butt;stroke-linejoin:round;}</style>
 </defs>
 <g id="figure_1">
  <g id="patch_1">
   <path d="M 0 345.6 
L 460.8 345.6 
L 460.8 0 
L 0 0 
z
" style="fill:#ffffff;"/>
  </g>
  <g id="axes_1">
   <g id="patch_2">
    <path d="M 57.6 307.584 
L 414.72 307.584 
L 414.72 41.472 
L 57.6 41.472 
z
" style="fill:#ffffff;"/>
   </g>
   <g id="PolyCollection_1">
    <path clip-path="url(#p6e0005e362)" d="M 73.832727 226.44313 
L 73.832727 307.584 
L 79.528421 307.584 
L 85.224115 307.584 
L 90.919809 307.584 
L 96.615502 307.584 
L 102.311196 307.584 
L 108.00689 307.584 
L 113.702584 307.584 
L 119.398278 307.584 
L 125.093971 307.584 
L 130.789665 307.584 
L 136.485359 307.584 
L 142.181053 307.584 
L 147.876746 307.584 
L 153.57244 307.584 
L 159.268134 307.584 
L 164.963828 307.584 
L 170.659522 307.584 
L 176.355215 307.584 
L 182.050909 307.584 
L 187.746603 307.584 
L 193.442297 307.584 
L 199.13799 307.584 
L 204.833684 307.584 
L 210.529378 307.584 
L 216.225072 307.584 
L 221.920766 307.584 
L 227.616459 307.584 
L 233.312153 307.584 
L 239.007847 307.584 
L 244.703541 307.584 
L 250.399234 307.584 
L 256.094928 307.584 
L 261.790622 307.584 
L 267.486316 307.584 
L 273.18201 307.584 
L 278.877703 307.584 
L 284.573397 307.584 
L 290.269091 307.584 
L 295.964785 307.584 
L 301.660478 307.584 
L 307.356172 307.584 
L 313.051866 307.584 
L 318.74756 307.584 
L 324.443254 307.584 
L 330.138947 307.584 
L 335.834641 307.584 
L 341.530335 307.584 
L 347.226029 307.584 
L 352.921722 307.584 
L 358.617416 307.584 
L 364.31311 307.584 
L 370.008804 307.584 
L 375.704498 307.584 
L 381.400191 307.584 
L 387.095885 307.584 
L 392.791579 307.584 
L 398.487273 307.584 
L 398.487273 307.584 
L 398.487273 307.584 
L 392.791579 307.584 
L 387.095885 307.584 
L 381.400191 307.584 
L 375.704498 307.584 
L 370.008804 307.584 
L 364.31311 307.584 
L 358.617416 307.584 
L 352.921722 307.584 
L 347.226029 307.584 
L 341.530335 307.584 
L 335.834641 307.584 
L 330.138947 307.584 
L 324.443254 307.584 
L 318.74756 307.584 
L 313.051866 307.584 
L 307.356172 307.584 
L 301.660478 307.584 
L 295.964785 307.584 
L 290.269091 307.584 
L 284.573397 307.584 
L 278.877703 307.584 
L 273.18201 307.584 
L 267.486316 307.584 
L 261.790622 307.584 
L 256.094928 268.516174 
L 250.399234 271.521391 
L 244.703541 267.514435 
L 239.007847 276.530087 
L 233.312153 283.542261 
L 227.616459 274.526609 
L 221.920766 261.504 
L 216.225072 273.52487 
L 210.529378 289.552696 
L 204.833684 274.526609 
L 199.13799 284.544 
L 193.442297 281.538783 
L 187.746603 293.559652 
L 182.050909 295.56313 
L 176.355215 288.550957 
L 170.659522 293.559652 
L 164.963828 290.554435 
L 159.268134 302.575304 
L 153.57244 293.559652 
L 147.876746 293.559652 
L 142.181053 293.559652 
L 136.485359 290.554435 
L 130.789665 296.56487 
L 125.093971 286.547478 
L 119.398278 287.549217 
L 113.702584 294.561391 
L 108.00689 286.547478 
L 102.311196 288.550957 
L 96.615502 299.570087 
L 90.919809 294.561391 
L 85.224115 289.552696 
L 79.528421 290.554435 
L 73.832727 226.44313 
z
" style="fill:#1f77b4;"/>
   </g>
   <g id="PolyCollection_2">
    <path clip-path="url(#p6e0005e362)" d="M 73.832727 225.441391 
L 73.832727 226.44313 
L 79.528421 290.554435 
L 85.224115 289.552696 
L 90.919809 294.561391 
L 96.615502 299.570087 
L 102.311196 288.550957 
L 108.00689 286.547478 
L 113.702584 294.561391 
L 119.398278 287.549217 
L 125.093971 286.547478 
L 130.789665 296.56487 
L 136.485359 290.554435 
L 142.181053 293.559652 
L 147.876746 293.559652 
L 153.57244 293.559652 
L 159.268134 302.575304 
L 164.963828 290.554435 
L 170.659522 293.559652 
L 176.355215 288.550957 
L 182.050909 295.56313 
L 187.746603 293.559652 
L 193.442297 281.538783 
L 199.13799 284.544 
L 204.833684 274.526609 
L 210.529378 289.552696 
L 216.225072 273.52487 
L 221.920766 261.504 
L 227.616459 274.526609 
L 233.312153 283.542261 
L 239.007847 276.530087 
L 244.703541 267.514435 
L 250.399234 271.521391 
L 256.094928 268.516174 
L 261.790622 307.584 
L 267.486316 307.584 
L 273.18201 307.584 
L 278.877703 307.584 
L 284.573397 307.584 
L 290.269091 307.584 
L 295.964785 307.584 
L 301.660478 307.584 
L 307.356172 307.584 
L 313.051866 307.584 
L 318.74756 307.584 
L 324.443254 307.584 
L 330.138947 307.584 
L 335.834641 307.584 
L 341.530335 307.584 
L 347.226029 307.584 
L 352.921722 307.584 
L 358.617416 307.584 
L 364.31311 307.584 
L 370.008804 307.584 
L 375.704498 307.584 
L 381.400191 307.584 
L 387.095885 307.584 
L 392.791579 307.584 
L 398.487273 307.584 
L 398.487273 307.584 
L 398.487273 307.584 
L 392.791579 307.584 
L 387.095885 307.584 
L 381.400191 307.584 
L 375.704498 307.584 
L 370.008804 307.584 
L 364.31311 307.584 
L 358.617416 307.584 
L 352.921722 307.584 
L 347.226029 307.584 
L 341.530335 307.584 
L 335.834641 307.584 
L 330.138947 307.584 
L 324.443254 307.584 
L 318.74756 307.584 
L 313.051866 307.584 
L 307.356172 307.584 
L 301.660478 307.584 
L 295.964785 307.584 
L 290.269091 307.584 
L 284.573397 307.584 
L 278.877703 307.584 
L 273.18201 294.561391 
L 267.486316 292.557913 
L 261.790622 291.556174 
L 256.094928 253.490087 
L 250.399234 259.500522 
L 244.703541 256.495304 
L 239.007847 264.509217 
L 233.312153 273.52487 
L 227.616459 262.505739 
L 221.920766 247.479652 
L 216.225072 260.502261 
L 210.529378 275.528348 
L 204.833684 260.502261 
L 199.13799 269.517913 
L 193.442297 267.514435 
L 187.746603 281.538783 
L 182.050909 287.549217 
L 176.355215 280.537043 
L 170.659522 286.547478 
L 164.963828 277.531826 
L 159.268134 288.550957 
L 153.57244 278.533565 
L 147.876746 280.537043 
L 142.181053 281.538783 
L 136.485359 281.538783 
L 130.789665 287.549217 
L 125.093971 276.530087 
L 119.398278 275.528348 
L 113.702584 286.547478 
L 108.00689 277.531826 
L 102.311196 280.537043 
L 96.615502 289.552696 
L 90.919809 285.545739 
L 85.224115 281.538783 
L 79.528421 284.544 
L 73.832727 225.441391 
z
" style="fill:#ff7f0e;"/>
   </g>
   <g id="PolyCollection_3">
    <path clip-path="url(#p6e0005e362)" d="M 73.832727 217.427478 
L 73.832727 225.441391 
L 79.528421 284.544 
L 85.224115 281.538783 
L 90.919809 285.545739 
L 96.615502 289.552696 
L 102.311196 280.537043 
L 108.00689 277.531826 
L 113.702584 286.547478 
L 119.398278 275.528348 
L 125.093971 276.530087 
L 130.789665 287.549217 
L 136.485359 281.538783 
L 142.181053 281.538783 
L 147.876746 280.537043 
L 153.57244 278.533565 
L 159.268134 288.550957 
L 164.963828 277.531826 
L 170.659522 286.547478 
L 176.355215 280.537043 
L 182.050909 287.549217 
L 187.746603 281.538783 
L 193.442297 267.514435 
L 199.13799 269.517913 
L 204.833684 260.502261 
L 210.529378 275.528348 
L 216.225072 260.502261 
L 221.920766 247.479652 
L 227.616459 262.505739 
L 233.312153 273.52487 
L 239.007847 264.509217 
L 244.703541 256.495304 
L 250.399234 259.500522 
L 256.094928 253.490087 
L 261.790622 291.556174 
L 267.486316 292.557913 
L 273.18201 294.561391 
L 278.877703 307.584 
L 284.573397 307.584 
L 290.269091 307.584 
L 295.964785 307.584 
L 301.660478 307.584 
L 307.356172 307.584 
L 313.051866 307.584 
L 318.74756 307.584 
L 324.443254 307.584 
L 330.138947 307.584 
L 335.834641 307.584 
L 341.530335 307.584 
L 347.226029 307.584 
L 352.921722 307.584 
L 358.617416 307.584 
L 364.31311 307.584 
L 370.008804 307.584 
L 375.704498 307.584 
L 381.400191 307.584 
L 387.095885 307.584 
L 392.791579 307.584 
L 398.487273 307.584 
L 398.487273 307.584 
L 398.487273 307.584 
L 392.791579 307.584 
L 387.095885 307.584 
L 381.400191 307.584 
L 375.704498 307.584 
L 370.008804 307.584 
L 364.31311 307.584 
L 358.617416 307.584 
L 352.921722 307.584 
L 347.226029 307.584 
L 341.530335 307.584 
L 335.834641 307.584 
L 330.138947 307.584 
L 324.443254 307.584 
L 318.74756 307.584 
L 313.051866 307.584 
L 307.356172 307.584 
L 301.660478 307.584 
L 295.964785 307.584 
L 290.269091 307.584 
L 284.573397 307.584 
L 278.877703 307.584 
L 273.18201 294.561391 
L 267.486316 292.557913 
L 261.790622 291.556174 
L 256.094928 253.490087 
L 250.399234 251.486609 
L 244.703541 246.477913 
L 239.007847 255.493565 
L 233.312153 262.505739 
L 227.616459 245.476174 
L 221.920766 240.467478 
L 216.225072 250.48487 
L 210.529378 267.514435 
L 204.833684 251.486609 
L 199.13799 256.495304 
L 193.442297 249.48313 
L 187.746603 263.507478 
L 182.050909 274.526609 
L 176.355215 275.528348 
L 170.659522 274.526609 
L 164.963828 271.521391 
L 159.268134 279.535304 
L 153.57244 268.516174 
L 147.876746 275.528348 
L 142.181053 275.528348 
L 136.485359 260.502261 
L 130.789665 283.542261 
L 125.093971 261.504 
L 119.398278 264.509217 
L 113.702584 248.481391 
L 108.00689 256.495304 
L 102.311196 252.488348 
L 96.615502 283.542261 
L 90.919809 261.504 
L 85.224115 262.505739 
L 79.528421 262.505739 
L 73.832727 217.427478 
z
" style="fill:#2ca02c;"/>
   </g>
   <g id="PolyCollection_4">
    <path clip-path="url(#p6e0005e362)" d="M 73.832727 212.418783 
L 73.832727 217.427478 
L 79.528421 262.505739 
L 85.224115 262.505739 
L 90.919809 261.504 
L 96.615502 283.542261 
L 102.311196 252.488348 
L 108.00689 256.495304 
L 113.702584 248.481391 
L 119.398278 264.509217 
L 125.093971 261.504 
L 130.789665 283.542261 
L 136.485359 260.502261 
L 142.181053 275.528348 
L 147.876746 275.528348 
L 153.57244 268.516174 
L 159.268134 279.535304 
L 164.963828 271.521391 
L 170.659522 274.526609 
L 176.355215 275.528348 
L 182.050909 274.526609 
L 187.746603 263.507478 
L 193.442297 249.48313 
L 199.13799 256.495304 
L 204.833684 251.486609 
L 210.529378 267.514435 
L 216.225072 250.48487 
L 221.920766 240.467478 
L 227.616459 245.476174 
L 233.312153 262.505739 
L 239.007847 255.493565 
L 244.703541 246.477913 
L 250.399234 251.486609 
L 256.094928 253.490087 
L 261.790622 291.556174 
L 267.486316 292.557913 
L 273.18201 294.561391 
L 278.877703 307.584 
L 284.573397 307.584 
L 290.269091 307.584 
L 295.964785 307.584 
L 301.660478 307.584 
L 307.356172 307.584 
L 313.051866 307.584 
L 318.74756 307.584 
L 324.443254 307.584 
L 330.138947 307.584 
L 335.834641 307.584 
L 341.530335 307.584 
L 347.226029 307.584 
L 352.921722 307.584 
L 358.617416 307.584 
L 364.31311 307.584 
L 370.008804 307.584 
L 375.704498 307.584 
L 381.400191 307.584 
L 387.095885 307.584 
L 392.791579 307.584 
L 398.487273 307.584 
L 398.487273 307.584 
L 398.487273 307.584 
L 392.791579 307.584 
L 387.095885 307.584 
L 381.400191 307.584 
L 375.704498 307.584 
L 370.008804 307.584 
L 364.31311 307.584 
L 358.617416 307.584 
L 352.921722 307.584 
L 347.226029 307.584 
L 341.530335 307.584 
L 335.834641 307.584 
L 330.138947 307.584 
L 324.443254 307.584 
L 318.74756 307.584 
L 313.051866 307.584 
L 307.356172 307.584 
L 301.660478 307.584 
L 295.964785 307.584 
L 290.269091 284.544 
L 284.573397 286.547478 
L 278.877703 289.552696 
L 273.18201 281.538783 
L 267.486316 257.497043 
L 261.790622 242.470957 
L 256.094928 240.467478 
L 250.399234 236.460522 
L 244.703541 230.450087 
L 239.007847 241.469217 
L 233.312153 257.497043 
L 227.616459 234.457043 
L 221.920766 239.465739 
L 216.225072 225.441391 
L 210.529378 245.476174 
L 204.833684 244.474435 
L 199.13799 240.467478 
L 193.442297 234.457043 
L 187.746603 242.470957 
L 182.050909 255.493565 
L 176.355215 256.495304 
L 170.659522 260.502261 
L 164.963828 250.48487 
L 159.268134 263.507478 
L 153.57244 245.476174 
L 147.876746 258.498783 
L 142.181053 254.491826 
L 136.485359 228.446609 
L 130.789665 260.502261 
L 125.093971 255.493565 
L 119.398278 253.490087 
L 113.702584 246.477913 
L 108.00689 246.477913 
L 102.311196 245.476174 
L 96.615502 276.530087 
L 90.919809 256.495304 
L 85.224115 256.495304 
L 79.528421 248.481391 
L 73.832727 212.418783 
z
" style="fill:#d62728;"/>
   </g>
   <g id="PolyCollection_5">
    <path clip-path="url(#p6e0005e362)" d="M 73.832727 211.417043 
L 73.832727 212.418783 
L 79.528421 248.481391 
L 85.224115 256.495304 
L 90.919809 256.495304 
L 96.615502 276.530087 
L 102.311196 245.476174 
L 108.00689 246.477913 
L 113.702584 246.477913 
L 119.398278 253.490087 
L 125.093971 255.493565 
L 130.789665 260.502261 
L 136.485359 228.446609 
L 142.181053 254.491826 
L 147.876746 258.498783 
L 153.57244 245.476174 
L 159.268134 263.507478 
L 164.963828 250.48487 
L 170.659522 260.502261 
L 176.355215 256.495304 
L 182.050909 255.493565 
L 187.746603 242.470957 
L 193.442297 234.457043 
L 199.13799 240.467478 
L 204.833684 244.474435 
L 210.529378 245.476174 
L 216.225072 225.441391 
L 221.920766 239.465739 
L 227.616459 234.457043 
L 233.312153 257.497043 
L 239.007847 241.469217 
L 244.703541 230.450087 
L 250.399234 236.460522 
L 256.094928 240.467478 
L 261.790622 242.470957 
L 267.486316 257.497043 
L 273.18201 281.538783 
L 278.877703 289.552696 
L 284.573397 286.547478 
L 290.269091 284.544 
L 295.964785 307.584 
L 301.660478 307.584 
L 307.356172 307.584 
L 313.051866 307.584 
L 318.74756 307.584 
L 324.443254 307.584 
L 330.138947 307.584 
L 335.834641 307.584 
L 341.530335 307.584 
L 347.226029 307.584 
L 352.921722 307.584 
L 358.617416 307.584 
L 364.31311 307.584 
L 370.008804 307.584 
L 375.704498 307.584 
L 381.400191 307.584 
L 387.095885 307.584 
L 392.791579 307.584 
L 398.487273 307.584 
L 398.487273 307.584 
L 398.487273 307.584 
L 392.791579 307.584 
L 387.095885 307.584 
L 381.400191 307.584 
L 375.704498 307.584 
L 370.008804 307.584 
L 364.31311 307.584 
L 358.617416 307.584 
L 352.921722 307.584 
L 347.226029 307.584 
L 341.530335 307.584 
L 335.834641 307.584 
L 330.138947 307.584 
L 324.443254 307.584 
L 318.74756 307.584 
L 313.051866 307.584 
L 307.356172 307.584 
L 301.660478 307.584 
L 295.964785 307.584 
L 290.269091 284.544 
L 284.573397 286.547478 
L 278.877703 289.552696 
L 273.18201 281.538783 
L 267.486316 257.497043 
L 261.790622 242.470957 
L 256.094928 240.467478 
L 250.399234 236.460522 
L 244.703541 230.450087 
L 239.007847 241.469217 
L 233.312153 253.490087 
L 227.616459 232.453565 
L 221.920766 236.460522 
L 216.225072 223.437913 
L 210.529378 243.472696 
L 204.833684 242.470957 
L 199.13799 237.462261 
L 193.442297 230.450087 
L 187.746603 240.467478 
L 182.050909 253.490087 
L 176.355215 254.491826 
L 170.659522 258.498783 
L 164.963828 249.48313 
L 159.268134 260.502261 
L 153.57244 243.472696 
L 147.876746 255.493565 
L 142.181053 252.488348 
L 136.485359 226.44313 
L 130.789665 259.500522 
L 125.093971 252.488348 
L 119.398278 251.486609 
L 113.702584 243.472696 
L 108.00689 242.470957 
L 102.311196 241.469217 
L 96.615502 271.521391 
L 90.919809 252.488348 
L 85.224115 250.48487 
L 79.528421 243.472696 
L 73.832727 211.417043 
z
" style="fill:#9467bd;"/>
   </g>
   <g id="PolyCollection_6">
    <path clip-path="url(#p6e0005e362)" d="M 73.832727 185.371826 
L 73.832727 211.417043 
L 79.528421 243.472696 
L 85.224115 250.48487 
L 90.919809 252.488348 
L 96.615502 271.521391 
L 102.311196 241.469217 
L 108.00689 242.470957 
L 113.702584 243.472696 
L 119.398278 251.486609 
L 125.093971 252.488348 
L 130.789665 259.500522 
L 136.485359 226.44313 
L 142.181053 252.488348 
L 147.876746 255.493565 
L 153.57244 243.472696 
L 159.268134 260.502261 
L 164.963828 249.48313 
L 170.659522 258.498783 
L 176.355215 254.491826 
L 182.050909 253.490087 
L 187.746603 240.467478 
L 193.442297 230.450087 
L 199.13799 237.462261 
L 204.833684 242.470957 
L 210.529378 243.472696 
L 216.225072 223.437913 
L 221.920766 236.460522 
L 227.616459 232.453565 
L 233.312153 253.490087 
L 239.007847 241.469217 
L 244.703541 230.450087 
L 250.399234 236.460522 
L 256.094928 240.467478 
L 261.790622 242.470957 
L 267.486316 257.497043 
L 273.18201 281.538783 
L 278.877703 289.552696 
L 284.573397 286.547478 
L 290.269091 284.544 
L 295.964785 307.584 
L 301.660478 307.584 
L 307.356172 307.584 
L 313.051866 307.584 
L 318.74756 307.584 
L 324.443254 307.584 
L 330.138947 307.584 
L 335.834641 307.584 
L 341.530335 307.584 
L 347.226029 307.584 
L 352.921722 307.584 
L 358.617416 307.584 
L 364.31311 307.584 
L 370.008804 307.584 
L 375.704498 307.584 
L 381.400191 307.584 
L 387.095885 307.584 
L 392.791579 307.584 
L 398.487273 307.584 
L 398.487273 286.547478 
L 398.487273 286.547478 
L 392.791579 286.547478 
L 387.095885 283.542261 
L 381.400191 281.538783 
L 375.704498 285.545739 
L 370.008804 269.517913 
L 364.31311 255.493565 
L 358.617416 275.528348 
L 352.921722 263.507478 
L 347.226029 274.526609 
L 341.530335 264.509217 
L 335.834641 281.538783 
L 330.138947 264.509217 
L 324.443254 286.547478 
L 318.74756 267.514435 
L 313.051866 282.540522 
L 307.356172 291.556174 
L 301.660478 292.557913 
L 295.964785 275.528348 
L 290.269091 249.48313 
L 284.573397 228.446609 
L 278.877703 253.490087 
L 273.18201 224.439652 
L 267.486316 219.430957 
L 261.790622 219.430957 
L 256.094928 227.44487 
L 250.399234 218.429217 
L 244.703541 208.411826 
L 239.007847 222.436174 
L 233.312153 236.460522 
L 227.616459 218.429217 
L 221.920766 224.439652 
L 216.225072 215.424 
L 210.529378 235.458783 
L 204.833684 236.460522 
L 199.13799 229.448348 
L 193.442297 221.434435 
L 187.746603 229.448348 
L 182.050909 241.469217 
L 176.355215 238.464 
L 170.659522 241.469217 
L 164.963828 234.457043 
L 159.268134 243.472696 
L 153.57244 234.457043 
L 147.876746 239.465739 
L 142.181053 244.474435 
L 136.485359 200.397913 
L 130.789665 234.457043 
L 125.093971 219.430957 
L 119.398278 228.446609 
L 113.702584 211.417043 
L 108.00689 207.410087 
L 102.311196 226.44313 
L 96.615502 250.48487 
L 90.919809 244.474435 
L 85.224115 227.44487 
L 79.528421 232.453565 
L 73.832727 185.371826 
z
" style="fill:#8c564b;"/>
   </g>
   <g id="PolyCollection_7">
    <path clip-path="url(#p6e0005e362)" d="M 73.832727 151.312696 
L 73.832727 185.371826 
L 79.528421 232.453565 
L 85.224115 227.44487 
L 90.919809 244.474435 
L 96.615502 250.48487 
L 102.311196 226.44313 
L 108.00689 207.410087 
L 113.702584 211.417043 
L 119.398278 228.446609 
L 125.093971 219.430957 
L 130.789665 234.457043 
L 136.485359 200.397913 
L 142.181053 244.474435 
L 147.876746 239.465739 
L 153.57244 234.457043 
L 159.268134 243.472696 
L 164.963828 234.457043 
L 170.659522 241.469217 
L 176.355215 238.464 
L 182.050909 241.469217 
L 187.746603 229.448348 
L 193.442297 221.434435 
L 199.13799 229.448348 
L 204.833684 236.460522 
L 210.529378 235.458783 
L 216.225072 215.424 
L 221.920766 224.439652 
L 227.616459 218.429217 
L 233.312153 236.460522 
L 239.007847 222.436174 
L 244.703541 208.411826 
L 250.399234 218.429217 
L 256.094928 227.44487 
L 261.790622 219.430957 
L 267.486316 219.430957 
L 273.18201 224.439652 
L 278.877703 253.490087 
L 284.573397 228.446609 
L 290.269091 249.48313 
L 295.964785 275.528348 
L 301.660478 292.557913 
L 307.356172 291.556174 
L 313.051866 282.540522 
L 318.74756 267.514435 
L 324.443254 286.547478 
L 330.138947 264.509217 
L 335.834641 281.538783 
L 341.530335 264.509217 
L 347.226029 274.526609 
L 352.921722 263.507478 
L 358.617416 275.528348 
L 364.31311 255.493565 
L 370.008804 269.517913 
L 375.704498 285.545739 
L 381.400191 281.538783 
L 387.095885 283.542261 
L 392.791579 286.547478 
L 398.487273 286.547478 
L 398.487273 257.497043 
L 398.487273 257.497043 
L 392.791579 266.512696 
L 387.095885 259.500522 
L 381.400191 256.495304 
L 375.704498 220.432696 
L 370.008804 220.432696 
L 364.31311 233.455304 
L 358.617416 241.469217 
L 352.921722 220.432696 
L 347.226029 230.450087 
L 341.530335 232.453565 
L 335.834641 241.469217 
L 330.138947 228.446609 
L 324.443254 246.477913 
L 318.74756 212.418783 
L 313.051866 245.476174 
L 307.356172 254.491826 
L 301.660478 262.505739 
L 295.964785 254.491826 
L 290.269091 219.430957 
L 284.573397 201.399652 
L 278.877703 204.40487 
L 273.18201 200.397913 
L 267.486316 206.408348 
L 261.790622 203.40313 
L 256.094928 208.411826 
L 250.399234 205.406609 
L 244.703541 198.394435 
L 239.007847 208.411826 
L 233.312153 213.420522 
L 227.616459 202.401391 
L 221.920766 189.378783 
L 216.225072 179.361391 
L 210.529378 210.415304 
L 204.833684 205.406609 
L 199.13799 199.396174 
L 193.442297 187.375304 
L 187.746603 196.390957 
L 182.050909 191.382261 
L 176.355215 192.384 
L 170.659522 215.424 
L 164.963828 205.406609 
L 159.268134 206.408348 
L 153.57244 205.406609 
L 147.876746 200.397913 
L 142.181053 202.401391 
L 136.485359 167.340522 
L 130.789665 205.406609 
L 125.093971 190.380522 
L 119.398278 206.408348 
L 113.702584 200.397913 
L 108.00689 193.385739 
L 102.311196 217.427478 
L 96.615502 240.467478 
L 90.919809 237.462261 
L 85.224115 219.430957 
L 79.528421 219.430957 
L 73.832727 151.312696 
z
" style="fill:#e377c2;"/>
   </g>
   <g id="PolyCollection_8">
    <path clip-path="url(#p6e0005e362)" d="M 73.832727 143.298783 
L 73.832727 151.312696 
L 79.528421 219.430957 
L 85.224115 219.430957 
L 90.919809 237.462261 
L 96.615502 240.467478 
L 102.311196 217.427478 
L 108.00689 193.385739 
L 113.702584 200.397913 
L 119.398278 206.408348 
L 125.093971 190.380522 
L 130.789665 205.406609 
L 136.485359 167.340522 
L 142.181053 202.401391 
L 147.876746 200.397913 
L 153.57244 205.406609 
L 159.268134 206.408348 
L 164.963828 205.406609 
L 170.659522 215.424 
L 176.355215 192.384 
L 182.050909 191.382261 
L 187.746603 196.390957 
L 193.442297 187.375304 
L 199.13799 199.396174 
L 204.833684 205.406609 
L 210.529378 210.415304 
L 216.225072 179.361391 
L 221.920766 189.378783 
L 227.616459 202.401391 
L 233.312153 213.420522 
L 239.007847 208.411826 
L 244.703541 198.394435 
L 250.399234 205.406609 
L 256.094928 208.411826 
L 261.790622 203.40313 
L 267.486316 206.408348 
L 273.18201 200.397913 
L 278.877703 204.40487 
L 284.573397 201.399652 
L 290.269091 219.430957 
L 295.964785 254.491826 
L 301.660478 262.505739 
L 307.356172 254.491826 
L 313.051866 245.476174 
L 318.74756 212.418783 
L 324.443254 246.477913 
L 330.138947 228.446609 
L 335.834641 241.469217 
L 341.530335 232.453565 
L 347.226029 230.450087 
L 352.921722 220.432696 
L 358.617416 241.469217 
L 364.31311 233.455304 
L 370.008804 220.432696 
L 375.704498 220.432696 
L 381.400191 256.495304 
L 387.095885 259.500522 
L 392.791579 266.512696 
L 398.487273 257.497043 
L 398.487273 257.497043 
L 398.487273 257.497043 
L 392.791579 266.512696 
L 387.095885 259.500522 
L 381.400191 256.495304 
L 375.704498 220.432696 
L 370.008804 220.432696 
L 364.31311 233.455304 
L 358.617416 241.469217 
L 352.921722 220.432696 
L 347.226029 230.450087 
L 341.530335 232.453565 
L 335.834641 241.469217 
L 330.138947 228.446609 
L 324.443254 246.477913 
L 318.74756 212.418783 
L 313.051866 245.476174 
L 307.356172 254.491826 
L 301.660478 262.505739 
L 295.964785 254.491826 
L 290.269091 219.430957 
L 284.573397 201.399652 
L 278.877703 204.40487 
L 273.18201 200.397913 
L 267.486316 206.408348 
L 261.790622 203.40313 
L 256.094928 208.411826 
L 250.399234 205.406609 
L 244.703541 198.394435 
L 239.007847 208.411826 
L 233.312153 213.420522 
L 227.616459 202.401391 
L 221.920766 189.378783 
L 216.225072 179.361391 
L 210.529378 199.396174 
L 204.833684 196.390957 
L 199.13799 195.389217 
L 193.442297 183.368348 
L 187.746603 192.384 
L 182.050909 182.366609 
L 176.355215 185.371826 
L 170.659522 212.418783 
L 164.963828 196.390957 
L 159.268134 201.399652 
L 153.57244 193.385739 
L 147.876746 191.382261 
L 142.181053 188.377043 
L 136.485359 157.32313 
L 130.789665 181.36487 
L 125.093971 162.331826 
L 119.398278 177.357913 
L 113.702584 177.357913 
L 108.00689 153.316174 
L 102.311196 186.373565 
L 96.615502 200.397913 
L 90.919809 206.408348 
L 85.224115 201.399652 
L 79.528421 208.411826 
L 73.832727 143.298783 
z
" style="fill:#7f7f7f;"/>
   </g>
   <g id="PolyCollection_9">
    <path clip-path="url(#p6e0005e362)" d="M 73.832727 142.297043 
L 73.832727 143.298783 
L 79.528421 208.411826 
L 85.224115 201.399652 
L 90.919809 206.408348 
L 96.615502 200.397913 
L 102.311196 186.373565 
L 108.00689 153.316174 
L 113.702584 177.357913 
L 119.398278 177.357913 
L 125.093971 162.331826 
L 130.789665 181.36487 
L 136.485359 157.32313 
L 142.181053 188.377043 
L 147.876746 191.382261 
L 153.57244 193.385739 
L 159.268134 201.399652 
L 164.963828 196.390957 
L 170.659522 212.418783 
L 176.355215 185.371826 
L 182.050909 182.366609 
L 187.746603 192.384 
L 193.442297 183.368348 
L 199.13799 195.389217 
L 204.833684 196.390957 
L 210.529378 199.396174 
L 216.225072 179.361391 
L 221.920766 189.378783 
L 227.616459 202.401391 
L 233.312153 213.420522 
L 239.007847 208.411826 
L 244.703541 198.394435 
L 250.399234 205.406609 
L 256.094928 208.411826 
L 261.790622 203.40313 
L 267.486316 206.408348 
L 273.18201 200.397913 
L 278.877703 204.40487 
L 284.573397 201.399652 
L 290.269091 219.430957 
L 295.964785 254.491826 
L 301.660478 262.505739 
L 307.356172 254.491826 
L 313.051866 245.476174 
L 318.74756 212.418783 
L 324.443254 246.477913 
L 330.138947 228.446609 
L 335.834641 241.469217 
L 341.530335 232.453565 
L 347.226029 230.450087 
L 352.921722 220.432696 
L 358.617416 241.469217 
L 364.31311 233.455304 
L 370.008804 220.432696 
L 375.704498 220.432696 
L 381.400191 256.495304 
L 387.095885 259.500522 
L 392.791579 266.512696 
L 398.487273 257.497043 
L 398.487273 217.427478 
L 398.487273 217.427478 
L 392.791579 228.446609 
L 387.095885 219.430957 
L 381.400191 224.439652 
L 375.704498 190.380522 
L 370.008804 174.352696 
L 364.31311 203.40313 
L 358.617416 204.40487 
L 352.921722 194.387478 
L 347.226029 199.396174 
L 341.530335 211.417043 
L 335.834641 228.446609 
L 330.138947 214.422261 
L 324.443254 203.40313 
L 318.74756 206.408348 
L 313.051866 240.467478 
L 307.356172 249.48313 
L 301.660478 258.498783 
L 295.964785 250.48487 
L 290.269091 215.424 
L 284.573397 197.392696 
L 278.877703 201.399652 
L 273.18201 196.390957 
L 267.486316 203.40313 
L 261.790622 199.396174 
L 256.094928 205.406609 
L 250.399234 203.40313 
L 244.703541 195.389217 
L 239.007847 205.406609 
L 233.312153 211.417043 
L 227.616459 199.396174 
L 221.920766 187.375304 
L 216.225072 177.357913 
L 210.529378 197.392696 
L 204.833684 194.387478 
L 199.13799 193.385739 
L 193.442297 180.36313 
L 187.746603 190.380522 
L 182.050909 179.361391 
L 176.355215 183.368348 
L 170.659522 210.415304 
L 164.963828 194.387478 
L 159.268134 199.396174 
L 153.57244 190.380522 
L 147.876746 187.375304 
L 142.181053 185.371826 
L 136.485359 155.319652 
L 130.789665 178.359652 
L 125.093971 158.32487 
L 119.398278 174.352696 
L 113.702584 173.350957 
L 108.00689 150.310957 
L 102.311196 182.366609 
L 96.615502 197.392696 
L 90.919809 202.401391 
L 85.224115 196.390957 
L 79.528421 205.406609 
L 73.832727 142.297043 
z
" style="fill:#bcbd22;"/>
   </g>
   <g id="PolyCollection_10">
    <path clip-path="url(#p6e0005e362)" d="M 73.832727 127.270957 
L 73.832727 142.297043 
L 79.528421 205.406609 
L 85.224115 196.390957 
L 90.919809 202.401391 
L 96.615502 197.392696 
L 102.311196 182.366609 
L 108.00689 150.310957 
L 113.702584 173.350957 
L 119.398278 174.352696 
L 125.093971 158.32487 
L 130.789665 178.359652 
L 136.485359 155.319652 
L 142.181053 185.371826 
L 147.876746 187.375304 
L 153.57244 190.380522 
L 159.268134 199.396174 
L 164.963828 194.387478 
L 170.659522 210.415304 
L 176.355215 183.368348 
L 182.050909 179.361391 
L 187.746603 190.380522 
L 193.442297 180.36313 
L 199.13799 193.385739 
L 204.833684 194.387478 
L 210.529378 197.392696 
L 216.225072 177.357913 
L 221.920766 187.375304 
L 227.616459 199.396174 
L 233.312153 211.417043 
L 239.007847 205.406609 
L 244.703541 195.389217 
L 250.399234 203.40313 
L 256.094928 205.406609 
L 261.790622 199.396174 
L 267.486316 203.40313 
L 273.18201 196.390957 
L 278.877703 201.399652 
L 284.573397 197.392696 
L 290.269091 215.424 
L 295.964785 250.48487 
L 301.660478 258.498783 
L 307.356172 249.48313 
L 313.051866 240.467478 
L 318.74756 206.408348 
L 324.443254 203.40313 
L 330.138947 214.422261 
L 335.834641 228.446609 
L 341.530335 211.417043 
L 347.226029 199.396174 
L 352.921722 194.387478 
L 358.617416 204.40487 
L 364.31311 203.40313 
L 370.008804 174.352696 
L 375.704498 190.380522 
L 381.400191 224.439652 
L 387.095885 219.430957 
L 392.791579 228.446609 
L 398.487273 217.427478 
L 398.487273 217.427478 
L 398.487273 217.427478 
L 392.791579 228.446609 
L 387.095885 219.430957 
L 381.400191 224.439652 
L 375.704498 190.380522 
L 370.008804 174.352696 
L 364.31311 203.40313 
L 358.617416 204.40487 
L 352.921722 194.387478 
L 347.226029 199.396174 
L 341.530335 211.417043 
L 335.834641 228.446609 
L 330.138947 214.422261 
L 324.443254 203.40313 
L 318.74756 206.408348 
L 313.051866 240.467478 
L 307.356172 249.48313 
L 301.660478 258.498783 
L 295.964785 250.48487 
L 290.269091 215.424 
L 284.573397 197.392696 
L 278.877703 201.399652 
L 273.18201 196.390957 
L 267.486316 203.40313 
L 261.790622 199.396174 
L 256.094928 205.406609 
L 250.399234 203.40313 
L 244.703541 195.389217 
L 239.007847 205.406609 
L 233.312153 201.399652 
L 227.616459 192.384 
L 221.920766 183.368348 
L 216.225072 170.345739 
L 210.529378 194.387478 
L 204.833684 186.373565 
L 199.13799 185.371826 
L 193.442297 175.354435 
L 187.746603 180.36313 
L 182.050909 169.344 
L 176.355215 166.338783 
L 170.659522 198.394435 
L 164.963828 181.36487 
L 159.268134 183.368348 
L 153.57244 179.361391 
L 147.876746 178.359652 
L 142.181053 173.350957 
L 136.485359 150.310957 
L 130.789665 165.337043 
L 125.093971 137.288348 
L 119.398278 141.295304 
L 113.702584 150.310957 
L 108.00689 149.309217 
L 102.311196 167.340522 
L 96.615502 178.359652 
L 90.919809 185.371826 
L 85.224115 167.340522 
L 79.528421 187.375304 
L 73.832727 127.270957 
z
" style="fill:#17becf;"/>
   </g>
   <g id="PolyCollection_11">
    <path clip-path="url(#p6e0005e362)" d="M 73.832727 103.229217 
L 73.832727 127.270957 
L 79.528421 187.375304 
L 85.224115 167.340522 
L 90.919809 185.371826 
L 96.615502 178.359652 
L 102.311196 167.340522 
L 108.00689 149.309217 
L 113.702584 150.310957 
L 119.398278 141.295304 
L 125.093971 137.288348 
L 130.789665 165.337043 
L 136.485359 150.310957 
L 142.181053 173.350957 
L 147.876746 178.359652 
L 153.57244 179.361391 
L 159.268134 183.368348 
L 164.963828 181.36487 
L 170.659522 198.394435 
L 176.355215 166.338783 
L 182.050909 169.344 
L 187.746603 180.36313 
L 193.442297 175.354435 
L 199.13799 185.371826 
L 204.833684 186.373565 
L 210.529378 194.387478 
L 216.225072 170.345739 
L 221.920766 183.368348 
L 227.616459 192.384 
L 233.312153 201.399652 
L 239.007847 205.406609 
L 244.703541 195.389217 
L 250.399234 203.40313 
L 256.094928 205.406609 
L 261.790622 199.396174 
L 267.486316 203.40313 
L 273.18201 196.390957 
L 278.877703 201.399652 
L 284.573397 197.392696 
L 290.269091 215.424 
L 295.964785 250.48487 
L 301.660478 258.498783 
L 307.356172 249.48313 
L 313.051866 240.467478 
L 318.74756 206.408348 
L 324.443254 203.40313 
L 330.138947 214.422261 
L 335.834641 228.446609 
L 341.530335 211.417043 
L 347.226029 199.396174 
L 352.921722 194.387478 
L 358.617416 204.40487 
L 364.31311 203.40313 
L 370.008804 174.352696 
L 375.704498 190.380522 
L 381.400191 224.439652 
L 387.095885 219.430957 
L 392.791579 228.446609 
L 398.487273 217.427478 
L 398.487273 217.427478 
L 398.487273 217.427478 
L 392.791579 228.446609 
L 387.095885 219.430957 
L 381.400191 224.439652 
L 375.704498 190.380522 
L 370.008804 174.352696 
L 364.31311 203.40313 
L 358.617416 204.40487 
L 352.921722 194.387478 
L 347.226029 199.396174 
L 341.530335 211.417043 
L 335.834641 228.446609 
L 330.138947 214.422261 
L 324.443254 203.40313 
L 318.74756 206.408348 
L 313.051866 214.422261 
L 307.356172 214.422261 
L 301.660478 252.488348 
L 295.964785 233.455304 
L 290.269091 197.392696 
L 284.573397 179.361391 
L 278.877703 186.373565 
L 273.18201 182.366609 
L 267.486316 190.380522 
L 261.790622 185.371826 
L 256.094928 195.389217 
L 250.399234 191.382261 
L 244.703541 161.330087 
L 239.007847 184.370087 
L 233.312153 194.387478 
L 227.616459 179.361391 
L 221.920766 177.357913 
L 216.225072 167.340522 
L 210.529378 193.385739 
L 204.833684 163.333565 
L 199.13799 168.342261 
L 193.442297 159.326609 
L 187.746603 167.340522 
L 182.050909 156.321391 
L 176.355215 160.328348 
L 170.659522 187.375304 
L 164.963828 168.342261 
L 159.268134 179.361391 
L 153.57244 170.345739 
L 147.876746 168.342261 
L 142.181053 165.337043 
L 136.485359 138.290087 
L 130.789665 159.326609 
L 125.093971 125.267478 
L 119.398278 129.274435 
L 113.702584 126.269217 
L 108.00689 123.264 
L 102.311196 146.304 
L 96.615502 158.32487 
L 90.919809 163.333565 
L 85.224115 163.333565 
L 79.528421 174.352696 
L 73.832727 103.229217 
z
" style="fill:#1f77b4;"/>
   </g>
   <g id="PolyCollection_12">
    <path clip-path="url(#p6e0005e362)" d="M 73.832727 102.227478 
L 73.832727 103.229217 
L 79.528421 174.352696 
L 85.224115 163.333565 
L 90.919809 163.333565 
L 96.615502 158.32487 
L 102.311196 146.304 
L 108.00689 123.264 
L 113.702584 126.269217 
L 119.398278 129.274435 
L 125.093971 125.267478 
L 130.789665 159.326609 
L 136.485359 138.290087 
L 142.181053 165.337043 
L 147.876746 168.342261 
L 153.57244 170.345739 
L 159.268134 179.361391 
L 164.963828 168.342261 
L 170.659522 187.375304 
L 176.355215 160.328348 
L 182.050909 156.321391 
L 187.746603 167.340522 
L 193.442297 159.326609 
L 199.13799 168.342261 
L 204.833684 163.333565 
L 210.529378 193.385739 
L 216.225072 167.340522 
L 221.920766 177.357913 
L 227.616459 179.361391 
L 233.312153 194.387478 
L 239.007847 184.370087 
L 244.703541 161.330087 
L 250.399234 191.382261 
L 256.094928 195.389217 
L 261.790622 185.371826 
L 267.486316 190.380522 
L 273.18201 182.366609 
L 278.877703 186.373565 
L 284.573397 179.361391 
L 290.269091 197.392696 
L 295.964785 233.455304 
L 301.660478 252.488348 
L 307.356172 214.422261 
L 313.051866 214.422261 
L 318.74756 206.408348 
L 324.443254 203.40313 
L 330.138947 214.422261 
L 335.834641 228.446609 
L 341.530335 211.417043 
L 347.226029 199.396174 
L 352.921722 194.387478 
L 358.617416 204.40487 
L 364.31311 203.40313 
L 370.008804 174.352696 
L 375.704498 190.380522 
L 381.400191 224.439652 
L 387.095885 219.430957 
L 392.791579 228.446609 
L 398.487273 217.427478 
L 398.487273 217.427478 
L 398.487273 217.427478 
L 392.791579 228.446609 
L 387.095885 219.430957 
L 381.400191 224.439652 
L 375.704498 190.380522 
L 370.008804 174.352696 
L 364.31311 203.40313 
L 358.617416 204.40487 
L 352.921722 194.387478 
L 347.226029 199.396174 
L 341.530335 211.417043 
L 335.834641 228.446609 
L 330.138947 214.422261 
L 324.443254 203.40313 
L 318.74756 206.408348 
L 313.051866 214.422261 
L 307.356172 214.422261 
L 301.660478 252.488348 
L 295.964785 233.455304 
L 290.269091 197.392696 
L 284.573397 179.361391 
L 278.877703 186.373565 
L 273.18201 182.366609 
L 267.486316 171.347478 
L 261.790622 168.342261 
L 256.094928 179.361391 
L 250.399234 173.350957 
L 244.703541 148.307478 
L 239.007847 172.349217 
L 233.312153 183.368348 
L 227.616459 170.345739 
L 221.920766 167.340522 
L 216.225072 159.326609 
L 210.529378 185.371826 
L 204.833684 157.32313 
L 199.13799 160.328348 
L 193.442297 152.314435 
L 187.746603 161.330087 
L 182.050909 150.310957 
L 176.355215 154.317913 
L 170.659522 180.36313 
L 164.963828 158.32487 
L 159.268134 166.338783 
L 153.57244 157.32313 
L 147.876746 156.321391 
L 142.181053 154.317913 
L 136.485359 129.274435 
L 130.789665 146.304 
L 125.093971 116.251826 
L 119.398278 119.257043 
L 113.702584 118.255304 
L 108.00689 116.251826 
L 102.311196 141.295304 
L 96.615502 154.317913 
L 90.919809 158.32487 
L 85.224115 159.326609 
L 79.528421 171.347478 
L 73.832727 102.227478 
z
" style="fill:#ff7f0e;"/>
   </g>
   <g id="PolyCollection_13">
    <path clip-path="url(#p6e0005e362)" d="M 73.832727 96.217043 
L 73.832727 102.227478 
L 79.528421 171.347478 
L 85.224115 159.326609 
L 90.919809 158.32487 
L 96.615502 154.317913 
L 102.311196 141.295304 
L 108.00689 116.251826 
L 113.702584 118.255304 
L 119.398278 119.257043 
L 125.093971 116.251826 
L 130.789665 146.304 
L 136.485359 129.274435 
L 142.181053 154.317913 
L 147.876746 156.321391 
L 153.57244 157.32313 
L 159.268134 166.338783 
L 164.963828 158.32487 
L 170.659522 180.36313 
L 176.355215 154.317913 
L 182.050909 150.310957 
L 187.746603 161.330087 
L 193.442297 152.314435 
L 199.13799 160.328348 
L 204.833684 157.32313 
L 210.529378 185.371826 
L 216.225072 159.326609 
L 221.920766 167.340522 
L 227.616459 170.345739 
L 233.312153 183.368348 
L 239.007847 172.349217 
L 244.703541 148.307478 
L 250.399234 173.350957 
L 256.094928 179.361391 
L 261.790622 168.342261 
L 267.486316 171.347478 
L 273.18201 182.366609 
L 278.877703 186.373565 
L 284.573397 179.361391 
L 290.269091 197.392696 
L 295.964785 233.455304 
L 301.660478 252.488348 
L 307.356172 214.422261 
L 313.051866 214.422261 
L 318.74756 206.408348 
L 324.443254 203.40313 
L 330.138947 214.422261 
L 335.834641 228.446609 
L 341.530335 211.417043 
L 347.226029 199.396174 
L 352.921722 194.387478 
L 358.617416 204.40487 
L 364.31311 203.40313 
L 370.008804 174.352696 
L 375.704498 190.380522 
L 381.400191 224.439652 
L 387.095885 219.430957 
L 392.791579 228.446609 
L 398.487273 217.427478 
L 398.487273 217.427478 
L 398.487273 217.427478 
L 392.791579 228.446609 
L 387.095885 219.430957 
L 381.400191 224.439652 
L 375.704498 190.380522 
L 370.008804 174.352696 
L 364.31311 203.40313 
L 358.617416 204.40487 
L 352.921722 194.387478 
L 347.226029 199.396174 
L 341.530335 211.417043 
L 335.834641 228.446609 
L 330.138947 214.422261 
L 324.443254 203.40313 
L 318.74756 206.408348 
L 313.051866 214.422261 
L 307.356172 214.422261 
L 301.660478 252.488348 
L 295.964785 233.455304 
L 290.269091 197.392696 
L 284.573397 179.361391 
L 278.877703 186.373565 
L 273.18201 182.366609 
L 267.486316 171.347478 
L 261.790622 168.342261 
L 256.094928 179.361391 
L 250.399234 173.350957 
L 244.703541 148.307478 
L 239.007847 172.349217 
L 233.312153 183.368348 
L 227.616459 170.345739 
L 221.920766 167.340522 
L 216.225072 159.326609 
L 210.529378 185.371826 
L 204.833684 157.32313 
L 199.13799 160.328348 
L 193.442297 152.314435 
L 187.746603 158.32487 
L 182.050909 146.304 
L 176.355215 151.312696 
L 170.659522 178.359652 
L 164.963828 155.319652 
L 159.268134 164.335304 
L 153.57244 156.321391 
L 147.876746 154.317913 
L 142.181053 150.310957 
L 136.485359 127.270957 
L 130.789665 143.298783 
L 125.093971 114.248348 
L 119.398278 117.253565 
L 113.702584 115.250087 
L 108.00689 112.24487 
L 102.311196 136.286609 
L 96.615502 150.310957 
L 90.919809 153.316174 
L 85.224115 155.319652 
L 79.528421 169.344 
L 73.832727 96.217043 
z
" style="fill:#2ca02c;"/>
   </g>
   <g id="PolyCollection_14">
    <path clip-path="url(#p6e0005e362)" d="M 73.832727 95.215304 
L 73.832727 96.217043 
L 79.528421 169.344 
L 85.224115 155.319652 
L 90.919809 153.316174 
L 96.615502 150.310957 
L 102.311196 136.286609 
L 108.00689 112.24487 
L 113.702584 115.250087 
L 119.398278 117.253565 
L 125.093971 114.248348 
L 130.789665 143.298783 
L 136.485359 127.270957 
L 142.181053 150.310957 
L 147.876746 154.317913 
L 153.57244 156.321391 
L 159.268134 164.335304 
L 164.963828 155.319652 
L 170.659522 178.359652 
L 176.355215 151.312696 
L 182.050909 146.304 
L 187.746603 158.32487 
L 193.442297 152.314435 
L 199.13799 160.328348 
L 204.833684 157.32313 
L 210.529378 185.371826 
L 216.225072 159.326609 
L 221.920766 167.340522 
L 227.616459 170.345739 
L 233.312153 183.368348 
L 239.007847 172.349217 
L 244.703541 148.307478 
L 250.399234 173.350957 
L 256.094928 179.361391 
L 261.790622 168.342261 
L 267.486316 171.347478 
L 273.18201 182.366609 
L 278.877703 186.373565 
L 284.573397 179.361391 
L 290.269091 197.392696 
L 295.964785 233.455304 
L 301.660478 252.488348 
L 307.356172 214.422261 
L 313.051866 214.422261 
L 318.74756 206.408348 
L 324.443254 203.40313 
L 330.138947 214.422261 
L 335.834641 228.446609 
L 341.530335 211.417043 
L 347.226029 199.396174 
L 352.921722 194.387478 
L 358.617416 204.40487 
L 364.31311 203.40313 
L 370.008804 174.352696 
L 375.704498 190.380522 
L 381.400191 224.439652 
L 387.095885 219.430957 
L 392.791579 228.446609 
L 398.487273 217.427478 
L 398.487273 217.427478 
L 398.487273 217.427478 
L 392.791579 228.446609 
L 387.095885 219.430957 
L 381.400191 224.439652 
L 375.704498 190.380522 
L 370.008804 174.352696 
L 364.31311 203.40313 
L 358.617416 204.40487 
L 352.921722 194.387478 
L 347.226029 199.396174 
L 341.530335 211.417043 
L 335.834641 228.446609 
L 330.138947 214.422261 
L 324.443254 203.40313 
L 318.74756 206.408348 
L 313.051866 214.422261 
L 307.356172 214.422261 
L 301.660478 252.488348 
L 295.964785 233.455304 
L 290.269091 197.392696 
L 284.573397 179.361391 
L 278.877703 186.373565 
L 273.18201 182.366609 
L 267.486316 171.347478 
L 261.790622 168.342261 
L 256.094928 179.361391 
L 250.399234 173.350957 
L 244.703541 148.307478 
L 239.007847 172.349217 
L 233.312153 183.368348 
L 227.616459 170.345739 
L 221.920766 167.340522 
L 216.225072 159.326609 
L 210.529378 185.371826 
L 204.833684 157.32313 
L 199.13799 160.328348 
L 193.442297 150.310957 
L 187.746603 155.319652 
L 182.050909 144.300522 
L 176.355215 149.309217 
L 170.659522 176.356174 
L 164.963828 153.316174 
L 159.268134 162.331826 
L 153.57244 154.317913 
L 147.876746 151.312696 
L 142.181053 148.307478 
L 136.485359 125.267478 
L 130.789665 140.293565 
L 125.093971 112.24487 
L 119.398278 114.248348 
L 113.702584 113.246609 
L 108.00689 110.241391 
L 102.311196 133.281391 
L 96.615502 146.304 
L 90.919809 147.305739 
L 85.224115 150.310957 
L 79.528421 166.338783 
L 73.832727 95.215304 
z
" style="fill:#d62728;"/>
   </g>
   <g id="PolyCollection_15">
    <path clip-path="url(#p6e0005e362)" d="M 73.832727 79.187478 
L 73.832727 95.215304 
L 79.528421 166.338783 
L 85.224115 150.310957 
L 90.919809 147.305739 
L 96.615502 146.304 
L 102.311196 133.281391 
L 108.00689 110.241391 
L 113.702584 113.246609 
L 119.398278 114.248348 
L 125.093971 112.24487 
L 130.789665 140.293565 
L 136.485359 125.267478 
L 142.181053 148.307478 
L 147.876746 151.312696 
L 153.57244 154.317913 
L 159.268134 162.331826 
L 164.963828 153.316174 
L 170.659522 176.356174 
L 176.355215 149.309217 
L 182.050909 144.300522 
L 187.746603 155.319652 
L 193.442297 150.310957 
L 199.13799 160.328348 
L 204.833684 157.32313 
L 210.529378 185.371826 
L 216.225072 159.326609 
L 221.920766 167.340522 
L 227.616459 170.345739 
L 233.312153 183.368348 
L 239.007847 172.349217 
L 244.703541 148.307478 
L 250.399234 173.350957 
L 256.094928 179.361391 
L 261.790622 168.342261 
L 267.486316 171.347478 
L 273.18201 182.366609 
L 278.877703 186.373565 
L 284.573397 179.361391 
L 290.269091 197.392696 
L 295.964785 233.455304 
L 301.660478 252.488348 
L 307.356172 214.422261 
L 313.051866 214.422261 
L 318.74756 206.408348 
L 324.443254 203.40313 
L 330.138947 214.422261 
L 335.834641 228.446609 
L 341.530335 211.417043 
L 347.226029 199.396174 
L 352.921722 194.387478 
L 358.617416 204.40487 
L 364.31311 203.40313 
L 370.008804 174.352696 
L 375.704498 190.380522 
L 381.400191 224.439652 
L 387.095885 219.430957 
L 392.791579 228.446609 
L 398.487273 217.427478 
L 398.487273 217.427478 
L 398.487273 217.427478 
L 392.791579 228.446609 
L 387.095885 219.430957 
L 381.400191 224.439652 
L 375.704498 190.380522 
L 370.008804 174.352696 
L 364.31311 203.40313 
L 358.617416 204.40487 
L 352.921722 194.387478 
L 347.226029 199.396174 
L 341.530335 196.390957 
L 335.834641 199.396174 
L 330.138947 198.394435 
L 324.443254 182.366609 
L 318.74756 178.359652 
L 313.051866 193.385739 
L 307.356172 193.385739 
L 301.660478 195.389217 
L 295.964785 198.394435 
L 290.269091 175.354435 
L 284.573397 156.321391 
L 278.877703 155.319652 
L 273.18201 142.297043 
L 267.486316 141.295304 
L 261.790622 153.316174 
L 256.094928 165.337043 
L 250.399234 156.321391 
L 244.703541 137.288348 
L 239.007847 152.314435 
L 233.312153 164.335304 
L 227.616459 144.300522 
L 221.920766 134.28313 
L 216.225072 152.314435 
L 210.529378 172.349217 
L 204.833684 150.310957 
L 199.13799 149.309217 
L 193.442297 144.300522 
L 187.746603 146.304 
L 182.050909 138.290087 
L 176.355215 140.293565 
L 170.659522 167.340522 
L 164.963828 147.305739 
L 159.268134 156.321391 
L 153.57244 138.290087 
L 147.876746 135.28487 
L 142.181053 133.281391 
L 136.485359 117.253565 
L 130.789665 132.279652 
L 125.093971 107.236174 
L 119.398278 104.230957 
L 113.702584 101.225739 
L 108.00689 106.234435 
L 102.311196 125.267478 
L 96.615502 136.286609 
L 90.919809 124.265739 
L 85.224115 125.267478 
L 79.528421 131.277913 
L 73.832727 79.187478 
z
" style="fill:#9467bd;"/>
   </g>
   <g id="PolyCollection_16">
    <path clip-path="url(#p6e0005e362)" d="M 73.832727 68.168348 
L 73.832727 79.187478 
L 79.528421 131.277913 
L 85.224115 125.267478 
L 90.919809 124.265739 
L 96.615502 136.286609 
L 102.311196 125.267478 
L 108.00689 106.234435 
L 113.702584 101.225739 
L 119.398278 104.230957 
L 125.093971 107.236174 
L 130.789665 132.279652 
L 136.485359 117.253565 
L 142.181053 133.281391 
L 147.876746 135.28487 
L 153.57244 138.290087 
L 159.268134 156.321391 
L 164.963828 147.305739 
L 170.659522 167.340522 
L 176.355215 140.293565 
L 182.050909 138.290087 
L 187.746603 146.304 
L 193.442297 144.300522 
L 199.13799 149.309217 
L 204.833684 150.310957 
L 210.529378 172.349217 
L 216.225072 152.314435 
L 221.920766 134.28313 
L 227.616459 144.300522 
L 233.312153 164.335304 
L 239.007847 152.314435 
L 244.703541 137.288348 
L 250.399234 156.321391 
L 256.094928 165.337043 
L 261.790622 153.316174 
L 267.486316 141.295304 
L 273.18201 142.297043 
L 278.877703 155.319652 
L 284.573397 156.321391 
L 290.269091 175.354435 
L 295.964785 198.394435 
L 301.660478 195.389217 
L 307.356172 193.385739 
L 313.051866 193.385739 
L 318.74756 178.359652 
L 324.443254 182.366609 
L 330.138947 198.394435 
L 335.834641 199.396174 
L 341.530335 196.390957 
L 347.226029 199.396174 
L 352.921722 194.387478 
L 358.617416 204.40487 
L 364.31311 203.40313 
L 370.008804 174.352696 
L 375.704498 190.380522 
L 381.400191 224.439652 
L 387.095885 219.430957 
L 392.791579 228.446609 
L 398.487273 217.427478 
L 398.487273 217.427478 
L 398.487273 217.427478 
L 392.791579 228.446609 
L 387.095885 219.430957 
L 381.400191 224.439652 
L 375.704498 190.380522 
L 370.008804 174.352696 
L 364.31311 203.40313 
L 358.617416 204.40487 
L 352.921722 194.387478 
L 347.226029 199.396174 
L 341.530335 196.390957 
L 335.834641 199.396174 
L 330.138947 198.394435 
L 324.443254 182.366609 
L 318.74756 178.359652 
L 313.051866 193.385739 
L 307.356172 193.385739 
L 301.660478 195.389217 
L 295.964785 198.394435 
L 290.269091 175.354435 
L 284.573397 156.321391 
L 278.877703 155.319652 
L 273.18201 142.297043 
L 267.486316 141.295304 
L 261.790622 153.316174 
L 256.094928 165.337043 
L 250.399234 156.321391 
L 244.703541 125.267478 
L 239.007847 129.274435 
L 233.312153 148.307478 
L 227.616459 130.276174 
L 221.920766 114.248348 
L 216.225072 140.293565 
L 210.529378 150.310957 
L 204.833684 132.279652 
L 199.13799 137.288348 
L 193.442297 133.281391 
L 187.746603 132.279652 
L 182.050909 123.264 
L 176.355215 126.269217 
L 170.659522 150.310957 
L 164.963828 136.286609 
L 159.268134 147.305739 
L 153.57244 130.276174 
L 147.876746 132.279652 
L 142.181053 123.264 
L 136.485359 113.246609 
L 130.789665 114.248348 
L 125.093971 102.227478 
L 119.398278 89.20487 
L 113.702584 96.217043 
L 108.00689 97.218783 
L 102.311196 107.236174 
L 96.615502 106.234435 
L 90.919809 101.225739 
L 85.224115 103.229217 
L 79.528421 105.232696 
L 73.832727 68.168348 
z
" style="fill:#8c564b;"/>
   </g>
   <g id="PolyCollection_17">
    <path clip-path="url(#p6e0005e362)" d="M 73.832727 67.166609 
L 73.832727 68.168348 
L 79.528421 105.232696 
L 85.224115 103.229217 
L 90.919809 101.225739 
L 96.615502 106.234435 
L 102.311196 107.236174 
L 108.00689 97.218783 
L 113.702584 96.217043 
L 119.398278 89.20487 
L 125.093971 102.227478 
L 130.789665 114.248348 
L 136.485359 113.246609 
L 142.181053 123.264 
L 147.876746 132.279652 
L 153.57244 130.276174 
L 159.268134 147.305739 
L 164.963828 136.286609 
L 170.659522 150.310957 
L 176.355215 126.269217 
L 182.050909 123.264 
L 187.746603 132.279652 
L 193.442297 133.281391 
L 199.13799 137.288348 
L 204.833684 132.279652 
L 210.529378 150.310957 
L 216.225072 140.293565 
L 221.920766 114.248348 
L 227.616459 130.276174 
L 233.312153 148.307478 
L 239.007847 129.274435 
L 244.703541 125.267478 
L 250.399234 156.321391 
L 256.094928 165.337043 
L 261.790622 153.316174 
L 267.486316 141.295304 
L 273.18201 142.297043 
L 278.877703 155.319652 
L 284.573397 156.321391 
L 290.269091 175.354435 
L 295.964785 198.394435 
L 301.660478 195.389217 
L 307.356172 193.385739 
L 313.051866 193.385739 
L 318.74756 178.359652 
L 324.443254 182.366609 
L 330.138947 198.394435 
L 335.834641 199.396174 
L 341.530335 196.390957 
L 347.226029 199.396174 
L 352.921722 194.387478 
L 358.617416 204.40487 
L 364.31311 203.40313 
L 370.008804 174.352696 
L 375.704498 190.380522 
L 381.400191 224.439652 
L 387.095885 219.430957 
L 392.791579 228.446609 
L 398.487273 217.427478 
L 398.487273 124.265739 
L 398.487273 124.265739 
L 392.791579 181.36487 
L 387.095885 191.382261 
L 381.400191 199.396174 
L 375.704498 154.317913 
L 370.008804 142.297043 
L 364.31311 164.335304 
L 358.617416 170.345739 
L 352.921722 169.344 
L 347.226029 169.344 
L 341.530335 161.330087 
L 335.834641 167.340522 
L 330.138947 169.344 
L 324.443254 140.293565 
L 318.74756 144.300522 
L 313.051866 162.331826 
L 307.356172 161.330087 
L 301.660478 189.378783 
L 295.964785 196.390957 
L 290.269091 173.350957 
L 284.573397 152.314435 
L 278.877703 153.316174 
L 273.18201 140.293565 
L 267.486316 138.290087 
L 261.790622 151.312696 
L 256.094928 161.330087 
L 250.399234 154.317913 
L 244.703541 122.262261 
L 239.007847 127.270957 
L 233.312153 145.302261 
L 227.616459 128.272696 
L 221.920766 111.24313 
L 216.225072 138.290087 
L 210.529378 148.307478 
L 204.833684 129.274435 
L 199.13799 135.28487 
L 193.442297 131.277913 
L 187.746603 129.274435 
L 182.050909 121.260522 
L 176.355215 123.264 
L 170.659522 148.307478 
L 164.963828 134.28313 
L 159.268134 145.302261 
L 153.57244 128.272696 
L 147.876746 130.276174 
L 142.181053 121.260522 
L 136.485359 111.24313 
L 130.789665 112.24487 
L 125.093971 100.224 
L 119.398278 86.199652 
L 113.702584 94.213565 
L 108.00689 94.213565 
L 102.311196 103.229217 
L 96.615502 103.229217 
L 90.919809 97.218783 
L 85.224115 99.222261 
L 79.528421 100.224 
L 73.832727 67.166609 
z
" style="fill:#e377c2;"/>
   </g>
   <g id="PolyCollection_18">
    <path clip-path="url(#p6e0005e362)" d="M 73.832727 63.159652 
L 73.832727 67.166609 
L 79.528421 100.224 
L 85.224115 99.222261 
L 90.919809 97.218783 
L 96.615502 103.229217 
L 102.311196 103.229217 
L 108.00689 94.213565 
L 113.702584 94.213565 
L 119.398278 86.199652 
L 125.093971 100.224 
L 130.789665 112.24487 
L 136.485359 111.24313 
L 142.181053 121.260522 
L 147.876746 130.276174 
L 153.57244 128.272696 
L 159.268134 145.302261 
L 164.963828 134.28313 
L 170.659522 148.307478 
L 176.355215 123.264 
L 182.050909 121.260522 
L 187.746603 129.274435 
L 193.442297 131.277913 
L 199.13799 135.28487 
L 204.833684 129.274435 
L 210.529378 148.307478 
L 216.225072 138.290087 
L 221.920766 111.24313 
L 227.616459 128.272696 
L 233.312153 145.302261 
L 239.007847 127.270957 
L 244.703541 122.262261 
L 250.399234 154.317913 
L 256.094928 161.330087 
L 261.790622 151.312696 
L 267.486316 138.290087 
L 273.18201 140.293565 
L 278.877703 153.316174 
L 284.573397 152.314435 
L 290.269091 173.350957 
L 295.964785 196.390957 
L 301.660478 189.378783 
L 307.356172 161.330087 
L 313.051866 162.331826 
L 318.74756 144.300522 
L 324.443254 140.293565 
L 330.138947 169.344 
L 335.834641 167.340522 
L 341.530335 161.330087 
L 347.226029 169.344 
L 352.921722 169.344 
L 358.617416 170.345739 
L 364.31311 164.335304 
L 370.008804 142.297043 
L 375.704498 154.317913 
L 381.400191 199.396174 
L 387.095885 191.382261 
L 392.791579 181.36487 
L 398.487273 124.265739 
L 398.487273 100.224 
L 398.487273 100.224 
L 392.791579 116.251826 
L 387.095885 109.239652 
L 381.400191 113.246609 
L 375.704498 100.224 
L 370.008804 94.213565 
L 364.31311 119.257043 
L 358.617416 126.269217 
L 352.921722 119.257043 
L 347.226029 111.24313 
L 341.530335 111.24313 
L 335.834641 123.264 
L 330.138947 127.270957 
L 324.443254 111.24313 
L 318.74756 113.246609 
L 313.051866 138.290087 
L 307.356172 113.246609 
L 301.660478 135.28487 
L 295.964785 145.302261 
L 290.269091 127.270957 
L 284.573397 115.250087 
L 278.877703 111.24313 
L 273.18201 102.227478 
L 267.486316 103.229217 
L 261.790622 112.24487 
L 256.094928 143.298783 
L 250.399234 133.281391 
L 244.703541 104.230957 
L 239.007847 103.229217 
L 233.312153 107.236174 
L 227.616459 105.232696 
L 221.920766 110.241391 
L 216.225072 111.24313 
L 210.529378 118.255304 
L 204.833684 112.24487 
L 199.13799 124.265739 
L 193.442297 108.237913 
L 187.746603 110.241391 
L 182.050909 92.210087 
L 176.355215 101.225739 
L 170.659522 120.258783 
L 164.963828 106.234435 
L 159.268134 114.248348 
L 153.57244 98.220522 
L 147.876746 106.234435 
L 142.181053 114.248348 
L 136.485359 99.222261 
L 130.789665 97.218783 
L 125.093971 72.175304 
L 119.398278 81.190957 
L 113.702584 76.182261 
L 108.00689 75.180522 
L 102.311196 91.208348 
L 96.615502 89.20487 
L 90.919809 91.208348 
L 85.224115 94.213565 
L 79.528421 94.213565 
L 73.832727 63.159652 
z
" style="fill:#7f7f7f;"/>
   </g>
   <g id="PolyCollection_19">
    <path clip-path="url(#p6e0005e362)" d="M 73.832727 62.157913 
L 73.832727 63.159652 
L 79.528421 94.213565 
L 85.224115 94.213565 
L 90.919809 91.208348 
L 96.615502 89.20487 
L 102.311196 91.208348 
L 108.00689 75.180522 
L 113.702584 76.182261 
L 119.398278 81.190957 
L 125.093971 72.175304 
L 130.789665 97.218783 
L 136.485359 99.222261 
L 142.181053 114.248348 
L 147.876746 106.234435 
L 153.57244 98.220522 
L 159.268134 114.248348 
L 164.963828 106.234435 
L 170.659522 120.258783 
L 176.355215 101.225739 
L 182.050909 92.210087 
L 187.746603 110.241391 
L 193.442297 108.237913 
L 199.13799 124.265739 
L 204.833684 112.24487 
L 210.529378 118.255304 
L 216.225072 111.24313 
L 221.920766 110.241391 
L 227.616459 105.232696 
L 233.312153 107.236174 
L 239.007847 103.229217 
L 244.703541 104.230957 
L 250.399234 133.281391 
L 256.094928 143.298783 
L 261.790622 112.24487 
L 267.486316 103.229217 
L 273.18201 102.227478 
L 278.877703 111.24313 
L 284.573397 115.250087 
L 290.269091 127.270957 
L 295.964785 145.302261 
L 301.660478 135.28487 
L 307.356172 113.246609 
L 313.051866 138.290087 
L 318.74756 113.246609 
L 324.443254 111.24313 
L 330.138947 127.270957 
L 335.834641 123.264 
L 341.530335 111.24313 
L 347.226029 111.24313 
L 352.921722 119.257043 
L 358.617416 126.269217 
L 364.31311 119.257043 
L 370.008804 94.213565 
L 375.704498 100.224 
L 381.400191 113.246609 
L 387.095885 109.239652 
L 392.791579 116.251826 
L 398.487273 100.224 
L 398.487273 77.184 
L 398.487273 77.184 
L 392.791579 92.210087 
L 387.095885 87.201391 
L 381.400191 80.189217 
L 375.704498 74.178783 
L 370.008804 65.16313 
L 364.31311 103.229217 
L 358.617416 107.236174 
L 352.921722 82.192696 
L 347.226029 85.197913 
L 341.530335 89.20487 
L 335.834641 102.227478 
L 330.138947 97.218783 
L 324.443254 80.189217 
L 318.74756 81.190957 
L 313.051866 84.196174 
L 307.356172 73.177043 
L 301.660478 103.229217 
L 295.964785 97.218783 
L 290.269091 87.201391 
L 284.573397 83.194435 
L 278.877703 91.208348 
L 273.18201 88.20313 
L 267.486316 81.190957 
L 261.790622 92.210087 
L 256.094928 101.225739 
L 250.399234 106.234435 
L 244.703541 87.201391 
L 239.007847 86.199652 
L 233.312153 85.197913 
L 227.616459 85.197913 
L 221.920766 95.215304 
L 216.225072 90.206609 
L 210.529378 83.194435 
L 204.833684 85.197913 
L 199.13799 98.220522 
L 193.442297 90.206609 
L 187.746603 94.213565 
L 182.050909 87.201391 
L 176.355215 94.213565 
L 170.659522 102.227478 
L 164.963828 95.215304 
L 159.268134 110.241391 
L 153.57244 94.213565 
L 147.876746 100.224 
L 142.181053 109.239652 
L 136.485359 96.217043 
L 130.789665 93.211826 
L 125.093971 68.168348 
L 119.398278 78.185739 
L 113.702584 73.177043 
L 108.00689 73.177043 
L 102.311196 87.201391 
L 96.615502 84.196174 
L 90.919809 87.201391 
L 85.224115 88.20313 
L 79.528421 86.199652 
L 73.832727 62.157913 
z
" style="fill:#bcbd22;"/>
   </g>
   <g id="PolyCollection_20">
    <path clip-path="url(#p6e0005e362)" d="M 73.832727 58.150957 
L 73.832727 62.157913 
L 79.528421 86.199652 
L 85.224115 88.20313 
L 90.919809 87.201391 
L 96.615502 84.196174 
L 102.311196 87.201391 
L 108.00689 73.177043 
L 113.702584 73.177043 
L 119.398278 78.185739 
L 125.093971 68.168348 
L 130.789665 93.211826 
L 136.485359 96.217043 
L 142.181053 109.239652 
L 147.876746 100.224 
L 153.57244 94.213565 
L 159.268134 110.241391 
L 164.963828 95.215304 
L 170.659522 102.227478 
L 176.355215 94.213565 
L 182.050909 87.201391 
L 187.746603 94.213565 
L 193.442297 90.206609 
L 199.13799 98.220522 
L 204.833684 85.197913 
L 210.529378 83.194435 
L 216.225072 90.206609 
L 221.920766 95.215304 
L 227.616459 85.197913 
L 233.312153 85.197913 
L 239.007847 86.199652 
L 244.703541 87.201391 
L 250.399234 106.234435 
L 256.094928 101.225739 
L 261.790622 92.210087 
L 267.486316 81.190957 
L 273.18201 88.20313 
L 278.877703 91.208348 
L 284.573397 83.194435 
L 290.269091 87.201391 
L 295.964785 97.218783 
L 301.660478 103.229217 
L 307.356172 73.177043 
L 313.051866 84.196174 
L 318.74756 81.190957 
L 324.443254 80.189217 
L 330.138947 97.218783 
L 335.834641 102.227478 
L 341.530335 89.20487 
L 347.226029 85.197913 
L 352.921722 82.192696 
L 358.617416 107.236174 
L 364.31311 103.229217 
L 370.008804 65.16313 
L 375.704498 74.178783 
L 381.400191 80.189217 
L 387.095885 87.201391 
L 392.791579 92.210087 
L 398.487273 77.184 
L 398.487273 77.184 
L 398.487273 77.184 
L 392.791579 92.210087 
L 387.095885 87.201391 
L 381.400191 80.189217 
L 375.704498 74.178783 
L 370.008804 65.16313 
L 364.31311 103.229217 
L 358.617416 107.236174 
L 352.921722 82.192696 
L 347.226029 85.197913 
L 341.530335 89.20487 
L 335.834641 102.227478 
L 330.138947 97.218783 
L 324.443254 80.189217 
L 318.74756 81.190957 
L 313.051866 84.196174 
L 307.356172 73.177043 
L 301.660478 103.229217 
L 295.964785 97.218783 
L 290.269091 87.201391 
L 284.573397 83.194435 
L 278.877703 91.208348 
L 273.18201 88.20313 
L 267.486316 81.190957 
L 261.790622 87.201391 
L 256.094928 92.210087 
L 250.399234 99.222261 
L 244.703541 82.192696 
L 239.007847 82.192696 
L 233.312153 70.171826 
L 227.616459 74.178783 
L 221.920766 80.189217 
L 216.225072 79.187478 
L 210.529378 75.180522 
L 204.833684 76.182261 
L 199.13799 84.196174 
L 193.442297 81.190957 
L 187.746603 78.185739 
L 182.050909 70.171826 
L 176.355215 81.190957 
L 170.659522 88.20313 
L 164.963828 89.20487 
L 159.268134 92.210087 
L 153.57244 90.206609 
L 147.876746 83.194435 
L 142.181053 93.211826 
L 136.485359 82.192696 
L 130.789665 82.192696 
L 125.093971 61.156174 
L 119.398278 59.152696 
L 113.702584 58.150957 
L 108.00689 57.149217 
L 102.311196 57.149217 
L 96.615502 62.157913 
L 90.919809 62.157913 
L 85.224115 62.157913 
L 79.528421 64.161391 
L 73.832727 58.150957 
z
" style="fill:#17becf;"/>
   </g>
   <g id="PolyCollection_21">
    <path clip-path="url(#p6e0005e362)" d="M 73.832727 57.149217 
L 73.832727 58.150957 
L 79.528421 64.161391 
L 85.224115 62.157913 
L 90.919809 62.157913 
L 96.615502 62.157913 
L 102.311196 57.149217 
L 108.00689 57.149217 
L 113.702584 58.150957 
L 119.398278 59.152696 
L 125.093971 61.156174 
L 130.789665 82.192696 
L 136.485359 82.192696 
L 142.181053 93.211826 
L 147.876746 83.194435 
L 153.57244 90.206609 
L 159.268134 92.210087 
L 164.963828 89.20487 
L 170.659522 88.20313 
L 176.355215 81.190957 
L 182.050909 70.171826 
L 187.746603 78.185739 
L 193.442297 81.190957 
L 199.13799 84.196174 
L 204.833684 76.182261 
L 210.529378 75.180522 
L 216.225072 79.187478 
L 221.920766 80.189217 
L 227.616459 74.178783 
L 233.312153 70.171826 
L 239.007847 82.192696 
L 244.703541 82.192696 
L 250.399234 99.222261 
L 256.094928 92.210087 
L 261.790622 87.201391 
L 267.486316 81.190957 
L 273.18201 88.20313 
L 278.877703 91.208348 
L 284.573397 83.194435 
L 290.269091 87.201391 
L 295.964785 97.218783 
L 301.660478 103.229217 
L 307.356172 73.177043 
L 313.051866 84.196174 
L 318.74756 81.190957 
L 324.443254 80.189217 
L 330.138947 97.218783 
L 335.834641 102.227478 
L 341.530335 89.20487 
L 347.226029 85.197913 
L 352.921722 82.192696 
L 358.617416 107.236174 
L 364.31311 103.229217 
L 370.008804 65.16313 
L 375.704498 74.178783 
L 381.400191 80.189217 
L 387.095885 87.201391 
L 392.791579 92.210087 
L 398.487273 77.184 
L 398.487273 59.152696 
L 398.487273 59.152696 
L 392.791579 58.150957 
L 387.095885 58.150957 
L 381.400191 57.149217 
L 375.704498 58.150957 
L 370.008804 58.150957 
L 364.31311 58.150957 
L 358.617416 58.150957 
L 352.921722 57.149217 
L 347.226029 57.149217 
L 341.530335 57.149217 
L 335.834641 57.149217 
L 330.138947 57.149217 
L 324.443254 56.147478 
L 318.74756 57.149217 
L 313.051866 55.145739 
L 307.356172 55.145739 
L 301.660478 55.145739 
L 295.964785 56.147478 
L 290.269091 57.149217 
L 284.573397 57.149217 
L 278.877703 58.150957 
L 273.18201 58.150957 
L 267.486316 60.154435 
L 261.790622 57.149217 
L 256.094928 60.154435 
L 250.399234 58.150957 
L 244.703541 59.152696 
L 239.007847 60.154435 
L 233.312153 57.149217 
L 227.616459 57.149217 
L 221.920766 58.150957 
L 216.225072 61.156174 
L 210.529378 54.144 
L 204.833684 55.145739 
L 199.13799 57.149217 
L 193.442297 58.150957 
L 187.746603 54.144 
L 182.050909 54.144 
L 176.355215 55.145739 
L 170.659522 59.152696 
L 164.963828 58.150957 
L 159.268134 55.145739 
L 153.57244 56.147478 
L 147.876746 54.144 
L 142.181053 54.144 
L 136.485359 55.145739 
L 130.789665 54.144 
L 125.093971 55.145739 
L 119.398278 55.145739 
L 113.702584 56.147478 
L 108.00689 54.144 
L 102.311196 54.144 
L 96.615502 59.152696 
L 90.919809 58.150957 
L 85.224115 57.149217 
L 79.528421 59.152696 
L 73.832727 57.149217 
z
" style="fill:#1f77b4;"/>
   </g>
   <g id="PolyCollection_22">
    <path clip-path="url(#p6e0005e362)" d="M 73.832727 57.149217 
L 73.832727 57.149217 
L 79.528421 59.152696 
L 85.224115 57.149217 
L 90.919809 58.150957 
L 96.615502 59.152696 
L 102.311196 54.144 
L 108.00689 54.144 
L 113.702584 56.147478 
L 119.398278 55.145739 
L 125.093971 55.145739 
L 130.789665 54.144 
L 136.485359 55.145739 
L 142.181053 54.144 
L 147.876746 54.144 
L 153.57244 56.147478 
L 159.268134 55.145739 
L 164.963828 58.150957 
L 170.659522 59.152696 
L 176.355215 55.145739 
L 182.050909 54.144 
L 187.746603 54.144 
L 193.442297 58.150957 
L 199.13799 57.149217 
L 204.833684 55.145739 
L 210.529378 54.144 
L 216.225072 61.156174 
L 221.920766 58.150957 
L 227.616459 57.149217 
L 233.312153 57.149217 
L 239.007847 60.154435 
L 244.703541 59.152696 
L 250.399234 58.150957 
L 256.094928 60.154435 
L 261.790622 57.149217 
L 267.486316 60.154435 
L 273.18201 58.150957 
L 278.877703 58.150957 
L 284.573397 57.149217 
L 290.269091 57.149217 
L 295.964785 56.147478 
L 301.660478 55.145739 
L 307.356172 55.145739 
L 313.051866 55.145739 
L 318.74756 57.149217 
L 324.443254 56.147478 
L 330.138947 57.149217 
L 335.834641 57.149217 
L 341.530335 57.149217 
L 347.226029 57.149217 
L 352.921722 57.149217 
L 358.617416 58.150957 
L 364.31311 58.150957 
L 370.008804 58.150957 
L 375.704498 58.150957 
L 381.400191 57.149217 
L 387.095885 58.150957 
L 392.791579 58.150957 
L 398.487273 59.152696 
L 398.487273 57.149217 
L 398.487273 57.149217 
L 392.791579 58.150957 
L 387.095885 58.150957 
L 381.400191 57.149217 
L 375.704498 58.150957 
L 370.008804 58.150957 
L 364.31311 58.150957 
L 358.617416 58.150957 
L 352.921722 57.149217 
L 347.226029 57.149217 
L 341.530335 57.149217 
L 335.834641 57.149217 
L 330.138947 57.149217 
L 324.443254 56.147478 
L 318.74756 57.149217 
L 313.051866 55.145739 
L 307.356172 55.145739 
L 301.660478 55.145739 
L 295.964785 56.147478 
L 290.269091 57.149217 
L 284.573397 57.149217 
L 278.877703 58.150957 
L 273.18201 58.150957 
L 267.486316 60.154435 
L 261.790622 57.149217 
L 256.094928 60.154435 
L 250.399234 58.150957 
L 244.703541 59.152696 
L 239.007847 60.154435 
L 233.312153 57.149217 
L 227.616459 57.149217 
L 221.920766 58.150957 
L 216.225072 61.156174 
L 210.529378 54.144 
L 204.833684 55.145739 
L 199.13799 57.149217 
L 193.442297 58.150957 
L 187.746603 54.144 
L 182.050909 54.144 
L 176.355215 55.145739 
L 170.659522 59.152696 
L 164.963828 58.150957 
L 159.268134 55.145739 
L 153.57244 56.147478 
L 147.876746 54.144 
L 142.181053 54.144 
L 136.485359 55.145739 
L 130.789665 54.144 
L 125.093971 55.145739 
L 119.398278 55.145739 
L 113.702584 56.147478 
L 108.00689 54.144 
L 102.311196 54.144 
L 96.615502 59.152696 
L 90.919809 58.150957 
L 85.224115 57.149217 
L 79.528421 59.152696 
L 73.832727 57.149217 
z
" style="fill:#ff7f0e;"/>
   </g>
   <g id="matplotlib.axis_1">
    <g id="xtick_1">
     <g id="line2d_1">
      <defs>
       <path d="M 0 0 
L 0 3.5 
" id="m3b52d2bfd5" style="stroke:#000000;stroke-width:0.8;"/>
      </defs>
      <g>
       <use style="stroke:#000000;stroke-width:0.8;" x="73.832727" xlink:href="#m3b52d2bfd5" y="307.584"/>
      </g>
     </g>
     <g id="text_1">
      <!-- 0 -->
      <g transform="translate(70.651477 322.182437)scale(0.1 -0.1)">
       <defs>
        <path d="M 2034 4250 
Q 1547 4250 1301 3770 
Q 1056 3291 1056 2328 
Q 1056 1369 1301 889 
Q 1547 409 2034 409 
Q 2525 409 2770 889 
Q 3016 1369 3016 2328 
Q 3016 3291 2770 3770 
Q 2525 4250 2034 4250 
z
M 2034 4750 
Q 2819 4750 3233 4129 
Q 3647 3509 3647 2328 
Q 3647 1150 3233 529 
Q 2819 -91 2034 -91 
Q 1250 -91 836 529 
Q 422 1150 422 2328 
Q 422 3509 836 4129 
Q 1250 4750 2034 4750 
z
" id="DejaVuSans-30" transform="scale(0.015625)"/>
       </defs>
       <use xlink:href="#DejaVuSans-30"/>
      </g>
     </g>
    </g>
    <g id="xtick_2">
     <g id="line2d_2">
      <g>
       <use style="stroke:#000000;stroke-width:0.8;" x="130.789665" xlink:href="#m3b52d2bfd5" y="307.584"/>
      </g>
     </g>
     <g id="text_2">
      <!-- 10 -->
      <g transform="translate(124.427165 322.182437)scale(0.1 -0.1)">
       <defs>
        <path d="M 794 531 
L 1825 531 
L 1825 4091 
L 703 3866 
L 703 4441 
L 1819 4666 
L 2450 4666 
L 2450 531 
L 3481 531 
L 3481 0 
L 794 0 
L 794 531 
z
" id="DejaVuSans-31" transform="scale(0.015625)"/>
       </defs>
       <use xlink:href="#DejaVuSans-31"/>
       <use x="63.623047" xlink:href="#DejaVuSans-30"/>
      </g>
     </g>
    </g>
    <g id="xtick_3">
     <g id="line2d_3">
      <g>
       <use style="stroke:#000000;stroke-width:0.8;" x="187.746603" xlink:href="#m3b52d2bfd5" y="307.584"/>
      </g>
     </g>
     <g id="text_3">
      <!-- 20 -->
      <g transform="translate(181.384103 322.182437)scale(0.1 -0.1)">
       <defs>
        <path d="M 1228 531 
L 3431 531 
L 3431 0 
L 469 0 
L 469 531 
Q 828 903 1448 1529 
Q 2069 2156 2228 2338 
Q 2531 2678 2651 2914 
Q 2772 3150 2772 3378 
Q 2772 3750 2511 3984 
Q 2250 4219 1831 4219 
Q 1534 4219 1204 4116 
Q 875 4013 500 3803 
L 500 4441 
Q 881 4594 1212 4672 
Q 1544 4750 1819 4750 
Q 2544 4750 2975 4387 
Q 3406 4025 3406 3419 
Q 3406 3131 3298 2873 
Q 3191 2616 2906 2266 
Q 2828 2175 2409 1742 
Q 1991 1309 1228 531 
z
" id="DejaVuSans-32" transform="scale(0.015625)"/>
       </defs>
       <use xlink:href="#DejaVuSans-32"/>
       <use x="63.623047" xlink:href="#DejaVuSans-30"/>
      </g>
     </g>
    </g>
    <g id="xtick_4">
     <g id="line2d_4">
      <g>
       <use style="stroke:#000000;stroke-width:0.8;" x="244.703541" xlink:href="#m3b52d2bfd5" y="307.584"/>
      </g>
     </g>
     <g id="text_4">
      <!-- 30 -->
      <g transform="translate(238.341041 322.182437)scale(0.1 -0.1)">
       <defs>
        <path d="M 2597 2516 
Q 3050 2419 3304 2112 
Q 3559 1806 3559 1356 
Q 3559 666 3084 287 
Q 2609 -91 1734 -91 
Q 1441 -91 1130 -33 
Q 819 25 488 141 
L 488 750 
Q 750 597 1062 519 
Q 1375 441 1716 441 
Q 2309 441 2620 675 
Q 2931 909 2931 1356 
Q 2931 1769 2642 2001 
Q 2353 2234 1838 2234 
L 1294 2234 
L 1294 2753 
L 1863 2753 
Q 2328 2753 2575 2939 
Q 2822 3125 2822 3475 
Q 2822 3834 2567 4026 
Q 2313 4219 1838 4219 
Q 1578 4219 1281 4162 
Q 984 4106 628 3988 
L 628 4550 
Q 988 4650 1302 4700 
Q 1616 4750 1894 4750 
Q 2613 4750 3031 4423 
Q 3450 4097 3450 3541 
Q 3450 3153 3228 2886 
Q 3006 2619 2597 2516 
z
" id="DejaVuSans-33" transform="scale(0.015625)"/>
       </defs>
       <use xlink:href="#DejaVuSans-33"/>
       <use x="63.623047" xlink:href="#DejaVuSans-30"/>
      </g>
     </g>
    </g>
    <g id="xtick_5">
     <g id="line2d_5">
      <g>
       <use style="stroke:#000000;stroke-width:0.8;" x="301.660478" xlink:href="#m3b52d2bfd5" y="307.584"/>
      </g>
     </g>
     <g id="text_5">
      <!-- 40 -->
      <g transform="translate(295.297978 322.182437)scale(0.1 -0.1)">
       <defs>
        <path d="M 2419 4116 
L 825 1625 
L 2419 1625 
L 2419 4116 
z
M 2253 4666 
L 3047 4666 
L 3047 1625 
L 3713 1625 
L 3713 1100 
L 3047 1100 
L 3047 0 
L 2419 0 
L 2419 1100 
L 313 1100 
L 313 1709 
L 2253 4666 
z
" id="DejaVuSans-34" transform="scale(0.015625)"/>
       </defs>
       <use xlink:href="#DejaVuSans-34"/>
       <use x="63.623047" xlink:href="#DejaVuSans-30"/>
      </g>
     </g>
    </g>
    <g id="xtick_6">
     <g id="line2d_6">
      <g>
       <use style="stroke:#000000;stroke-width:0.8;" x="358.617416" xlink:href="#m3b52d2bfd5" y="307.584"/>
      </g>
     </g>
     <g id="text_6">
      <!-- 50 -->
      <g transform="translate(352.254916 322.182437)scale(0.1 -0.1)">
       <defs>
        <path d="M 691 4666 
L 3169 4666 
L 3169 4134 
L 1269 4134 
L 1269 2991 
Q 1406 3038 1543 3061 
Q 1681 3084 1819 3084 
Q 2600 3084 3056 2656 
Q 3513 2228 3513 1497 
Q 3513 744 3044 326 
Q 2575 -91 1722 -91 
Q 1428 -91 1123 -41 
Q 819 9 494 109 
L 494 744 
Q 775 591 1075 516 
Q 1375 441 1709 441 
Q 2250 441 2565 725 
Q 2881 1009 2881 1497 
Q 2881 1984 2565 2268 
Q 2250 2553 1709 2553 
Q 1456 2553 1204 2497 
Q 953 2441 691 2322 
L 691 4666 
z
" id="DejaVuSans-35" transform="scale(0.015625)"/>
       </defs>
       <use xlink:href="#DejaVuSans-35"/>
       <use x="63.623047" xlink:href="#DejaVuSans-30"/>
      </g>
     </g>
    </g>
    <g id="text_7">
     <!-- Generations -->
     <g transform="translate(205.662344 335.860562)scale(0.1 -0.1)">
      <defs>
       <path d="M 3809 666 
L 3809 1919 
L 2778 1919 
L 2778 2438 
L 4434 2438 
L 4434 434 
Q 4069 175 3628 42 
Q 3188 -91 2688 -91 
Q 1594 -91 976 548 
Q 359 1188 359 2328 
Q 359 3472 976 4111 
Q 1594 4750 2688 4750 
Q 3144 4750 3555 4637 
Q 3966 4525 4313 4306 
L 4313 3634 
Q 3963 3931 3569 4081 
Q 3175 4231 2741 4231 
Q 1884 4231 1454 3753 
Q 1025 3275 1025 2328 
Q 1025 1384 1454 906 
Q 1884 428 2741 428 
Q 3075 428 3337 486 
Q 3600 544 3809 666 
z
" id="DejaVuSans-47" transform="scale(0.015625)"/>
       <path d="M 3597 1894 
L 3597 1613 
L 953 1613 
Q 991 1019 1311 708 
Q 1631 397 2203 397 
Q 2534 397 2845 478 
Q 3156 559 3463 722 
L 3463 178 
Q 3153 47 2828 -22 
Q 2503 -91 2169 -91 
Q 1331 -91 842 396 
Q 353 884 353 1716 
Q 353 2575 817 3079 
Q 1281 3584 2069 3584 
Q 2775 3584 3186 3129 
Q 3597 2675 3597 1894 
z
M 3022 2063 
Q 3016 2534 2758 2815 
Q 2500 3097 2075 3097 
Q 1594 3097 1305 2825 
Q 1016 2553 972 2059 
L 3022 2063 
z
" id="DejaVuSans-65" transform="scale(0.015625)"/>
       <path d="M 3513 2113 
L 3513 0 
L 2938 0 
L 2938 2094 
Q 2938 2591 2744 2837 
Q 2550 3084 2163 3084 
Q 1697 3084 1428 2787 
Q 1159 2491 1159 1978 
L 1159 0 
L 581 0 
L 581 3500 
L 1159 3500 
L 1159 2956 
Q 1366 3272 1645 3428 
Q 1925 3584 2291 3584 
Q 2894 3584 3203 3211 
Q 3513 2838 3513 2113 
z
" id="DejaVuSans-6e" transform="scale(0.015625)"/>
       <path d="M 2631 2963 
Q 2534 3019 2420 3045 
Q 2306 3072 2169 3072 
Q 1681 3072 1420 2755 
Q 1159 2438 1159 1844 
L 1159 0 
L 581 0 
L 581 3500 
L 1159 3500 
L 1159 2956 
Q 1341 3275 1631 3429 
Q 1922 3584 2338 3584 
Q 2397 3584 2469 3576 
Q 2541 3569 2628 3553 
L 2631 2963 
z
" id="DejaVuSans-72" transform="scale(0.015625)"/>
       <path d="M 2194 1759 
Q 1497 1759 1228 1600 
Q 959 1441 959 1056 
Q 959 750 1161 570 
Q 1363 391 1709 391 
Q 2188 391 2477 730 
Q 2766 1069 2766 1631 
L 2766 1759 
L 2194 1759 
z
M 3341 1997 
L 3341 0 
L 2766 0 
L 2766 531 
Q 2569 213 2275 61 
Q 1981 -91 1556 -91 
Q 1019 -91 701 211 
Q 384 513 384 1019 
Q 384 1609 779 1909 
Q 1175 2209 1959 2209 
L 2766 2209 
L 2766 2266 
Q 2766 2663 2505 2880 
Q 2244 3097 1772 3097 
Q 1472 3097 1187 3025 
Q 903 2953 641 2809 
L 641 3341 
Q 956 3463 1253 3523 
Q 1550 3584 1831 3584 
Q 2591 3584 2966 3190 
Q 3341 2797 3341 1997 
z
" id="DejaVuSans-61" transform="scale(0.015625)"/>
       <path d="M 1172 4494 
L 1172 3500 
L 2356 3500 
L 2356 3053 
L 1172 3053 
L 1172 1153 
Q 1172 725 1289 603 
Q 1406 481 1766 481 
L 2356 481 
L 2356 0 
L 1766 0 
Q 1100 0 847 248 
Q 594 497 594 1153 
L 594 3053 
L 172 3053 
L 172 3500 
L 594 3500 
L 594 4494 
L 1172 4494 
z
" id="DejaVuSans-74" transform="scale(0.015625)"/>
       <path d="M 603 3500 
L 1178 3500 
L 1178 0 
L 603 0 
L 603 3500 
z
M 603 4863 
L 1178 4863 
L 1178 4134 
L 603 4134 
L 603 4863 
z
" id="DejaVuSans-69" transform="scale(0.015625)"/>
       <path d="M 1959 3097 
Q 1497 3097 1228 2736 
Q 959 2375 959 1747 
Q 959 1119 1226 758 
Q 1494 397 1959 397 
Q 2419 397 2687 759 
Q 2956 1122 2956 1747 
Q 2956 2369 2687 2733 
Q 2419 3097 1959 3097 
z
M 1959 3584 
Q 2709 3584 3137 3096 
Q 3566 2609 3566 1747 
Q 3566 888 3137 398 
Q 2709 -91 1959 -91 
Q 1206 -91 779 398 
Q 353 888 353 1747 
Q 353 2609 779 3096 
Q 1206 3584 1959 3584 
z
" id="DejaVuSans-6f" transform="scale(0.015625)"/>
       <path d="M 2834 3397 
L 2834 2853 
Q 2591 2978 2328 3040 
Q 2066 3103 1784 3103 
Q 1356 3103 1142 2972 
Q 928 2841 928 2578 
Q 928 2378 1081 2264 
Q 1234 2150 1697 2047 
L 1894 2003 
Q 2506 1872 2764 1633 
Q 3022 1394 3022 966 
Q 3022 478 2636 193 
Q 2250 -91 1575 -91 
Q 1294 -91 989 -36 
Q 684 19 347 128 
L 347 722 
Q 666 556 975 473 
Q 1284 391 1588 391 
Q 1994 391 2212 530 
Q 2431 669 2431 922 
Q 2431 1156 2273 1281 
Q 2116 1406 1581 1522 
L 1381 1569 
Q 847 1681 609 1914 
Q 372 2147 372 2553 
Q 372 3047 722 3315 
Q 1072 3584 1716 3584 
Q 2034 3584 2315 3537 
Q 2597 3491 2834 3397 
z
" id="DejaVuSans-73" transform="scale(0.015625)"/>
      </defs>
      <use xlink:href="#DejaVuSans-47"/>
      <use x="77.490234" xlink:href="#DejaVuSans-65"/>
      <use x="139.013672" xlink:href="#DejaVuSans-6e"/>
      <use x="202.392578" xlink:href="#DejaVuSans-65"/>
      <use x="263.916016" xlink:href="#DejaVuSans-72"/>
      <use x="305.029297" xlink:href="#DejaVuSans-61"/>
      <use x="366.308594" xlink:href="#DejaVuSans-74"/>
      <use x="405.517578" xlink:href="#DejaVuSans-69"/>
      <use x="433.300781" xlink:href="#DejaVuSans-6f"/>
      <use x="494.482422" xlink:href="#DejaVuSans-6e"/>
      <use x="557.861328" xlink:href="#DejaVuSans-73"/>
     </g>
    </g>
   </g>
   <g id="matplotlib.axis_2">
    <g id="ytick_1">
     <g id="line2d_7">
      <defs>
       <path d="M 0 0 
L -3.5 0 
" id="m8ffc21e70e" style="stroke:#000000;stroke-width:0.8;"/>
      </defs>
      <g>
       <use style="stroke:#000000;stroke-width:0.8;" x="57.6" xlink:href="#m8ffc21e70e" y="307.584"/>
      </g>
     </g>
     <g id="text_8">
      <!-- 0 -->
      <g transform="translate(44.2375 311.383219)scale(0.1 -0.1)">
       <use xlink:href="#DejaVuSans-30"/>
      </g>
     </g>
    </g>
    <g id="ytick_2">
     <g id="line2d_8">
      <g>
       <use style="stroke:#000000;stroke-width:0.8;" x="57.6" xlink:href="#m8ffc21e70e" y="257.497043"/>
      </g>
     </g>
     <g id="text_9">
      <!-- 50 -->
      <g transform="translate(37.875 261.296262)scale(0.1 -0.1)">
       <use xlink:href="#DejaVuSans-35"/>
       <use x="63.623047" xlink:href="#DejaVuSans-30"/>
      </g>
     </g>
    </g>
    <g id="ytick_3">
     <g id="line2d_9">
      <g>
       <use style="stroke:#000000;stroke-width:0.8;" x="57.6" xlink:href="#m8ffc21e70e" y="207.410087"/>
      </g>
     </g>
     <g id="text_10">
      <!-- 100 -->
      <g transform="translate(31.5125 211.209306)scale(0.1 -0.1)">
       <use xlink:href="#DejaVuSans-31"/>
       <use x="63.623047" xlink:href="#DejaVuSans-30"/>
       <use x="127.246094" xlink:href="#DejaVuSans-30"/>
      </g>
     </g>
    </g>
    <g id="ytick_4">
     <g id="line2d_10">
      <g>
       <use style="stroke:#000000;stroke-width:0.8;" x="57.6" xlink:href="#m8ffc21e70e" y="157.32313"/>
      </g>
     </g>
     <g id="text_11">
      <!-- 150 -->
      <g transform="translate(31.5125 161.122349)scale(0.1 -0.1)">
       <use xlink:href="#DejaVuSans-31"/>
       <use x="63.623047" xlink:href="#DejaVuSans-35"/>
       <use x="127.246094" xlink:href="#DejaVuSans-30"/>
      </g>
     </g>
    </g>
    <g id="ytick_5">
     <g id="line2d_11">
      <g>
       <use style="stroke:#000000;stroke-width:0.8;" x="57.6" xlink:href="#m8ffc21e70e" y="107.236174"/>
      </g>
     </g>
     <g id="text_12">
      <!-- 200 -->
      <g transform="translate(31.5125 111.035393)scale(0.1 -0.1)">
       <use xlink:href="#DejaVuSans-32"/>
       <use x="63.623047" xlink:href="#DejaVuSans-30"/>
       <use x="127.246094" xlink:href="#DejaVuSans-30"/>
      </g>
     </g>
    </g>
    <g id="ytick_6">
     <g id="line2d_12">
      <g>
       <use style="stroke:#000000;stroke-width:0.8;" x="57.6" xlink:href="#m8ffc21e70e" y="57.149217"/>
      </g>
     </g>
     <g id="text_13">
      <!-- 250 -->
      <g transform="translate(31.5125 60.948436)scale(0.1 -0.1)">
       <use xlink:href="#DejaVuSans-32"/>
       <use x="63.623047" xlink:href="#DejaVuSans-35"/>
       <use x="127.246094" xlink:href="#DejaVuSans-30"/>
      </g>
     </g>
    </g>
    <g id="text_14">
     <!-- Size per Species -->
     <g transform="translate(25.432812 215.520969)rotate(-90)scale(0.1 -0.1)">
      <defs>
       <path d="M 3425 4513 
L 3425 3897 
Q 3066 4069 2747 4153 
Q 2428 4238 2131 4238 
Q 1616 4238 1336 4038 
Q 1056 3838 1056 3469 
Q 1056 3159 1242 3001 
Q 1428 2844 1947 2747 
L 2328 2669 
Q 3034 2534 3370 2195 
Q 3706 1856 3706 1288 
Q 3706 609 3251 259 
Q 2797 -91 1919 -91 
Q 1588 -91 1214 -16 
Q 841 59 441 206 
L 441 856 
Q 825 641 1194 531 
Q 1563 422 1919 422 
Q 2459 422 2753 634 
Q 3047 847 3047 1241 
Q 3047 1584 2836 1778 
Q 2625 1972 2144 2069 
L 1759 2144 
Q 1053 2284 737 2584 
Q 422 2884 422 3419 
Q 422 4038 858 4394 
Q 1294 4750 2059 4750 
Q 2388 4750 2728 4690 
Q 3069 4631 3425 4513 
z
" id="DejaVuSans-53" transform="scale(0.015625)"/>
       <path d="M 353 3500 
L 3084 3500 
L 3084 2975 
L 922 459 
L 3084 459 
L 3084 0 
L 275 0 
L 275 525 
L 2438 3041 
L 353 3041 
L 353 3500 
z
" id="DejaVuSans-7a" transform="scale(0.015625)"/>
       <path id="DejaVuSans-20" transform="scale(0.015625)"/>
       <path d="M 1159 525 
L 1159 -1331 
L 581 -1331 
L 581 3500 
L 1159 3500 
L 1159 2969 
Q 1341 3281 1617 3432 
Q 1894 3584 2278 3584 
Q 2916 3584 3314 3078 
Q 3713 2572 3713 1747 
Q 3713 922 3314 415 
Q 2916 -91 2278 -91 
Q 1894 -91 1617 61 
Q 1341 213 1159 525 
z
M 3116 1747 
Q 3116 2381 2855 2742 
Q 2594 3103 2138 3103 
Q 1681 3103 1420 2742 
Q 1159 2381 1159 1747 
Q 1159 1113 1420 752 
Q 1681 391 2138 391 
Q 2594 391 2855 752 
Q 3116 1113 3116 1747 
z
" id="DejaVuSans-70" transform="scale(0.015625)"/>
       <path d="M 3122 3366 
L 3122 2828 
Q 2878 2963 2633 3030 
Q 2388 3097 2138 3097 
Q 1578 3097 1268 2742 
Q 959 2388 959 1747 
Q 959 1106 1268 751 
Q 1578 397 2138 397 
Q 2388 397 2633 464 
Q 2878 531 3122 666 
L 3122 134 
Q 2881 22 2623 -34 
Q 2366 -91 2075 -91 
Q 1284 -91 818 406 
Q 353 903 353 1747 
Q 353 2603 823 3093 
Q 1294 3584 2113 3584 
Q 2378 3584 2631 3529 
Q 2884 3475 3122 3366 
z
" id="DejaVuSans-63" transform="scale(0.015625)"/>
      </defs>
      <use xlink:href="#DejaVuSans-53"/>
      <use x="63.476562" xlink:href="#DejaVuSans-69"/>
      <use x="91.259766" xlink:href="#DejaVuSans-7a"/>
      <use x="143.75" xlink:href="#DejaVuSans-65"/>
      <use x="205.273438" xlink:href="#DejaVuSans-20"/>
      <use x="237.060547" xlink:href="#DejaVuSans-70"/>
      <use x="300.537109" xlink:href="#DejaVuSans-65"/>
      <use x="362.060547" xlink:href="#DejaVuSans-72"/>
      <use x="403.173828" xlink:href="#DejaVuSans-20"/>
      <use x="434.960938" xlink:href="#DejaVuSans-53"/>
      <use x="498.4375" xlink:href="#DejaVuSans-70"/>
      <use x="561.914062" xlink:href="#DejaVuSans-65"/>
      <use x="623.4375" xlink:href="#DejaVuSans-63"/>
      <use x="678.417969" xlink:href="#DejaVuSans-69"/>
      <use x="706.201172" xlink:href="#DejaVuSans-65"/>
      <use x="767.724609" xlink:href="#DejaVuSans-73"/>
     </g>
    </g>
   </g>
   <g id="patch_3">
    <path d="M 57.6 307.584 
L 57.6 41.472 
" style="fill:none;stroke:#000000;stroke-linecap:square;stroke-linejoin:miter;stroke-width:0.8;"/>
   </g>
   <g id="patch_4">
    <path d="M 414.72 307.584 
L 414.72 41.472 
" style="fill:none;stroke:#000000;stroke-linecap:square;stroke-linejoin:miter;stroke-width:0.8;"/>
   </g>
   <g id="patch_5">
    <path d="M 57.6 307.584 
L 414.72 307.584 
" style="fill:none;stroke:#000000;stroke-linecap:square;stroke-linejoin:miter;stroke-width:0.8;"/>
   </g>
   <g id="patch_6">
    <path d="M 57.6 41.472 
L 414.72 41.472 
" style="fill:none;stroke:#000000;stroke-linecap:square;stroke-linejoin:miter;stroke-width:0.8;"/>
   </g>
   <g id="text_15">
    <!-- Speciation -->
    <g transform="translate(204.714375 35.472)scale(0.12 -0.12)">
     <use xlink:href="#DejaVuSans-53"/>
     <use x="63.476562" xlink:href="#DejaVuSans-70"/>
     <use x="126.953125" xlink:href="#DejaVuSans-65"/>
     <use x="188.476562" xlink:href="#DejaVuSans-63"/>
     <use x="243.457031" xlink:href="#DejaVuSans-69"/>
     <use x="271.240234" xlink:href="#DejaVuSans-61"/>
     <use x="332.519531" xlink:href="#DejaVuSans-74"/>
     <use x="371.728516" xlink:href="#DejaVuSans-69"/>
     <use x="399.511719" xlink:href="#DejaVuSans-6f"/>
     <use x="460.693359" xlink:href="#DejaVuSans-6e"/>
    </g>
   </g>
  </g>
 </g>
 <defs>
  <clipPath id="p6e0005e362">
   <rect height="266.112" width="357.12" x="57.6" y="41.472"/>
  </clipPath>
 </defs>
</svg>
