<?xml version="1.0" encoding="UTF-8" standalone="no"?>
<!DOCTYPE svg PUBLIC "-//W3C//DTD SVG 1.1//EN"
 "http://www.w3.org/Graphics/SVG/1.1/DTD/svg11.dtd">
<!-- Generated by graphviz version 2.48.0 (20210717.1556)
 -->
<!-- Pages: 1 -->
<svg width="341pt" height="207pt"
 viewBox="0.00 0.00 340.71 206.89" xmlns="http://www.w3.org/2000/svg" xmlns:xlink="http://www.w3.org/1999/xlink">
<g id="graph0" class="graph" transform="scale(1 1) rotate(0) translate(4 202.89)">
<polygon fill="white" stroke="transparent" points="-4,4 -4,-202.89 336.71,-202.89 336.71,4 -4,4"/>
<!-- x -->
<g id="node1" class="node">
<title>x</title>
<polygon fill="lightgray" stroke="black" points="63.21,-198.89 43.21,-198.89 43.21,-180.89 63.21,-180.89 63.21,-198.89"/>
<text text-anchor="middle" x="53.21" y="-187.69" font-family="Times New Roman,serif" font-size="9.00">x</text>
</g>
<!-- 768 -->
<g id="node6" class="node">
<title>768</title>
<ellipse fill="white" stroke="black" cx="21.21" cy="-120.15" rx="21.43" ry="21.43"/>
<text text-anchor="middle" x="21.21" y="-117.95" font-family="Times New Roman,serif" font-size="9.00">768</text>
</g>
<!-- x&#45;&gt;768 -->
<g id="edge5" class="edge">
<title>x&#45;&gt;768</title>
<path fill="none" stroke="red" stroke-width="0.14" d="M49.42,-180.86C45.69,-172.97 39.79,-160.48 34.35,-148.96"/>
<polygon fill="red" stroke="red" stroke-width="0.14" points="37.38,-147.18 29.95,-139.64 31.05,-150.17 37.38,-147.18"/>
</g>
<!-- 1003 -->
<g id="node9" class="node">
<title>1003</title>
<ellipse fill="white" stroke="black" cx="85.21" cy="-120.15" rx="25" ry="25"/>
<text text-anchor="middle" x="85.21" y="-117.95" font-family="Times New Roman,serif" font-size="9.00">1003</text>
</g>
<!-- x&#45;&gt;1003 -->
<g id="edge7" class="edge">
<title>x&#45;&gt;1003</title>
<path fill="none" stroke="green" stroke-width="0.32" d="M57.01,-180.86C60.42,-173.65 65.64,-162.59 70.67,-151.94"/>
<polygon fill="green" stroke="green" stroke-width="0.32" points="73.88,-153.33 74.99,-142.8 67.55,-150.34 73.88,-153.33"/>
</g>
<!-- dx -->
<g id="node2" class="node">
<title>dx</title>
<polygon fill="lightgray" stroke="black" points="231.71,-198.89 206.71,-198.89 206.71,-180.89 231.71,-180.89 231.71,-198.89"/>
<text text-anchor="middle" x="219.21" y="-187.69" font-family="Times New Roman,serif" font-size="9.00">dx</text>
</g>
<!-- 677 -->
<g id="node7" class="node">
<title>677</title>
<ellipse fill="white" stroke="black" cx="187.21" cy="-120.15" rx="21.43" ry="21.43"/>
<text text-anchor="middle" x="187.21" y="-117.95" font-family="Times New Roman,serif" font-size="9.00">677</text>
</g>
<!-- dx&#45;&gt;677 -->
<g id="edge6" class="edge">
<title>dx&#45;&gt;677</title>
<path fill="none" stroke="red" stroke-width="0.45" d="M215.42,-180.86C211.69,-172.97 205.79,-160.48 200.35,-148.96"/>
<polygon fill="red" stroke="red" stroke-width="0.45" points="203.38,-147.18 195.95,-139.64 197.05,-150.17 203.38,-147.18"/>
</g>
<!-- 1033 -->
<g id="node8" class="node">
<title>1033</title>
<ellipse fill="white" stroke="black" cx="251.21" cy="-120.15" rx="25" ry="25"/>
<text text-anchor="middle" x="251.21" y="-117.95" font-family="Times New Roman,serif" font-size="9.00">1033</text>
</g>
<!-- dx&#45;&gt;1033 -->
<g id="edge9" class="edge">
<title>dx&#45;&gt;1033</title>
<path fill="none" stroke="green" stroke-width="0.48" d="M223.01,-180.86C226.42,-173.65 231.64,-162.59 236.67,-151.94"/>
<polygon fill="green" stroke="green" stroke-width="0.48" points="239.88,-153.33 240.99,-142.8 233.55,-150.34 239.88,-153.33"/>
</g>
<!-- theta -->
<g id="node3" class="node">
<title>theta</title>
<polygon fill="lightgray" stroke="black" points="155.71,-198.89 120.71,-198.89 120.71,-180.89 155.71,-180.89 155.71,-198.89"/>
<text text-anchor="middle" x="138.21" y="-187.69" font-family="Times New Roman,serif" font-size="9.00">theta</text>
</g>
<!-- control -->
<g id="node5" class="node">
<title>control</title>
<ellipse fill="lightblue" stroke="black" cx="187.21" cy="-29.7" rx="29.9" ry="29.9"/>
<text text-anchor="middle" x="187.21" y="-27.5" font-family="Times New Roman,serif" font-size="9.00">control</text>
</g>
<!-- theta&#45;&gt;control -->
<g id="edge1" class="edge">
<title>theta&#45;&gt;control</title>
<path fill="none" stroke="green" stroke-width="0.63" d="M139.22,-180.73C141.39,-164.27 147.13,-126.08 157.21,-95.4 160.49,-85.43 164.88,-74.97 169.3,-65.44"/>
<polygon fill="green" stroke="green" stroke-width="0.63" points="172.52,-66.8 173.68,-56.27 166.21,-63.78 172.52,-66.8"/>
</g>
<!-- theta&#45;&gt;677 -->
<g id="edge3" class="edge">
<title>theta&#45;&gt;677</title>
<path fill="none" stroke="green" stroke-width="0.33" d="M144.03,-180.86C150.25,-172.26 160.42,-158.18 169.34,-145.86"/>
<polygon fill="green" stroke="green" stroke-width="0.33" points="172.22,-147.85 175.24,-137.7 166.54,-143.75 172.22,-147.85"/>
</g>
<!-- dtheta -->
<g id="node4" class="node">
<title>dtheta</title>
<polygon fill="lightgray" stroke="black" points="332.71,-129.15 293.71,-129.15 293.71,-111.15 332.71,-111.15 332.71,-129.15"/>
<text text-anchor="middle" x="313.21" y="-117.95" font-family="Times New Roman,serif" font-size="9.00">dtheta</text>
</g>
<!-- dtheta&#45;&gt;control -->
<g id="edge2" class="edge">
<title>dtheta&#45;&gt;control</title>
<path fill="none" stroke="green" stroke-width="0.51" d="M304.11,-110.94C298.74,-106.23 291.74,-100.29 285.21,-95.4 264.52,-79.87 240.26,-63.84 221.05,-51.62"/>
<polygon fill="green" stroke="green" stroke-width="0.51" points="222.67,-48.5 212.34,-46.12 218.93,-54.42 222.67,-48.5"/>
</g>
<!-- 677&#45;&gt;control -->
<g id="edge4" class="edge">
<title>677&#45;&gt;control</title>
<path fill="none" stroke="red" stroke-width="0.37" d="M187.21,-98.63C187.21,-90 187.21,-79.65 187.21,-69.66"/>
<polygon fill="red" stroke="red" stroke-width="0.37" points="190.71,-69.48 187.21,-59.48 183.71,-69.48 190.71,-69.48"/>
</g>
<!-- 1033&#45;&gt;control -->
<g id="edge10" class="edge">
<title>1033&#45;&gt;control</title>
<path fill="none" stroke="green" stroke-width="0.17" d="M237.01,-99.52C229.17,-88.68 219.24,-74.96 210.32,-62.63"/>
<polygon fill="green" stroke="green" stroke-width="0.17" points="213.03,-60.41 204.34,-54.36 207.36,-64.51 213.03,-60.41"/>
</g>
<!-- 1003&#45;&gt;control -->
<g id="edge8" class="edge">
<title>1003&#45;&gt;control</title>
<path fill="none" stroke="green" stroke-width="0.12" d="M103.45,-103.33C118.46,-90.32 140.03,-71.62 157.52,-56.45"/>
<polygon fill="green" stroke="green" stroke-width="0.12" points="159.97,-58.95 165.23,-49.76 155.38,-53.67 159.97,-58.95"/>
</g>
</g>
</svg>
