<?xml version="1.0" encoding="UTF-8" standalone="no"?>
<!DOCTYPE svg PUBLIC "-//W3C//DTD SVG 1.1//EN"
 "http://www.w3.org/Graphics/SVG/1.1/DTD/svg11.dtd">
<!-- Generated by graphviz version 2.48.0 (20210717.1556)
 -->
<!-- Pages: 1 -->
<svg width="340pt" height="207pt"
 viewBox="0.00 0.00 340.25 206.89" xmlns="http://www.w3.org/2000/svg" xmlns:xlink="http://www.w3.org/1999/xlink">
<g id="graph0" class="graph" transform="scale(1 1) rotate(0) translate(4 202.89)">
<polygon fill="white" stroke="transparent" points="-4,4 -4,-202.89 336.25,-202.89 336.25,4 -4,4"/>
<!-- x -->
<g id="node1" class="node">
<title>x</title>
<polygon fill="lightgray" stroke="black" points="66.75,-198.89 46.75,-198.89 46.75,-180.89 66.75,-180.89 66.75,-198.89"/>
<text text-anchor="middle" x="56.75" y="-187.69" font-family="Times New Roman,serif" font-size="9.00">x</text>
</g>
<!-- 1003 -->
<g id="node8" class="node">
<title>1003</title>
<ellipse fill="white" stroke="black" cx="24.75" cy="-120.15" rx="25" ry="25"/>
<text text-anchor="middle" x="24.75" y="-117.95" font-family="Times New Roman,serif" font-size="9.00">1003</text>
</g>
<!-- x&#45;&gt;1003 -->
<g id="edge7" class="edge">
<title>x&#45;&gt;1003</title>
<path fill="none" stroke="green" stroke-width="0.32" d="M52.95,-180.86C49.55,-173.65 44.32,-162.59 39.29,-151.94"/>
<polygon fill="green" stroke="green" stroke-width="0.32" points="42.41,-150.34 34.97,-142.8 36.08,-153.33 42.41,-150.34"/>
</g>
<!-- 768 -->
<g id="node9" class="node">
<title>768</title>
<ellipse fill="none" stroke="black" cx="88.75" cy="-120.15" rx="21.43" ry="21.43"/>
<text text-anchor="middle" x="88.75" y="-117.95" font-family="Times New Roman,serif" font-size="9.00">768</text>
</g>
<!-- x&#45;&gt;768 -->
<g id="edge5" class="edge">
<title>x&#45;&gt;768</title>
<path fill="none" stroke="red" stroke-width="0.14" d="M60.55,-180.86C64.27,-172.97 70.17,-160.48 75.61,-148.96"/>
<polygon fill="red" stroke="red" stroke-width="0.14" points="78.91,-150.17 80.02,-139.64 72.58,-147.18 78.91,-150.17"/>
</g>
<!-- dx -->
<g id="node2" class="node">
<title>dx</title>
<polygon fill="lightgray" stroke="black" points="231.25,-198.89 206.25,-198.89 206.25,-180.89 231.25,-180.89 231.25,-198.89"/>
<text text-anchor="middle" x="218.75" y="-187.69" font-family="Times New Roman,serif" font-size="9.00">dx</text>
</g>
<!-- 677 -->
<g id="node6" class="node">
<title>677</title>
<ellipse fill="white" stroke="black" cx="186.75" cy="-120.15" rx="21.43" ry="21.43"/>
<text text-anchor="middle" x="186.75" y="-117.95" font-family="Times New Roman,serif" font-size="9.00">677</text>
</g>
<!-- dx&#45;&gt;677 -->
<g id="edge6" class="edge">
<title>dx&#45;&gt;677</title>
<path fill="none" stroke="red" stroke-width="0.45" d="M214.95,-180.86C211.23,-172.97 205.33,-160.48 199.89,-148.96"/>
<polygon fill="red" stroke="red" stroke-width="0.45" points="202.92,-147.18 195.48,-139.64 196.59,-150.17 202.92,-147.18"/>
</g>
<!-- 1033 -->
<g id="node7" class="node">
<title>1033</title>
<ellipse fill="white" stroke="black" cx="250.75" cy="-120.15" rx="25" ry="25"/>
<text text-anchor="middle" x="250.75" y="-117.95" font-family="Times New Roman,serif" font-size="9.00">1033</text>
</g>
<!-- dx&#45;&gt;1033 -->
<g id="edge9" class="edge">
<title>dx&#45;&gt;1033</title>
<path fill="none" stroke="green" stroke-width="0.48" d="M222.55,-180.86C225.95,-173.65 231.17,-162.59 236.2,-151.94"/>
<polygon fill="green" stroke="green" stroke-width="0.48" points="239.42,-153.33 240.52,-142.8 233.09,-150.34 239.42,-153.33"/>
</g>
<!-- theta -->
<g id="node3" class="node">
<title>theta</title>
<polygon fill="lightgray" stroke="black" points="155.25,-198.89 120.25,-198.89 120.25,-180.89 155.25,-180.89 155.25,-198.89"/>
<text text-anchor="middle" x="137.75" y="-187.69" font-family="Times New Roman,serif" font-size="9.00">theta</text>
</g>
<!-- control -->
<g id="node5" class="node">
<title>control</title>
<ellipse fill="lightblue" stroke="black" cx="186.75" cy="-29.7" rx="29.9" ry="29.9"/>
<text text-anchor="middle" x="186.75" y="-27.5" font-family="Times New Roman,serif" font-size="9.00">control</text>
</g>
<!-- theta&#45;&gt;control -->
<g id="edge1" class="edge">
<title>theta&#45;&gt;control</title>
<path fill="none" stroke="green" stroke-width="0.63" d="M138.75,-180.73C140.92,-164.27 146.67,-126.08 156.75,-95.4 160.02,-85.43 164.42,-74.97 168.83,-65.44"/>
<polygon fill="green" stroke="green" stroke-width="0.63" points="172.06,-66.8 173.21,-56.27 165.74,-63.78 172.06,-66.8"/>
</g>
<!-- theta&#45;&gt;677 -->
<g id="edge3" class="edge">
<title>theta&#45;&gt;677</title>
<path fill="none" stroke="green" stroke-width="0.33" d="M143.56,-180.86C149.78,-172.26 159.96,-158.18 168.87,-145.86"/>
<polygon fill="green" stroke="green" stroke-width="0.33" points="171.75,-147.85 174.78,-137.7 166.08,-143.75 171.75,-147.85"/>
</g>
<!-- dtheta -->
<g id="node4" class="node">
<title>dtheta</title>
<polygon fill="lightgray" stroke="black" points="332.25,-129.15 293.25,-129.15 293.25,-111.15 332.25,-111.15 332.25,-129.15"/>
<text text-anchor="middle" x="312.75" y="-117.95" font-family="Times New Roman,serif" font-size="9.00">dtheta</text>
</g>
<!-- dtheta&#45;&gt;control -->
<g id="edge2" class="edge">
<title>dtheta&#45;&gt;control</title>
<path fill="none" stroke="green" stroke-width="0.51" d="M303.64,-110.94C298.28,-106.23 291.28,-100.29 284.75,-95.4 264.05,-79.87 239.79,-63.84 220.59,-51.62"/>
<polygon fill="green" stroke="green" stroke-width="0.51" points="222.2,-48.5 211.88,-46.12 218.46,-54.42 222.2,-48.5"/>
</g>
<!-- 677&#45;&gt;control -->
<g id="edge4" class="edge">
<title>677&#45;&gt;control</title>
<path fill="none" stroke="red" stroke-width="0.37" d="M186.75,-98.63C186.75,-90 186.75,-79.65 186.75,-69.66"/>
<polygon fill="red" stroke="red" stroke-width="0.37" points="190.25,-69.48 186.75,-59.48 183.25,-69.48 190.25,-69.48"/>
</g>
<!-- 1033&#45;&gt;control -->
<g id="edge10" class="edge">
<title>1033&#45;&gt;control</title>
<path fill="none" stroke="green" stroke-width="0.17" d="M236.55,-99.52C228.71,-88.68 218.78,-74.96 209.85,-62.63"/>
<polygon fill="green" stroke="green" stroke-width="0.17" points="212.57,-60.41 203.87,-54.36 206.9,-64.51 212.57,-60.41"/>
</g>
<!-- 1003&#45;&gt;control -->
<g id="edge8" class="edge">
<title>1003&#45;&gt;control</title>
<path fill="none" stroke="green" stroke-width="0.12" d="M44.21,-104.85C48.89,-101.61 53.93,-98.28 58.75,-95.4 88.82,-77.42 124.51,-59.65 150.55,-47.3"/>
<polygon fill="green" stroke="green" stroke-width="0.12" points="152.12,-50.43 159.68,-43.01 149.14,-44.1 152.12,-50.43"/>
</g>
</g>
</svg>
