<?xml version="1.0" encoding="UTF-8" standalone="no"?>
<!DOCTYPE svg PUBLIC "-//W3C//DTD SVG 1.1//EN"
 "http://www.w3.org/Graphics/SVG/1.1/DTD/svg11.dtd">
<!-- Generated by graphviz version 2.48.0 (20210717.1556)
 -->
<!-- Pages: 1 -->
<svg width="396pt" height="207pt"
 viewBox="0.00 0.00 396.19 206.89" xmlns="http://www.w3.org/2000/svg" xmlns:xlink="http://www.w3.org/1999/xlink">
<g id="graph0" class="graph" transform="scale(1 1) rotate(0) translate(4 202.89)">
<polygon fill="white" stroke="transparent" points="-4,4 -4,-202.89 392.19,-202.89 392.19,4 -4,4"/>
<!-- x -->
<g id="node1" class="node">
<title>x</title>
<polygon fill="lightgray" stroke="black" points="47.69,-198.89 27.69,-198.89 27.69,-180.89 47.69,-180.89 47.69,-198.89"/>
<text text-anchor="middle" x="37.69" y="-187.69" font-family="Times New Roman,serif" font-size="9.00">x</text>
</g>
<!-- control -->
<g id="node5" class="node">
<title>control</title>
<ellipse fill="lightblue" stroke="black" cx="207.69" cy="-29.7" rx="29.9" ry="29.9"/>
<text text-anchor="middle" x="207.69" y="-27.5" font-family="Times New Roman,serif" font-size="9.00">control</text>
</g>
<!-- x&#45;&gt;control -->
<g id="edge4" class="edge">
<title>x&#45;&gt;control</title>
<path fill="none" stroke="green" stroke-width="0.22" stroke-dasharray="1,5" d="M29.76,-180.62C22.41,-172.34 11.99,-158.85 7.69,-144.89 1.2,-123.87 -5.25,-113.19 7.69,-95.4 44.22,-45.19 120.53,-33.14 167.61,-30.71"/>
<polygon fill="green" stroke="green" stroke-width="0.22" points="167.9,-34.2 177.76,-30.31 167.63,-27.2 167.9,-34.2"/>
</g>
<!-- 768 -->
<g id="node6" class="node">
<title>768</title>
<ellipse fill="white" stroke="black" cx="37.69" cy="-120.15" rx="21.43" ry="21.43"/>
<text text-anchor="middle" x="37.69" y="-117.95" font-family="Times New Roman,serif" font-size="9.00">768</text>
</g>
<!-- x&#45;&gt;768 -->
<g id="edge7" class="edge">
<title>x&#45;&gt;768</title>
<path fill="none" stroke="red" stroke-width="0.14" d="M37.69,-180.86C37.69,-173.58 37.69,-162.38 37.69,-151.64"/>
<polygon fill="red" stroke="red" stroke-width="0.14" points="41.19,-151.63 37.69,-141.63 34.19,-151.63 41.19,-151.63"/>
</g>
<!-- 1003 -->
<g id="node9" class="node">
<title>1003</title>
<ellipse fill="white" stroke="black" cx="101.69" cy="-120.15" rx="25" ry="25"/>
<text text-anchor="middle" x="101.69" y="-117.95" font-family="Times New Roman,serif" font-size="9.00">1003</text>
</g>
<!-- x&#45;&gt;1003 -->
<g id="edge9" class="edge">
<title>x&#45;&gt;1003</title>
<path fill="none" stroke="green" stroke-width="0.32" d="M45.28,-180.86C53.34,-172.32 66.49,-158.4 78.07,-146.15"/>
<polygon fill="green" stroke="green" stroke-width="0.32" points="80.69,-148.47 85.01,-138.8 75.6,-143.66 80.69,-148.47"/>
</g>
<!-- dx -->
<g id="node2" class="node">
<title>dx</title>
<polygon fill="lightgray" stroke="black" points="220.19,-198.89 195.19,-198.89 195.19,-180.89 220.19,-180.89 220.19,-198.89"/>
<text text-anchor="middle" x="207.69" y="-187.69" font-family="Times New Roman,serif" font-size="9.00">dx</text>
</g>
<!-- dx&#45;&gt;control -->
<g id="edge2" class="edge">
<title>dx&#45;&gt;control</title>
<path fill="none" stroke="green" stroke-width="0.29" stroke-dasharray="1,5" d="M198.72,-180.83C190.41,-172.71 178.62,-159.33 173.69,-144.89 166.58,-124.08 168.42,-116.76 173.69,-95.4 176.36,-84.57 181.21,-73.55 186.42,-63.74"/>
<polygon fill="green" stroke="green" stroke-width="0.29" points="189.62,-65.19 191.47,-54.76 183.52,-61.76 189.62,-65.19"/>
</g>
<!-- 677 -->
<g id="node7" class="node">
<title>677</title>
<ellipse fill="white" stroke="black" cx="271.69" cy="-120.15" rx="21.43" ry="21.43"/>
<text text-anchor="middle" x="271.69" y="-117.95" font-family="Times New Roman,serif" font-size="9.00">677</text>
</g>
<!-- dx&#45;&gt;677 -->
<g id="edge8" class="edge">
<title>dx&#45;&gt;677</title>
<path fill="none" stroke="red" stroke-width="0.45" d="M215.28,-180.86C223.89,-171.74 238.31,-156.48 250.41,-143.67"/>
<polygon fill="red" stroke="red" stroke-width="0.45" points="253.25,-145.76 257.57,-136.09 248.16,-140.96 253.25,-145.76"/>
</g>
<!-- 1033 -->
<g id="node8" class="node">
<title>1033</title>
<ellipse fill="white" stroke="black" cx="207.69" cy="-120.15" rx="25" ry="25"/>
<text text-anchor="middle" x="207.69" y="-117.95" font-family="Times New Roman,serif" font-size="9.00">1033</text>
</g>
<!-- dx&#45;&gt;1033 -->
<g id="edge11" class="edge">
<title>dx&#45;&gt;1033</title>
<path fill="none" stroke="green" stroke-width="0.48" d="M207.69,-180.86C207.69,-174.42 207.69,-164.92 207.69,-155.39"/>
<polygon fill="green" stroke="green" stroke-width="0.48" points="211.19,-155.17 207.69,-145.17 204.19,-155.17 211.19,-155.17"/>
</g>
<!-- theta -->
<g id="node3" class="node">
<title>theta</title>
<polygon fill="lightgray" stroke="black" points="313.19,-198.89 278.19,-198.89 278.19,-180.89 313.19,-180.89 313.19,-198.89"/>
<text text-anchor="middle" x="295.69" y="-187.69" font-family="Times New Roman,serif" font-size="9.00">theta</text>
</g>
<!-- theta&#45;&gt;control -->
<g id="edge1" class="edge">
<title>theta&#45;&gt;control</title>
<path fill="none" stroke="green" stroke-width="0.63" d="M298.87,-180.8C305.01,-163.84 316.6,-123.76 301.69,-95.4 289.62,-72.43 265.3,-56.04 244.43,-45.49"/>
<polygon fill="green" stroke="green" stroke-width="0.63" points="245.66,-42.21 235.13,-41.06 242.65,-48.52 245.66,-42.21"/>
</g>
<!-- theta&#45;&gt;677 -->
<g id="edge5" class="edge">
<title>theta&#45;&gt;677</title>
<path fill="none" stroke="green" stroke-width="0.33" d="M292.84,-180.86C290.13,-173.21 285.89,-161.24 281.92,-150.02"/>
<polygon fill="green" stroke="green" stroke-width="0.33" points="285.18,-148.74 278.54,-140.48 278.58,-151.08 285.18,-148.74"/>
</g>
<!-- dtheta -->
<g id="node4" class="node">
<title>dtheta</title>
<polygon fill="lightgray" stroke="black" points="388.19,-129.15 349.19,-129.15 349.19,-111.15 388.19,-111.15 388.19,-129.15"/>
<text text-anchor="middle" x="368.69" y="-117.95" font-family="Times New Roman,serif" font-size="9.00">dtheta</text>
</g>
<!-- dtheta&#45;&gt;control -->
<g id="edge3" class="edge">
<title>dtheta&#45;&gt;control</title>
<path fill="none" stroke="green" stroke-width="0.51" d="M357.92,-111.05C351.36,-106.26 342.71,-100.21 334.69,-95.4 304.83,-77.48 269.42,-59.71 243.59,-47.34"/>
<polygon fill="green" stroke="green" stroke-width="0.51" points="245.07,-44.17 234.53,-43.04 242.06,-50.49 245.07,-44.17"/>
</g>
<!-- 677&#45;&gt;control -->
<g id="edge6" class="edge">
<title>677&#45;&gt;control</title>
<path fill="none" stroke="red" stroke-width="0.37" d="M259.65,-102.51C251.49,-91.24 240.46,-75.98 230.65,-62.44"/>
<polygon fill="red" stroke="red" stroke-width="0.37" points="233.44,-60.32 224.74,-54.27 227.77,-64.42 233.44,-60.32"/>
</g>
<!-- 1033&#45;&gt;control -->
<g id="edge12" class="edge">
<title>1033&#45;&gt;control</title>
<path fill="none" stroke="green" stroke-width="0.17" d="M207.69,-94.98C207.69,-87.2 207.69,-78.36 207.69,-69.79"/>
<polygon fill="green" stroke="green" stroke-width="0.17" points="211.19,-69.55 207.69,-59.55 204.19,-69.55 211.19,-69.55"/>
</g>
<!-- 1003&#45;&gt;control -->
<g id="edge10" class="edge">
<title>1003&#45;&gt;control</title>
<path fill="none" stroke="green" stroke-width="0.12" d="M120.64,-103.33C136.34,-90.23 158.95,-71.37 177.19,-56.15"/>
<polygon fill="green" stroke="green" stroke-width="0.12" points="179.79,-58.54 185.22,-49.44 175.3,-53.16 179.79,-58.54"/>
</g>
</g>
</svg>
